<svg width="471" height="378" id='shape' viewBox="0 0 471 378" fill="none" xmlns="http://www.w3.org/2000/svg">
<path fill-rule="evenodd" clip-rule="evenodd" d="M271.414 378C327.711 378 377.114 336.019 349.369 278.998C321.624 221.978 424.714 223.82 454.997 184.411C491.928 136.35 481.233 -67.6599 244.151 56.7145C206.174 76.6379 108.639 36.2181 76.2859 56.2737C38.2034 79.881 -15.3763 128.221 38.2035 177.739C64.5958 202.13 -30.027 265.439 11.4159 322.148C51.8538 377.481 80.2001 324.733 141.766 336.019C203.332 347.305 229.603 378 271.414 378Z" fill="#EB1086" fill-opacity="0.16"/>
<path d="M205.41 278.434C205.41 278.434 218.441 272.282 223.306 268.002C228.171 263.723 234.22 253.09 234.22 253.09C234.22 253.09 300.656 301.24 343.975 294.371C353.956 292.789 373.404 286.131 374.644 274.4C378.031 242.369 331.175 234.183 341.41 217.94C347.657 208.024 367.065 222.781 367.065 222.781L447.563 262.516C447.563 262.516 419.753 331.309 352.266 334.066C269.247 337.457 205.41 278.434 205.41 278.434Z" fill="white"/>
<path fill-rule="evenodd" clip-rule="evenodd" d="M142.645 12.2845C141.895 11.9925 137.867 7.10186 132.753 6.21174C130.43 5.80725 132.539 8.7413 129.981 8.76771C122.365 8.84634 109.987 7.42738 107.694 8.76771C105.99 9.76069 109.743 13.2297 107.694 13.3889C88.3623 14.8915 58.8704 34.0317 52.4718 43.3175C50.4355 46.2727 66.9047 41.2589 64.2807 42.7198C61.3355 44.3596 58.0692 55.0964 56.1162 63.3889C54.7642 69.0993 53.9129 76.4484 53.6124 84.4429C53.3621 91.3451 53.4622 92.4872 54.4637 96.261C55.6155 100.482 56.5168 101.723 58.0692 101.127C58.62 100.929 58.8704 100.184 58.8704 98.7934C58.8704 97.701 59.4713 94.4237 60.2224 91.494L61.5244 86.2305L62.0752 88.4154C62.7763 90.9478 66.8825 98.7934 70.588 104.504C70.7879 104.807 71.6477 104.421 72.4231 102.563C73.1297 100.869 72.8429 98.1639 74.0432 95.2643C76.7774 88.6594 82.146 80.0718 88.3623 73.1977C97.5495 63.0384 100.598 51.281 109.21 41.843C125.281 24.2298 145.453 13.3775 142.645 12.2845Z" fill="white"/>
<path fill-rule="evenodd" clip-rule="evenodd" d="M64.2794 45.288C61.5522 47.3696 57.504 64.2541 57.4345 64.5363C56.0043 70.3185 54.6257 90.3979 56.0349 94.1995C57.4441 98.0011 61.3902 84.2972 61.3902 84.2972C61.3902 84.2972 67.3545 98.9979 72.6246 103.028C72.8498 103.201 66.3604 84.8406 64.2794 74.1224C61.5325 59.9739 65.8316 44.1033 64.2794 45.288Z" fill="#EB1086" fill-opacity="0.08"/>
<path fill-rule="evenodd" clip-rule="evenodd" d="M160.658 339.269C165.47 338.218 173.591 334.558 176.7 333.307C179.809 332.055 189.283 318.7 192.692 303.637C195.148 292.527 196.402 276.712 194.998 274.06C194.791 273.684 194.032 266.492 196.051 268.841C200.538 274.06 205.864 282.254 222.67 267.571C227.248 263.572 233.315 258.411 231.717 253.848C227.248 241.081 207.873 215.374 204.919 213.427C201.388 211.099 183.538 213.077 156.974 205.25C126.848 196.374 114.303 170.236 102.514 173.638C92.9802 176.39 70.1375 193.299 64.4047 204.008C37.3402 254.562 70.1375 289.985 77.6067 300.16L84.8588 303.286L85.1095 309.742L85.4604 313.796C86.1121 321.553 86.3627 322.254 89.872 324.856C98.645 331.512 115.94 337.718 131.581 339.92C138.851 340.921 154.642 340.57 160.658 339.269Z" fill="white"/>
<path fill-rule="evenodd" clip-rule="evenodd" d="M87.7593 308.001L88.1087 312.076C88.7576 319.876 89.0071 320.58 92.5011 323.197C97.6542 327.145 105.76 330.936 114.739 333.835C120.981 335.85 127.644 337.435 134.03 338.343C141.268 339.349 156.991 338.997 162.98 337.689C165.941 337.042 141.588 317.755 127.241 323.197C116.224 327.376 90.2562 295.496 100.814 287.168C112.658 277.825 90.955 240.974 90.2562 232.973C89.5574 224.973 86.8054 223.062 86.7251 223.342C86.6448 223.623 86.6448 224.58 86.8608 226.886C87.792 236.827 87.7593 308.001 87.7593 308.001Z" fill="#EB1086" fill-opacity="0.08"/>
<path fill-rule="evenodd" clip-rule="evenodd" d="M85.1305 231.171C86.1784 230.97 87.1932 231.644 87.3972 232.675C91.1644 251.726 107.099 264.623 135.593 271.367C164.256 278.152 183.78 277.786 194.068 270.544C194.936 269.933 194.289 275.168 193.653 275.569C186.943 279.804 164.131 286.124 136.908 280.412C102.101 273.109 85.7574 244.3 83.6024 233.402C83.3984 232.371 84.0826 231.372 85.1305 231.171Z" fill="#EB1086"/>
<path fill-rule="evenodd" clip-rule="evenodd" d="M70.4789 195.218C71.4145 194.678 106.321 234.997 154.226 244.124C202.13 253.25 213.728 247.446 215.592 234.997C215.753 233.923 216.748 233.184 217.814 233.346C218.88 233.508 219.613 234.51 219.452 235.585C217.089 251.361 194.923 255.114 153.569 248.002C112.734 240.979 84.7375 224.294 69.7541 197.902C69.2188 196.959 69.5433 195.757 70.4789 195.218Z" fill="#EB1086"/>
<path fill-rule="evenodd" clip-rule="evenodd" d="M269.914 192.854C268.607 192.412 267.199 191.43 266.294 190.301L264.785 188.485L270.115 183.33C278.312 175.476 284.597 167.425 290.028 157.852C291.838 154.661 296.414 144.009 296.414 142.978C296.414 142.634 296.967 141.26 297.621 139.836C298.626 137.774 299.381 136.989 301.543 135.811C304.107 134.338 307.024 133.847 308.281 134.682C310.695 136.253 310.695 141.211 308.281 149.752C305.616 159.129 302.046 165.854 294.654 175.525C293.497 176.997 291.335 179.894 289.776 181.906C285.603 187.306 282.887 189.908 279.217 191.921C275.596 193.885 273.484 194.13 269.914 192.854Z" fill="white"/>
<path fill-rule="evenodd" clip-rule="evenodd" d="M306.555 188.955L310.167 190.561C310.917 190.907 319.181 194.878 329.107 199.648C345.112 207.338 365.438 217.104 365.562 217.104C365.763 217.104 366.704 214.927 366.917 212.388C367.419 206.919 369.275 199.492 371.433 194.324C372.436 192.016 373.239 189.132 373.239 188.881C373.239 188.766 372.423 188.437 371.088 187.898C369.498 187.257 367.172 186.319 364.609 185.092C351.964 179.021 327.227 166.627 324.167 164.77C321.156 163.014 320.554 162.864 320.554 164.018C320.554 165.523 317.493 172.498 315.135 176.261C313.88 178.318 311.422 182.031 309.666 184.49L306.555 188.955ZM364.705 208.069C366.144 208.903 363.652 210.126 363.05 210.327C359.504 210.628 355.33 209.961 351.91 207.969C350.122 206.701 336.043 198.879 326.703 193.69C322.433 191.318 319.154 189.496 318.493 189.102C316.386 187.848 314.379 186.493 314.027 186.092C312.974 184.737 313.977 184.135 316.938 184.386C318.717 184.537 361.598 206.268 364.705 208.069Z" fill="white"/>
<path fill-rule="evenodd" clip-rule="evenodd" d="M174.446 334.447L174.447 334.447L174.449 334.446C175.383 334.051 176.188 333.712 176.799 333.466C179.911 332.211 189.393 318.821 192.805 303.718C195.264 292.579 196.518 276.723 195.113 274.064C194.266 272.523 199.299 277.69 203.047 281.538L203.05 281.542C204.185 282.707 205.202 283.751 205.901 284.45C227.778 306.177 260.343 323.638 294.162 331.817C311.021 335.931 323.013 337.386 339.12 337.386C366.165 337.386 387.49 332.068 406.858 320.376C407.778 319.821 408.64 319.311 409.462 318.824C416.213 314.827 420.235 312.446 431.243 300.055C443.591 286.156 454.575 253.893 458.238 242.754C459.844 237.736 463.758 217.779 463.758 212.798C463.758 206.902 461.701 204.118 458.891 201.258C453.923 196.391 447.199 194.634 441.63 196.742L439.021 197.745L438.218 195.086C437.064 191.072 434.655 187.861 430.942 185.452C425.423 181.789 424.62 181.538 419.653 181.538C415.789 181.538 414.735 181.739 412.277 182.893L409.417 184.198L408.815 182.391C407.661 178.678 403.79 173.502 400.786 172.005C398.123 170.677 393.512 170.555 390.299 171.152C383.275 172.456 378.257 175.718 376.2 180.284C375.598 181.689 374.845 182.793 374.544 182.793C374.293 182.793 364.408 180.032 352.617 174.814C350.685 173.956 348.866 173.15 347.155 172.391L347.106 172.37L347.021 172.332L347.005 172.325C325.831 162.94 321.241 160.905 321.658 158.357C322.009 156.199 321.909 154.995 321.307 153.139C320.253 150.028 319.049 149.175 315.637 149.175C312.928 149.175 312.928 149.175 313.229 147.82C314.834 140.143 314.784 135.727 313.078 132.917C311.924 131.061 310.569 130.308 307.458 129.857C305.652 129.606 304.799 129.756 302.792 130.86C301.437 131.563 300.283 132.064 300.183 131.964C300.082 131.864 300.434 129.104 300.986 125.843C305.1 101.708 301.921 80.9132 291.435 58.8356C291.334 58.6244 291.218 58.3745 291.085 58.0886C287.896 51.2441 275.077 23.7221 238.416 9.83483C236.76 9.20754 235.192 8.60096 233.686 8.01793L233.682 8.01643L233.677 8.01446L233.677 8.01431C221.189 3.18043 212.886 -0.0330908 192.855 0.000257102C170.404 0.0376348 162.8 3.21155 147.998 9.98536C145.941 10.9387 144.134 11.4906 143.984 11.2899C143.833 11.0391 142.88 10.4369 141.926 9.93518C140.973 9.43342 138.916 8.17901 137.411 7.17548C133.095 4.26525 130.436 3.06102 129.081 3.36207C127.526 3.76349 127.526 5.06807 129.081 5.67019C129.734 5.92107 130.486 6.77407 130.787 7.62707C131.44 9.43342 132.192 9.63412 132.644 8.12883C132.845 7.57689 133.146 7.17548 133.296 7.27583C133.353 7.30437 133.544 7.39376 133.836 7.53016L133.836 7.53037C134.569 7.87372 135.939 8.51468 137.411 9.23271C139.468 10.2362 141.726 11.2899 142.328 11.5408C143.432 11.9422 143.081 12.2433 138.314 15.0532C119.698 25.9916 104.545 43.0014 96.0653 62.3695C94.7607 65.2797 93.6066 67.0861 92.4024 68.0896C89.3416 70.6486 83.3205 77.9242 81.9155 80.7842C81.1629 82.3397 79.5572 84.7482 78.3028 86.1531C77.0986 87.558 75.794 89.3644 75.3424 90.117C74.941 90.9199 74.5396 91.4718 74.3891 91.3714C74.2887 91.2209 74.4392 88.7623 74.7905 85.9022C75.5431 79.2288 75.5431 77.4726 74.941 77.3221C74.0378 77.0712 72.7332 80.5835 72.1813 84.9489C71.7799 87.6082 71.6795 91.6223 71.9304 95.7368L72.2315 102.26L68.669 96.4894C67.4422 94.5573 66.2343 92.6253 65.3773 91.2545L65.3764 91.2531L65.3754 91.2516L65.3751 91.2511L65.3742 91.2497C64.8306 90.3802 64.4287 89.7374 64.2534 89.4647C62.9489 87.558 62.1962 84.698 62.7481 83.7446C63.0492 83.1927 62.999 82.9418 62.4973 82.9418C61.4436 82.9418 59.3863 86.3036 58.0316 90.1672C57.3793 91.9736 56.727 93.4789 56.5263 93.4789C55.7736 93.4789 56.1249 75.5157 56.9277 69.7454C58.5835 58.3554 62.9489 44.306 64.9057 44.306C65.3071 44.306 65.6584 44.1053 65.6584 43.8042C65.6584 42.9011 64.3538 43.2523 63.3001 44.4064C60.9418 46.9653 57.8309 54.843 55.874 63.2225C54.5192 68.9928 53.6662 76.4189 53.3652 84.4973C53.1143 91.4718 53.2146 92.6259 54.2182 96.4393C55.3722 100.704 56.2754 101.959 57.8309 101.357C58.3828 101.156 58.6337 100.403 58.6337 98.9983C58.6337 97.8944 59.2358 94.5827 59.9884 91.6223L61.293 86.3036L61.845 88.5114C62.5474 91.0704 66.6619 98.9983 70.375 104.769C72.9339 108.682 72.9841 108.933 73.8371 115.055C74.2887 118.517 75.6937 126.938 78.9551 139.892C81.8368 151.338 98.0369 162.692 102.082 165.527C102.615 165.9 102.937 166.126 102.99 166.184C103.491 166.736 104.194 167.037 104.595 166.887C105.047 166.736 105.298 166.937 105.298 167.489C105.298 167.991 105.649 168.643 106.05 168.944C106.552 169.295 106.903 170.65 107.004 173.008C107.255 177.725 110.767 186.757 113.476 189.717C115.233 191.624 118.896 192.427 122.96 191.724C125.619 191.323 126.372 191.022 126.121 190.42C125.97 190.018 126.924 190.52 128.228 191.523C143.482 203.164 158.936 210.139 176.297 213.15C183.021 214.304 194.16 214.956 200.231 214.504C204.124 214.25 205.195 214.18 205.393 214.562C205.468 214.707 205.418 214.917 205.349 215.207C204.998 216.612 205.45 217.465 212.826 229.959C218.696 239.843 219.198 240.496 225.721 247.169C239.57 261.469 254.673 272.558 271.783 281.139C287.89 289.167 313.605 295.84 337.113 297.948C360.62 300.055 377.505 278.479 377.454 272.96C377.354 265.383 376.3 260.416 373.741 255.599C371.232 250.932 369.577 249.327 362.05 244.309C353.671 238.739 348.503 234.173 345.091 229.306C342.933 226.246 342.13 222.783 342.13 220.927C342.13 219.723 343.686 217.013 345.994 216.461C348.101 215.909 348.503 215.959 350.861 217.113C352.266 217.766 355.929 219.472 358.939 220.927C362 222.332 364.96 223.737 365.563 224.038C367.338 224.531 368.088 228.006 368.495 229.889C368.586 230.31 368.66 230.651 368.724 230.862C369.426 233.471 372.751 236.84 374.895 237.987C378.662 240.001 387.942 240.27 390.501 237.511C391.153 236.808 393.316 235.944 393.762 236.206C394.207 236.468 395.819 238.639 395.819 240.395C395.869 243.406 397.425 246.166 400.736 248.925C407.008 254.144 411.875 255.398 416.793 253.09C419.352 251.886 421.449 251.415 421.449 251.415C421.449 251.415 423.541 254.084 423.667 254.997C424.652 262.126 435.207 265.114 438.017 265.415C438.661 265.48 439.914 265.204 441.187 264.924C442.889 264.55 444.627 264.168 444.992 264.58C445.709 265.389 433 286.407 431.243 289.066C414.535 314.155 382.02 329.509 342.231 331.114C316.39 332.168 284.628 324.942 257.081 311.796C239.469 303.316 223.864 292.93 207.156 278.379C204.246 275.87 200.884 273.01 199.679 272.006C198.475 271.053 195.615 267.792 193.407 264.781C189.694 259.763 187.587 257.957 187.587 259.663C187.587 260.416 189.995 265.032 192.755 269.598C193.859 271.404 194.561 272.659 194.311 272.458C194.06 272.257 193.257 275.87 192.504 280.486C190.046 295.288 185.981 309.89 181.867 318.971C179.609 323.889 175.279 327.561 173.975 328.564C169.158 332.227 161.947 333.874 151.962 334.877C139.317 336.132 120.702 333.322 106.502 328.003C102.739 326.598 93.0547 322.534 92.4024 322.082C92.3632 322.043 92.1409 320.6 91.8307 318.586L91.8306 318.585L91.829 318.574L91.8247 318.546C91.7389 317.989 91.6464 317.389 91.5494 316.764C89.743 304.37 87.2342 256.652 87.2342 234.575C87.2342 225.443 87.1339 223.436 86.5317 223.436C85.2773 223.436 84.7756 224.64 84.2236 228.955C82.9692 238.79 83.2201 290.12 84.5749 300.908L84.8759 303.367L83.1699 302.413C80.5608 300.908 70.6258 290.823 67.1637 286.156C64.2327 282.167 62.4906 277.057 61.1873 273.235C60.8842 272.346 60.6048 271.526 60.3397 270.807C53.0641 250.636 55.6231 228.002 65.6584 207.63C74.1884 190.269 84.6752 180.635 100.029 175.969C102.538 175.216 104.746 174.413 104.997 174.213C105.95 173.309 99.8285 173.761 96.4667 174.815C85.5282 178.177 74.088 187.359 66.3107 199.1C55.3722 215.558 50.4549 239.843 53.9171 260.566C54.7199 265.483 57.9814 276.121 58.8846 276.874C58.9645 276.953 59.3772 277.819 60.0014 279.129C61.7272 282.749 65.0695 289.761 67.4647 292.93C70.375 296.894 79.1558 305.524 82.8187 308.184L85.1268 309.839L85.478 313.904C86.1303 321.681 86.3812 322.383 89.8936 324.993C98.6744 331.666 115.985 337.888 131.64 340.096C138.916 341.099 154.721 340.748 160.743 339.443C164.613 338.597 170.62 336.062 174.446 334.447L174.446 334.447ZM330.356 292.334C301.204 289.775 265.98 275.875 240.491 254.4C229.753 245.318 215.804 227.657 210.284 217.872C209.13 215.865 208.277 214.912 207.274 214.661C206.22 214.36 207.123 214.059 211.438 213.357C229.652 210.246 247.365 202.669 261.665 191.881L263.772 190.326L264.374 191.781C265.729 195.042 270.948 198.354 274.811 198.354C276.367 198.354 281.585 195.996 284.746 193.838L286.904 192.383L288.66 194.139C290.266 195.745 290.567 195.845 293.577 195.845C297.039 195.845 301.204 194.29 303.512 192.082L304.766 190.928L308.329 193.286C310.236 194.641 315.554 197.601 320.12 199.96C326.944 203.472 334.17 207.536 341.044 211.751L342.148 212.453L341.094 213.858C339.99 215.364 337.934 218.224 337.934 222.589C337.934 227.506 343.047 236.341 352.835 242.409C360.525 247.175 373.759 256.552 373.257 270.257C373.197 271.912 371.351 276.027 368.892 279.74C367.286 282.098 362.821 285.611 358.756 287.668C351.832 291.13 339.639 293.137 330.356 292.334ZM62.7822 67.0816C64.137 67.3826 65.0402 67.8342 64.8394 68.0349C64.1872 68.6872 60.725 68.3862 59.9222 67.5833C58.6678 66.3791 58.9688 65.5261 60.725 65.1749C61.6282 65.0243 62.9829 64.2717 63.7356 63.5191C64.4882 62.7664 65.1405 62.4152 65.1405 62.6661C65.1405 63.3183 62.6317 65.6265 61.3773 66.1282C60.5745 66.4795 60.8253 66.63 62.7822 67.0816ZM82.7757 67.8828C84.2308 67.0799 83.9297 66.528 82.2237 66.7789C80.5177 67.0298 80.4174 66.8291 81.5212 65.1231C81.9728 64.4708 82.2237 63.5174 82.1234 63.0157C81.9728 62.3634 81.6216 62.6644 80.8188 64.2701C80.2167 65.4241 79.3637 66.3775 78.9622 66.3775C77.7078 66.3775 77.6075 67.381 78.8117 67.8326C80.3672 68.4849 81.5714 68.4849 82.7757 67.8828ZM65.4094 40.4937C64.2052 40.6944 60.442 42.1997 57.1303 43.8555C53.7685 45.4612 50.9085 46.8159 50.7078 46.7658C45.5898 46.2138 52.7148 37.6838 65.6603 28.9531C78.0539 20.5737 86.4333 16.1582 94.2107 13.9002C99.0778 12.4953 104.547 12.2946 106.102 13.4486C106.955 14.1009 106.654 14.1511 102.941 14.2013C94.9132 14.2013 85.6305 18.3158 70.5274 28.4012C62.6999 33.6195 53.618 41.0958 53.618 42.3001C53.618 42.5509 55.0731 42.0492 56.8795 41.2464C60.743 39.4902 64.707 38.587 66.4631 38.9884C68.3197 39.4902 67.9183 40.1425 65.4094 40.4937ZM84.8341 44.8093C89.5507 43.856 89.7514 43.8058 89.7514 43.3041C89.7514 43.0532 87.945 42.8023 85.6871 42.7019L81.6228 42.5514L85.386 38.2864C87.4433 35.9281 89.8517 33.5698 90.7047 33.0179C92.5613 31.8137 92.6616 30.9607 91.1563 30.4589L90.0023 30.1077L91.2567 29.6561C91.9591 29.4052 93.2637 29.3048 94.1669 29.4554C95.5217 29.6561 95.8227 29.5557 95.6722 28.8533C95.5217 28.1508 94.9697 28.0003 92.5111 28.0504C85.3359 28.1508 82.2751 30.0575 87.8949 30.9607C89.4503 31.2116 90.7549 31.613 90.7549 31.8638C90.7549 32.0645 90.504 32.2653 90.203 32.2653C89.2496 32.2653 81.1712 40.444 80.1677 42.4511C78.6122 45.4115 79.4652 45.8631 84.8341 44.8093ZM117.946 25.3342C116.491 25.4345 116.14 25.6854 116.24 26.3879L116.256 26.4901C116.312 26.8612 116.345 27.0744 116.261 27.1392C116.149 27.2266 115.826 27.0434 115.068 26.6131L115.068 26.613L114.936 26.5384C113.983 26.0366 113.882 25.7857 114.434 25.3843C114.785 25.0833 115.739 24.6317 116.491 24.4812L117.896 24.1299L116.843 23.026C116.291 22.3737 115.99 21.7716 116.14 21.5709C116.542 21.1695 121.459 21.7215 122.161 22.2734C122.462 22.5243 122.914 22.4741 123.215 22.173C123.917 21.4706 124.871 22.0225 124.871 23.1264C124.871 23.7285 124.72 23.7787 124.269 23.3271C123.867 22.9257 123.516 22.9257 123.064 23.2769C122.663 23.6282 122.362 23.6282 122.111 23.2267C121.961 22.9759 121.007 22.725 120.004 22.725C119.078 22.725 118.64 22.725 118.551 22.9014C118.471 23.0597 118.671 23.3598 119.05 23.9292C119.851 25.1798 119.803 25.1836 117.964 25.3328L117.946 25.3342ZM110.325 11.9915C110.325 11.3393 109.722 10.1852 108.97 9.43255L107.565 8.02761L115.091 8.32867C119.256 8.52938 123.972 8.98096 125.628 9.43255C127.284 9.83396 129.191 10.135 129.893 10.135C130.947 10.135 130.746 9.93432 128.789 8.88061C125.377 7.12444 121.012 6.27144 112.633 5.66932C102.597 4.96685 97.5295 5.92021 98.4829 8.42902C98.6334 8.93079 99.4362 9.18167 100.64 9.18167C103.099 9.18167 107.113 10.6368 108.468 11.9915C109.923 13.4467 110.325 13.4467 110.325 11.9915ZM85.841 144.856C89.9052 150.074 95.2741 155.995 97.7829 158.002C99.2882 159.206 100.593 160.21 100.693 160.21C100.743 160.21 99.6395 157.902 98.2345 155.092C92.5646 143.802 89.2529 132.563 87.6975 119.617C87.3462 116.757 86.7943 114.349 86.1922 113.345C84.988 111.338 84.988 108.729 86.2424 106.27C86.8947 104.966 87.2459 103.31 87.2459 101.504V98.7439L84.8374 101.253C82.4791 103.711 80.2212 104.715 80.2212 103.21C80.2212 102.106 83.9343 96.787 85.8911 95.1312C87.4466 93.8266 87.6473 93.375 88.1491 89.4613C88.5003 87.103 89.3031 82.9383 89.9554 80.1786C90.6579 77.4189 91.0593 75.0606 90.9589 74.9603C90.6077 74.609 78.8163 88.1515 77.2106 92.4718C76.8581 93.4204 75.906 95.081 75.1534 96.0845L73.8488 97.7596C73.8488 97.7596 74.254 100.105 74.7018 103.053C75.1542 106.031 75.3664 108.078 75.5555 109.902C75.8084 112.341 76.0198 114.38 76.7089 117.711C77.5117 121.825 78.3145 125.388 78.5152 125.638C78.6657 125.939 79.318 128.248 79.9703 130.807C81.3753 136.477 83.7335 142.096 85.841 144.856Z" fill="#26242D"/>
<path fill-rule="evenodd" clip-rule="evenodd" d="M289.277 192.767L288.219 191.707C288.219 191.707 305.78 169.34 308.926 161.098C311.328 154.809 312.741 153.025 314.648 153.025C315.714 153.025 316.585 153.269 316.988 153.875C317.693 154.936 318.373 156.249 317.466 160.745C315.954 168.018 313.637 172.816 306.684 183.171C305.071 185.544 303.006 188.171 302.099 189.08C299.983 191.05 295.222 193.07 292.451 193.525C290.688 193.777 290.184 193.676 289.277 192.767Z" fill="white"/>
<path d="M427.768 241.792C434.012 224.72 433.067 221.083 431.984 220.727C431.984 220.727 429.599 222.087 428.545 224.958C426.588 230.347 419.887 244.448 417.378 246.967C414.416 249.938 414.416 249.938 411.405 249.938C408.393 249.938 399.708 245.387 398.525 240.901C396.633 233.724 404.779 208.791 404.98 207.381L403.625 206.424C402.721 207.28 390.969 243.038 375.517 233.721C373.747 232.654 369.995 227.627 369.694 224.958C368.022 217.202 375.696 190.081 377.001 184.51C378.169 179.524 384.25 174.897 391.729 174.897C403.223 174.897 401.679 184.978 406.828 188.531C409.11 190.105 412.859 187.251 414.015 187.034C420.49 185.825 422.971 187.233 427.718 191.013C431.382 193.931 434.093 199.706 437.077 201.74C438.734 202.871 440.493 201.325 441.069 201.035C443.431 199.846 448.498 200.733 449.903 201.74C451.963 202.642 457.012 207.511 457.81 210.344C461.425 223.18 450.01 251.639 445.7 256.977C438.567 265.814 421.523 258.864 427.768 241.792Z" fill="white"/>
<path fill-rule="evenodd" clip-rule="evenodd" d="M139.942 194.808C153.69 203.488 167.866 209.158 184.023 210.714C196.768 211.918 213.952 210.262 226.295 206.248C236.682 202.886 250.731 193.573 260.114 185.696C278.328 170.442 289.819 146.616 294.836 121.327C295.539 117.764 296.61 108.809 296.56 99.928C296.56 89.5917 292.011 61.3454 278.228 45.0587C249.8 11.4675 203.072 -3.66441 163.799 9.26481C149.633 13.9288 134.549 22.379 123.159 33.4178C108.809 47.417 98.2215 66.484 94.0067 85.9525C89.5912 106.525 95.335 131.111 105.32 151.282C113.298 167.339 126.444 186.228 139.942 194.808ZM273.91 134.177C264.477 162.527 239.891 183.701 208.982 190.124C204.265 191.077 201.004 191.428 194.381 191.529C189.714 191.679 185.048 191.629 184.095 191.529C162.469 188.92 146.011 180.942 130.857 165.788C124.234 159.115 121.424 155.502 117.31 148.377C110.837 137.087 107.375 125.547 106.321 111.648C102.708 64.0306 136.778 24.341 184.747 20.2266C203.563 18.6209 224.436 24.3912 240.292 35.6307C246.163 39.7954 256.8 50.3324 260.112 55.2497C261.467 57.2066 274.613 76.4241 276.921 87.4629C279.881 101.813 278.727 119.777 273.91 134.177Z" fill="white"/>
<path fill-rule="evenodd" clip-rule="evenodd" d="M296.035 99.9274C296.035 133.618 280.113 170.451 259.566 186.181C249.763 193.686 236.952 202.773 225.796 206.284C209.447 211.429 183.551 210.751 183.551 210.751C183.551 210.751 209.97 207.216 219.761 203.272C247.836 191.962 263.162 174.602 272.625 157.944C291.306 125.063 296.035 99.109 296.035 99.9274Z" fill="#EB1086" fill-opacity="0.08"/>
<path fill-rule="evenodd" clip-rule="evenodd" d="M184.59 185.495C171.193 183.789 157.896 179.022 147.159 171.948C140.786 167.783 131.152 157.999 126.486 151.024C119.813 140.989 115.397 130.251 113.239 118.71C111.684 110.331 111.734 97.4356 113.29 89.9594C114.895 82.3326 116.953 76.5121 120.615 69.1362C124.88 60.6062 129.396 54.3341 136.17 47.5603C147.711 36.0197 161.108 28.694 177.064 25.1817C182.232 24.0778 200.948 23.1746 201.6 24.0276C201.751 24.2785 202.754 24.9308 203.808 25.4827C204.862 26.0848 207.671 28.1922 209.98 30.2495C213.442 33.26 214.997 35.1667 218.008 39.8833C220.065 43.0946 221.721 46.0048 221.721 46.2557C221.721 46.8077 223.326 47.8112 224.23 47.8112C225.484 47.8112 226.337 44.048 226.588 37.4247C226.738 33.7618 227.039 30.7512 227.24 30.7512C227.943 30.7512 235.67 35.0162 239.283 37.4247C246.357 42.1413 253.432 48.7645 258.651 55.6889C261.009 58.7998 261.36 59.6026 261.36 61.5093C261.36 63.2655 261.862 64.6203 263.417 67.3298C267.331 74.1538 270.392 82.734 272.248 92.2173C273.453 98.5897 273.453 110.632 272.198 117.305C268.786 135.67 258.651 153.934 245.454 165.525C234.265 175.309 222.373 181.331 208.324 184.291C203.507 185.345 189.056 186.047 184.59 185.495ZM148.718 151.178C149.169 150.677 149.471 149.924 149.32 149.573C149.275 149.467 148.647 149.172 147.727 148.74C145.583 147.732 141.856 145.98 140.241 144.154C133.818 136.828 131.46 131.359 130.005 120.069C128.6 109.08 129.78 101.652 132.313 89.7123C133.549 83.8881 136.832 79.0772 138.876 76.0841C140.265 74.049 141.08 72.8543 140.288 72.7527C138.331 72.4517 138.03 72.6022 135.973 74.5591C131.558 78.7739 129.551 82.1357 127.443 88.6085C124.182 98.7441 123.551 126.135 130.005 138.484C136.458 150.832 147.564 152.483 148.718 151.178ZM220.065 109.031C219.212 116.826 215.599 128.098 211.384 133.016C209.427 135.324 202.244 139.288 196.181 138.485C190.324 137.709 185.744 134.973 181.83 129.102C178.468 124.034 176.732 117.883 175.558 110.135C173.531 96.757 182.382 81.1835 186.195 77.3199C190.059 73.3559 192.819 71.951 196.331 71.9008C199.743 71.9008 201.951 72.6535 205.413 75.1121C211.735 79.5276 221.72 93.8847 220.065 109.031ZM152.435 67.5374C153.439 66.3834 153.589 65.8314 153.288 63.6738C153.087 61.6668 152.686 60.864 151.632 60.011C149.776 58.5057 147.468 58.5057 145.762 60.1113C144.557 61.2654 144.407 61.6668 144.557 64.4265C144.708 67.3869 144.808 67.5876 146.464 68.4908C148.672 69.695 150.83 69.3438 152.435 67.5374ZM183.735 36.5755C174.703 43.0482 170.79 45.7076 166.725 48.2164C163.514 50.2234 162.511 50.2736 162.511 48.4673C162.511 47.5139 163.213 46.4602 165.019 44.8044L167.528 42.4963L162.661 41.844C157.192 41.1415 151.873 39.6362 150.719 38.4822C148.812 36.5253 150.468 36.0737 155.887 37.0772C158.296 37.4786 162.962 37.9804 166.274 38.0808L172.295 38.3316L176.66 35.1705C186.244 28.2462 196.179 24.3324 200.946 25.5367C203.906 26.2391 203.555 27.0419 200.193 27.4434C196.33 27.8949 193.971 29.1995 183.735 36.5755Z" fill="white"/>
<path d="M196.039 131.94C196.039 131.55 196.563 131.159 197.262 131.159C197.961 131.159 198.834 131.55 199.096 131.94C199.358 132.409 198.834 132.722 197.873 132.722C196.825 132.722 196.039 132.409 196.039 131.94Z" fill="white"/>
<path d="M199.148 130.69C199.148 130.115 200.825 129.592 202.702 129.592C204.178 129.644 204.178 129.644 202.903 130.376C201.428 131.266 199.148 131.422 199.148 130.69Z" fill="white"/>
<path d="M191.749 130.374C191.641 129.957 191.497 129.228 191.39 128.812C191.282 128.291 191.461 128.031 191.928 128.031C192.323 128.031 192.646 128.343 192.646 128.76C192.646 129.176 192.753 129.853 192.861 130.322C193.004 130.895 192.897 131.155 192.502 131.155C192.179 131.155 191.82 130.791 191.749 130.374Z" fill="white"/>
<path d="M194.524 128.255C194.299 126.916 194.794 126.47 196.414 126.47C196.909 126.47 197.315 126.916 197.495 127.675C197.855 128.969 197.27 129.594 195.694 129.594C194.974 129.594 194.659 129.282 194.524 128.255Z" fill="white"/>
<path d="M189.382 128.853C187.82 128.031 187.82 128.031 189.547 128.031C190.615 128.031 191.355 128.36 191.355 128.853C191.355 129.84 191.355 129.84 189.382 128.853Z" fill="white"/>
<path d="M199.47 129.417C198.88 128.493 199.152 125.719 199.878 125.292C201.194 124.51 201.784 124.865 202.056 126.715C202.237 127.781 202.328 128.706 202.237 128.777C201.874 129.417 199.742 129.844 199.47 129.417Z" fill="white"/>
<path d="M204.087 127.905C203.969 127.752 203.852 127.091 203.852 126.48C203.852 125.615 204.165 125.258 205.107 125.004C205.931 124.8 206.441 124.902 206.677 125.309C207.069 126.124 207.069 127.141 206.716 127.396C206.01 127.905 204.362 128.21 204.087 127.905Z" fill="white"/>
<path d="M186.672 125.892C186.672 125.486 187.208 125.147 187.984 125.046C189.534 124.809 189.474 124.775 189.772 125.655C189.891 126.162 189.593 126.365 188.341 126.433C187.03 126.534 186.672 126.399 186.672 125.892Z" fill="white"/>
<path d="M190.307 126.224C189.235 125.218 189.924 123.341 191.379 123.341C192.374 123.341 192.91 123.81 192.91 124.615C192.91 125.889 191.149 126.962 190.307 126.224Z" fill="white"/>
<path d="M194.565 124.392C194.186 123.787 194.992 123.341 196.555 123.341C197.266 123.341 197.597 123.532 197.597 123.946C197.597 124.296 197.171 124.615 196.555 124.742C194.992 124.997 194.897 124.997 194.565 124.392Z" fill="white"/>
<path d="M197.786 123.901C197.211 122.705 197.93 122.107 200.23 121.808C201.523 121.688 202.098 121.927 202.242 122.765C202.745 124.738 198.649 125.815 197.786 123.901Z" fill="white"/>
<path d="M186.808 122.831C186.555 121.867 186.612 121.779 187.342 121.779C187.736 121.779 188.045 121.896 188.045 122.042C188.045 122.188 188.129 122.51 188.213 122.743C188.298 123.036 188.129 123.211 187.651 123.299C187.117 123.416 186.921 123.299 186.808 122.831Z" fill="white"/>
<path d="M203.852 121.989C203.852 121.015 204.164 120.583 205.012 120.312C206.262 119.933 206.976 120.691 206.976 122.422C206.976 123.125 206.619 123.341 205.414 123.341C204.03 123.341 203.852 123.179 203.852 121.989Z" fill="white"/>
<path d="M190.007 122.986C189.571 122.233 189.82 120.611 190.38 120.322C190.722 120.148 191.065 120.206 191.158 120.38C191.531 121.017 191.314 122.696 190.847 123.044C190.256 123.449 190.256 123.449 190.007 122.986Z" fill="white"/>
<path d="M207.175 122.707C206.603 121.392 207.227 120.394 208.684 120.258C209.777 120.122 210.089 120.304 210.089 121.029C210.089 122.525 209.517 123.341 208.476 123.341C207.904 123.341 207.332 123.069 207.175 122.707Z" fill="white"/>
<path d="M193.246 121.665C192.677 121.25 192.867 120.497 193.674 120.271C194.576 120.008 196.475 120.761 195.953 121.175C195.288 121.627 193.579 121.966 193.246 121.665Z" fill="white"/>
<path d="M197.671 120.008C197.245 119.51 198.76 118.656 199.992 118.656C200.56 118.656 200.797 118.869 200.702 119.26C200.512 119.972 198.097 120.541 197.671 120.008Z" fill="white"/>
<path d="M184.093 120.007C184.093 119.843 183.88 119.48 183.667 119.183C183.454 118.886 183.525 118.656 183.951 118.656C184.873 118.656 185.582 119.909 184.731 120.172C184.376 120.271 184.093 120.205 184.093 120.007Z" fill="white"/>
<path d="M185.203 119.053C184.836 117.919 185.571 117.094 186.98 117.094C187.777 117.094 188.574 119.105 188.083 119.775C187.409 120.651 185.51 120.136 185.203 119.053Z" fill="white"/>
<path d="M188.62 118.583C187.84 118.193 188.308 117.258 189.348 117.128C190.127 117.024 190.543 117.154 190.959 117.622C191.271 117.959 191.427 118.297 191.323 118.349C190.803 118.583 188.932 118.765 188.62 118.583Z" fill="white"/>
<path d="M202.585 119.687C201.984 118.78 202.261 118.222 203.649 117.455C204.805 116.897 205.129 116.967 205.36 117.804C205.776 119.478 203.464 121.082 202.585 119.687Z" fill="white"/>
<path d="M207.128 118.289C206.625 117.652 207.33 117.094 208.639 117.094C210.199 117.094 210.653 118.129 209.243 118.448C207.732 118.766 207.481 118.726 207.128 118.289Z" fill="white"/>
<path d="M211.68 116.531C211.68 115.933 212.688 115.294 213.136 115.613C213.528 115.893 212.744 117.09 212.184 117.09C211.904 117.09 211.68 116.851 211.68 116.531Z" fill="white"/>
<path d="M183.828 115.981C183.342 114.131 183.396 113.972 184.799 113.972C186.363 113.972 187.334 115.928 186.147 116.668C184.906 117.408 184.205 117.197 183.828 115.981Z" fill="white"/>
<path d="M202.285 117.031C202.285 116.828 202.521 115.743 202.803 114.523C203.462 111.812 204.921 111.676 205.251 114.32C205.392 115.336 205.439 116.217 205.392 116.285C205.157 116.692 202.285 117.302 202.285 117.031Z" fill="white"/>
<path d="M188.595 115.298C188.387 115.197 188.23 114.794 188.23 114.425C188.23 113.888 188.387 113.854 189.012 114.19C189.428 114.425 189.793 114.828 189.793 115.063C189.793 115.567 189.168 115.701 188.595 115.298Z" fill="white"/>
<path d="M205.485 114.341C205.17 112.905 205.853 112.257 207.483 112.442C208.272 112.535 208.535 112.952 208.535 113.971C208.535 115.129 208.324 115.407 207.168 115.499C206.011 115.638 205.748 115.407 205.485 114.341Z" fill="white"/>
<path d="M210.526 114.991C209.747 112.021 209.987 111.13 211.605 110.907C213.042 110.685 213.222 110.907 213.222 112.838C213.222 114.471 212.863 115.14 211.964 115.437C211.305 115.659 210.646 115.437 210.526 114.991Z" fill="white"/>
<path d="M181.996 111.612C181.996 110.922 182.477 110.631 183.198 110.995C183.679 111.321 183.679 111.902 183.198 112.265C182.477 112.592 181.996 112.302 181.996 111.612Z" fill="white"/>
<path d="M183.993 112.082C183.182 111.522 183.556 109.704 184.554 109.424C185.989 109.005 186.675 109.518 186.675 111.056C186.675 112.035 186.363 112.408 185.552 112.408C184.929 112.408 184.18 112.268 183.993 112.082Z" fill="white"/>
<path d="M187.081 111.035C186.69 110.325 186.494 109.567 186.885 109.425C187.865 108.951 188.452 109.709 188.158 111.082L187.865 112.408L187.081 111.035Z" fill="white"/>
<path d="M205.697 110.791C205.05 110.355 205.558 109.57 206.62 109.396C207.96 109.192 208.006 109.192 208.422 110.035C208.699 110.558 208.514 110.675 207.313 110.791C206.574 110.878 205.835 110.849 205.697 110.791Z" fill="white"/>
<path d="M210.047 110.456C209.351 109.897 209.541 108.051 210.237 108.051C210.616 108.051 210.869 107.827 210.869 107.492C210.869 107.212 210.489 106.933 209.984 106.933C208.909 106.933 208.024 104.192 208.909 103.409C210.047 102.403 211.311 103.465 212.07 106.206C212.513 107.66 212.955 109.337 213.145 109.897C213.398 110.624 213.145 110.848 211.944 110.848C211.122 110.848 210.237 110.68 210.047 110.456Z" fill="white"/>
<path d="M212.482 107.832C212.182 106.188 211.411 102.899 210.854 100.487C209.997 96.9784 209.911 96.1013 210.382 95.7176C210.682 95.4435 211.068 95.2242 211.196 95.2242C211.668 95.2242 213.382 106.462 213.21 108.654L213.082 110.847L212.482 107.832Z" fill="white"/>
<path d="M183.588 107.023C183.722 106.046 184.698 105.822 184.967 106.716C185.202 107.442 185.269 107.359 184.26 107.638C183.554 107.805 183.487 107.75 183.588 107.023Z" fill="white"/>
<path d="M203.943 106.553C203.57 105.222 204.363 104.442 205.856 104.626C206.976 104.764 207.396 106.736 206.463 107.333C205.296 108.067 204.223 107.746 203.943 106.553Z" fill="white"/>
<path d="M186.672 106.303C186.672 105.189 186.946 104.599 187.549 104.599C188.097 104.599 188.316 105.058 188.207 106.041C187.933 108.137 186.672 108.333 186.672 106.303Z" fill="white"/>
<path d="M181.996 103.895C181.996 103.281 182.484 103.036 183.704 103.036C184.842 103.036 185.249 103.241 185.086 103.731C184.68 104.794 181.996 104.917 181.996 103.895Z" fill="white"/>
<path d="M185.354 103.701C184.906 102.311 184.906 102.311 186.826 101.693C187.978 101.23 188.234 101.462 188.234 102.62C188.234 104.473 185.93 105.399 185.354 103.701Z" fill="white"/>
<path d="M203.94 103.562C203.602 102.185 204.229 101.47 205.916 101.47C206.735 101.47 206.976 101.8 206.976 102.846C206.976 103.672 206.687 104.223 206.301 104.223C205.916 104.223 205.289 104.388 204.904 104.553C204.47 104.718 204.132 104.388 203.94 103.562Z" fill="white"/>
<path d="M207.125 102.096C206.609 100.846 207.382 99.9086 208.865 99.9086C209.767 99.9086 210.089 100.346 210.089 101.471C210.089 102.596 209.767 103.033 208.8 103.033C208.091 103.033 207.318 102.596 207.125 102.096Z" fill="white"/>
<path d="M181.996 100.939C181.996 100.35 182.894 99.6778 183.285 99.986C183.441 100.07 183.558 100.462 183.558 100.826C183.558 101.275 183.324 101.471 182.777 101.471C182.269 101.471 181.996 101.275 181.996 100.939Z" fill="white"/>
<path d="M185.236 100.433C184.865 99.1679 185.282 98.611 186.859 98.3579C188.296 98.1554 188.76 99.826 187.508 100.838C186.302 101.8 185.56 101.648 185.236 100.433Z" fill="white"/>
<path d="M202.615 99.6068C202.295 99.3103 202.158 97.4816 202.432 97.4816C202.478 97.4816 203.163 97.2839 203.985 97.0368C205.355 96.592 205.447 96.6414 205.401 97.9758C205.355 98.9643 205.081 99.4585 204.396 99.6562C203.163 100.002 202.98 100.002 202.615 99.6068Z" fill="white"/>
<path d="M200.73 99.1222C200.73 98.452 201.237 98.1647 201.913 98.452C202.419 98.835 202.419 99.4094 201.913 99.7924C201.237 100.08 200.73 99.7924 200.73 99.1222Z" fill="white"/>
<path d="M207.001 97.8625C207.169 97.3472 208.903 96.5894 209.295 96.8319C209.463 96.9228 209.742 97.2866 209.91 97.6807C210.302 98.2869 210.134 98.3476 208.568 98.3476C207.225 98.3476 206.834 98.2263 207.001 97.8625Z" fill="white"/>
<path d="M181.996 98.0588C181.996 97.8525 182.387 97.44 182.777 97.11C183.402 96.615 183.558 96.6562 183.558 97.44C183.558 97.935 183.246 98.3476 182.777 98.3476C182.387 98.3476 181.996 98.2238 181.996 98.0588Z" fill="white"/>
<path d="M183.551 97.093C183.551 95.1936 185.025 94.5831 186.149 96.0077C186.851 97.0252 186.851 97.3643 186.149 97.8392C184.674 98.721 183.551 98.4497 183.551 97.093Z" fill="white"/>
<path d="M199.577 95.9448C199.011 95.1539 199.011 95.1144 199.546 95.3517C199.861 95.5098 200.27 95.6285 200.427 95.6285C200.585 95.6285 200.711 95.9053 200.711 96.2216C200.711 97.052 200.27 96.9729 199.577 95.9448Z" fill="white"/>
<path d="M188.161 96.2846C186.376 94.5109 186.127 90.5334 187.787 90.5334C188.907 90.5334 189.945 92.7909 189.779 94.8871C189.654 96.8221 189.156 97.2521 188.161 96.2846Z" fill="white"/>
<path d="M210.193 94.5876C210.362 94.2361 210.532 93.8846 210.532 93.8065C210.532 93.7284 210.814 93.6503 211.096 93.6503C211.434 93.6503 211.66 94.0018 211.66 94.4314C211.66 94.9001 211.265 95.2125 210.757 95.2125C210.137 95.2125 209.967 95.0173 210.193 94.5876Z" fill="white"/>
<path d="M183.551 94.8722C183.551 93.8249 184.312 92.0945 184.748 92.0945C185.509 92.0945 184.965 95.0088 184.167 95.1909C183.841 95.282 183.551 95.1454 183.551 94.8722Z" fill="white"/>
<path d="M192.918 91.4322C192.918 90.3711 194.221 90.2158 195.411 91.1475C196.204 91.7686 196.26 91.898 195.524 91.898C195.071 91.898 194.334 91.9756 193.824 92.0533C193.145 92.1827 192.918 92.0274 192.918 91.4322Z" fill="white"/>
<path d="M201.601 91.6213C199.167 90.6439 197.598 88.0538 197.598 84.975C197.598 82.7759 197.814 82.2383 199.275 81.0166C200.195 80.2347 201.114 79.5994 201.385 79.5994C202.575 79.5994 206.958 83.3623 208.419 85.7081L210.096 88.3959L208.31 90.1063C206.254 92.0611 203.982 92.5987 201.601 91.6213Z" fill="white"/>
<path d="M185.192 89.9148C185.29 89.559 185.388 89.2032 185.388 89.1241C185.388 89.045 185.683 88.9659 186.042 88.9659C186.859 88.9659 186.892 89.5985 186.075 90.152C185.192 90.7056 184.964 90.666 185.192 89.9148Z" fill="white"/>
<path d="M189.127 88.9044C188.228 88.7925 187.954 88.3078 188.54 87.9722C188.697 87.8604 189.4 87.674 190.104 87.5248C191.16 87.3011 191.355 87.3757 191.355 88.0095C191.355 88.7925 190.534 89.1281 189.127 88.9044Z" fill="white"/>
<path d="M192.918 88.0987C192.918 87.6222 192.975 87.3442 193.09 87.4236C193.147 87.503 193.604 87.9002 194.005 88.2973C194.691 88.8533 194.634 88.9724 193.833 88.9724C193.261 88.9724 192.918 88.6547 192.918 88.0987Z" fill="white"/>
<path d="M186.709 87.0064C186.234 86.2417 190.454 85.4007 191.167 86.1271C191.702 86.7388 191.167 87.0064 188.908 87.3122C187.541 87.5034 186.947 87.4269 186.709 87.0064Z" fill="white"/>
<path d="M188.341 83.8679C188.906 82.841 190.554 81.1605 190.977 81.1605C191.448 81.1605 191.495 83.3545 191.025 83.6345C190.789 83.7279 190.036 83.9613 189.33 84.148C188.294 84.3814 188.058 84.3347 188.341 83.8679Z" fill="white"/>
<path d="M191.757 83.6611C190.969 82.1442 191.328 81.4869 193.047 81.2846C194.838 81.0318 194.838 81.0318 193.692 82.5993C192.259 84.6218 192.33 84.6218 191.757 83.6611Z" fill="white"/>
<path d="M191.359 80.8821C191.359 80.7707 192.394 79.9908 193.688 79.2109C195.24 78.2082 196.327 77.8739 197.103 78.0967C198.035 78.431 197.776 78.6538 195.499 79.8236C192.964 81.0492 191.359 81.4948 191.359 80.8821Z" fill="white"/>
<path d="M219.981 35.406C218.549 33.4476 215.527 30.284 213.353 28.3758C211.18 26.4676 209.748 24.9109 210.172 24.9109C211.339 24.9109 220.246 27.2208 222.473 28.1247C224.329 28.878 224.382 28.9784 223.905 30.5351C223.639 31.439 223.427 33.6987 223.427 35.5567C223.427 37.4649 223.268 38.9714 223.056 38.9714C222.791 38.9714 221.466 37.3645 219.981 35.406Z" fill="white"/>
<path d="M116.755 187.818C114.651 186.722 114.189 186.095 111.521 180.717C107.672 173.094 107.569 171.318 111.213 175.652C112.65 177.375 115.986 180.926 118.603 183.536C123.068 187.922 123.273 188.236 121.785 188.027C120.707 187.87 120.296 187.975 120.553 188.392C121.169 189.332 119.219 189.071 116.755 187.818Z" fill="white"/>
<path fill-rule="evenodd" clip-rule="evenodd" d="M201.443 279.119C201.026 278.13 201.49 276.99 202.48 276.574L203.56 276.115C214.071 271.618 220.104 268.917 224.203 264.627C228.302 260.337 228.793 254.036 229.563 250.203C229.774 249.15 232.157 250.998 233.209 251.21C234.261 251.421 234.943 252.445 234.731 253.497C233.805 258.107 231.312 262.502 227.298 266.673C223.297 270.831 215.551 275.287 203.988 280.156C202.998 280.572 201.859 280.108 201.443 279.119Z" fill="#EB1086"/>
<path fill-rule="evenodd" clip-rule="evenodd" d="M249.07 78.3052C249.986 77.7549 251.171 78.0582 251.716 78.9825C257.176 88.2376 260.101 98.8173 260.101 109.825C260.101 143.172 233.31 170.205 200.262 170.205C191.48 170.205 182.963 168.294 175.163 164.652C174.196 164.201 170.541 160.604 174.222 162.067C177.903 163.53 192.146 166.813 200.364 166.813C231.28 166.813 253.152 141.02 253.152 109.825C253.152 99.5237 249.07 90.3804 248.398 80.9751C248.321 79.8849 248.154 78.8554 249.07 78.3052Z" fill="#26242D"/>
<path fill-rule="evenodd" clip-rule="evenodd" d="M55.9063 225.5C56.6096 224.584 57.8643 222.733 58.7087 223.496C62.1728 226.626 65.8694 230.253 69.8236 230.953C73.9383 231.681 78.8198 231.681 84.4616 230.94C85.5526 230.797 86.5441 231.64 86.6762 232.824C86.8083 234.007 86.0309 235.083 84.9399 235.226C78.9485 236.013 73.6982 236.013 69.1826 235.213C64.5065 234.386 60.1578 232.151 56.1617 228.54C55.3173 227.777 55.2029 226.416 55.9063 225.5Z" fill="#EB1086"/>
<path d="M97.8616 158.609C95.3796 156.586 90.0682 150.619 86.0474 145.359C83.9625 142.578 81.6295 136.914 80.2396 131.2C79.5943 128.621 78.949 126.294 78.8001 125.991C78.6015 125.738 77.8073 122.148 77.013 118.001C75.8217 112.135 76.0737 110.245 75.0275 103.228C74.5845 100.257 74.1836 97.8935 74.1836 97.8935L75.4742 96.2053C76.2188 95.1939 77.1607 93.5202 77.5094 92.5642C79.0979 88.21 90.7631 74.5613 91.1106 74.9153C91.2099 75.0165 90.8128 77.3933 90.1178 80.1746C89.4725 82.956 88.6783 87.1533 88.3308 89.53C87.8344 93.4745 87.6359 93.9296 86.097 95.2445C84.1611 96.9133 80.4878 102.274 80.4878 103.386C80.4878 104.903 82.7216 103.892 85.0546 101.414L87.4373 98.8855V101.667C87.4373 103.487 87.0898 105.156 86.4445 106.471C85.2035 108.949 85.2035 111.579 86.3949 113.601C86.9905 114.613 87.5366 117.04 87.8841 119.923C89.4229 132.97 92.6991 144.297 98.3083 155.676C99.6982 158.507 100.79 160.834 100.741 160.834C100.641 160.834 99.3507 159.822 97.8616 158.609Z" fill="white"/>
<path fill-rule="evenodd" clip-rule="evenodd" d="M306.555 188.955L310.167 190.561C310.917 190.907 319.181 194.878 329.107 199.648C345.112 207.338 365.438 217.104 365.562 217.104C365.763 217.104 366.704 214.927 366.917 212.388C367.419 206.919 369.275 199.492 371.433 194.324C372.436 192.016 373.239 189.132 373.239 188.881C373.239 188.766 372.423 188.437 371.088 187.898C369.498 187.257 367.172 186.319 364.609 185.092C351.964 179.021 327.227 166.627 324.167 164.77C321.156 163.014 320.554 162.864 320.554 164.018C320.554 165.523 317.493 172.498 315.135 176.261C313.88 178.318 311.422 182.031 309.666 184.49L306.555 188.955ZM364.705 208.069C366.144 208.903 363.652 210.126 363.05 210.327C359.504 210.628 355.33 209.961 351.91 207.969C350.122 206.701 336.043 198.879 326.703 193.69C322.433 191.318 319.154 189.496 318.493 189.102C316.386 187.848 314.379 186.493 314.027 186.092C312.974 184.737 313.977 184.135 316.938 184.386C318.717 184.537 361.598 206.268 364.705 208.069Z" fill="white"/>
<path d="M269.914 192.854C268.607 192.412 267.199 191.43 266.294 190.301L264.785 188.485L270.115 183.33C278.312 175.476 284.346 166.892 289.776 157.319C291.587 154.128 296.967 141.26 297.621 139.836C298.626 137.774 299.381 136.989 301.543 135.811C304.107 134.338 307.024 133.847 308.281 134.682C310.695 136.253 310.695 141.211 308.281 149.752C305.616 159.129 302.046 165.854 294.654 175.525C293.497 176.997 291.335 179.894 289.776 181.906C285.603 187.306 282.887 189.908 279.217 191.921C275.596 193.885 273.484 194.13 269.914 192.854Z" fill="white"/>
<path d="M289.277 192.767L288.219 191.707C288.219 191.707 305.78 169.34 308.926 161.098C311.328 154.809 312.741 153.025 314.648 153.025C315.714 153.025 316.585 153.269 316.988 153.875C317.693 154.936 318.373 156.249 317.466 160.745C315.954 168.018 313.637 172.816 306.684 183.171C305.071 185.544 303.006 188.171 302.099 189.08C299.983 191.05 295.222 193.07 292.451 193.525C290.688 193.777 290.184 193.676 289.277 192.767Z" fill="white"/>
<path fill-rule="evenodd" clip-rule="evenodd" d="M319.476 169.635C320.463 167.375 321.167 165.404 321.167 164.691C321.167 163.564 321.755 163.711 324.692 165.425C327.679 167.238 351.818 179.336 364.157 185.262C368.759 187.466 372.578 188.716 372.578 188.961C372.578 189.205 318.429 172.031 319.476 169.635Z" fill="#EB1086" fill-opacity="0.08"/>
<path fill-rule="evenodd" clip-rule="evenodd" d="M147.052 171.433C140.622 167.293 130.9 157.566 126.191 150.632C119.457 140.656 115.001 129.981 112.824 118.508C111.254 110.177 111.305 97.3577 112.875 89.9252C114.495 82.343 116.571 76.5566 120.267 69.2239C124.571 60.7438 129.128 54.5085 135.963 47.7744C142.666 41.1706 112.875 68.4798 120.267 117.342C126.191 158.288 151.651 174.418 147.052 171.433Z" fill="#EB1086" fill-opacity="0.08"/>
</svg>
