<svg>
<symbol id='close' viewBox="0 0 24 24"  xmlns="http://www.w3.org/2000/svg">
<path  fillRule="evenodd" clipRule="evenodd" d="M5.29871 5.29851C5.69693 4.90044 6.3425 4.90051 6.74064 5.29866L12.0001 10.5583L17.2555 5.30382C17.6536 4.90571 18.2992 4.90571 18.6974 5.30382C19.0956 5.70193 19.0956 6.34739 18.6974 6.7455L13.4419 12.0001L18.7014 17.2598C19.0996 17.658 19.0995 18.3034 18.7013 18.7015C18.3031 19.0996 17.6575 19.0995 17.2594 18.7013L11.9999 13.4418L6.74656 18.6942C6.34838 19.0923 5.7028 19.0923 5.30462 18.6942C4.90645 18.2961 4.90645 17.6506 5.30462 17.2525L10.5581 11.9999L5.29856 6.74018C4.90042 6.34203 4.90049 5.69657 5.29871 5.29851Z" />
</symbol>
<symbol id='info-circle'     width="16"
              height="16" viewBox="0 0 16 16"   xmlns="http://www.w3.org/2000/svg">
<path d="M7.99935 15.1666C11.9527 15.1666 15.166 11.9533 15.166 7.99998C15.166 4.04665 11.9527 0.833313 7.99935 0.833313C4.04602 0.833313 0.832682 4.04665 0.832682 7.99998C0.832682 11.9533 4.04602 15.1666 7.99935 15.1666ZM7.99935 1.83331C11.3993 1.83331 14.166 4.59998 14.166 7.99998C14.166 11.4 11.3993 14.1666 7.99935 14.1666C4.59935 14.1666 1.83268 11.4 1.83268 7.99998C1.83268 4.59998 4.59935 1.83331 7.99935 1.83331Z" />
<path d="M8 9.16665C8.27333 9.16665 8.5 8.93998 8.5 8.66665V5.33331C8.5 5.05998 8.27333 4.83331 8 4.83331C7.72667 4.83331 7.5 5.05998 7.5 5.33331V8.66665C7.5 8.93998 7.72667 9.16665 8 9.16665Z" />
<path d="M7.99935 11.3334C8.08602 11.3334 8.17268 11.3134 8.25268 11.28C8.33268 11.2467 8.40602 11.2 8.47268 11.14C8.53268 11.0734 8.57935 11.0067 8.61268 10.92C8.64602 10.84 8.66602 10.7534 8.66602 10.6667C8.66602 10.58 8.64602 10.4934 8.61268 10.4134C8.57935 10.3334 8.53268 10.26 8.47268 10.1934C8.40602 10.1334 8.33268 10.0867 8.25268 10.0534C8.09268 9.98669 7.90602 9.98669 7.74602 10.0534C7.66602 10.0867 7.59268 10.1334 7.52602 10.1934C7.46602 10.26 7.41935 10.3334 7.38602 10.4134C7.35268 10.4934 7.33268 10.58 7.33268 10.6667C7.33268 10.7534 7.35268 10.84 7.38602 10.92C7.41935 11.0067 7.46602 11.0734 7.52602 11.14C7.59268 11.2 7.66602 11.2467 7.74602 11.28C7.82602 11.3134 7.91268 11.3334 7.99935 11.3334Z" />
</symbol>

<symbol id='edit' viewBox="0 0 20 20"  xmlns="http://www.w3.org/2000/svg">
<path fillRule="evenodd" clipRule="evenodd" d="M17.2922 18.2831H11.248C10.903 18.2831 10.623 18.0031 10.623 17.6581C10.623 17.3131 10.903 17.0331 11.248 17.0331H17.2922C17.6372 17.0331 17.9172 17.3131 17.9172 17.6581C17.9172 18.0031 17.6372 18.2831 17.2922 18.2831Z" />
<mask id="mask0_1046_5697" style="mask-type:luminance" maskUnits="userSpaceOnUse" x="1" y="2" width="15" height="17">
<path fillRule="evenodd" clipRule="evenodd" d="M1.66602 2.50012H15.9832V18.2831H1.66602V2.50012Z" />
</mask>
<g mask="url(#mask0_1046_5697)">
<path fillRule="evenodd" clipRule="evenodd" d="M10.9246 4.18066L3.07874 13.9932C2.93624 14.1715 2.88374 14.4015 2.93624 14.6223L3.50374 17.0265L6.03624 16.9948C6.27708 16.9923 6.49958 16.8848 6.64708 16.7015C9.32791 13.3473 14.4387 6.95232 14.5837 6.76482C14.7204 6.54316 14.7737 6.22982 14.7021 5.92816C14.6287 5.61899 14.4362 5.35649 14.1587 5.18899C14.0996 5.14816 12.6954 4.05816 12.6521 4.02399C12.1237 3.60066 11.3529 3.67399 10.9246 4.18066ZM3.01041 18.2832C2.72124 18.2832 2.46958 18.0848 2.40208 17.8023L1.71958 14.9098C1.57874 14.3107 1.71874 13.6923 2.10291 13.2123L9.95291 3.39399C9.95624 3.39066 9.95874 3.38649 9.96208 3.38316C10.8229 2.35399 12.3796 2.20232 13.4296 3.04482C13.4712 3.07732 14.8654 4.16066 14.8654 4.16066C15.3721 4.46232 15.7679 5.00149 15.9179 5.63982C16.0671 6.27149 15.9587 6.92316 15.6112 7.47399C15.5854 7.51482 15.5629 7.54982 7.62291 17.4832C7.24041 17.9598 6.66708 18.2373 6.05124 18.2448L3.01874 18.2832H3.01041Z" />
</g>
<path fillRule="evenodd" clipRule="evenodd" d="M13.5179 9.73735C13.3846 9.73735 13.2512 9.69485 13.1371 9.60818L8.59372 6.11818C8.32039 5.90818 8.26872 5.51652 8.47872 5.24152C8.68956 4.96818 9.08122 4.91735 9.35539 5.12735L13.8996 8.61652C14.1729 8.82652 14.2246 9.21902 14.0137 9.49318C13.8912 9.65318 13.7054 9.73735 13.5179 9.73735Z" />
</symbol>
<symbol id='eyes' viewBox="0 0 16 17" xmlns="http://www.w3.org/2000/svg">
<path d="M8.00005 11.3867C9.59339 11.3867 10.8867 10.0933 10.8867 8.50001C10.8867 6.90668 9.59339 5.61334 8.00005 5.61334C6.40672 5.61334 5.11339 6.90668 5.11339 8.50001C5.11339 10.0933 6.40672 11.3867 8.00005 11.3867ZM8.00005 6.61334C9.04005 6.61334 9.88672 7.46001 9.88672 8.50001C9.88672 9.54001 9.04005 10.3867 8.00005 10.3867C6.96005 10.3867 6.11339 9.54001 6.11339 8.50001C6.11339 7.46001 6.96005 6.61334 8.00005 6.61334Z" />
<path d="M7.9993 14.5133C10.506 14.5133 12.8726 13.0467 14.4993 10.5C15.206 9.4 15.206 7.60666 14.4993 6.5C12.866 3.95333 10.4993 2.48666 7.9993 2.48666C5.4993 2.48666 3.13263 3.95333 1.50596 6.5C0.799296 7.6 0.799296 9.39333 1.50596 10.5C3.13263 13.0467 5.4993 14.5133 7.9993 14.5133ZM7.9993 3.48666C10.1526 3.48666 12.2126 4.78 13.6526 7.04C14.1526 7.82 14.1526 9.18 13.6526 9.96C12.2126 12.22 10.1526 13.5133 7.9993 13.5133C5.84596 13.5133 3.78596 12.22 2.34596 9.96C1.84596 9.18 1.84596 7.82 2.34596 7.04C3.78596 4.78 5.84596 3.48666 7.9993 3.48666Z" />
</symbol>
<symbol id='closEyes'  viewBox="0 0 17 16"  xmlns="http://www.w3.org/2000/svg">
<path d="M6.93828 10.1866C6.81161 10.1866 6.68495 10.1399 6.58495 10.0399C6.03828 9.49328 5.73828 8.76661 5.73828 7.99995C5.73828 6.40661 7.03161 5.11328 8.62495 5.11328C9.39161 5.11328 10.1183 5.41328 10.6649 5.95995C10.7583 6.05328 10.8116 6.17995 10.8116 6.31328C10.8116 6.44661 10.7583 6.57328 10.6649 6.66661L7.29161 10.0399C7.19161 10.1399 7.06495 10.1866 6.93828 10.1866ZM8.62495 6.11328C7.58495 6.11328 6.73828 6.95995 6.73828 7.99995C6.73828 8.33328 6.82495 8.65328 6.98495 8.93328L9.55828 6.35995C9.27828 6.19995 8.95828 6.11328 8.62495 6.11328Z" />
<path d="M4.35823 12.3399C4.2449 12.3399 4.1249 12.2999 4.03156 12.2199C3.31823 11.6132 2.67823 10.8666 2.13156 9.99991C1.4249 8.89991 1.4249 7.10657 2.13156 5.99991C3.75823 3.45324 6.1249 1.98657 8.6249 1.98657C10.0916 1.98657 11.5382 2.49324 12.8049 3.44657C13.0249 3.61324 13.0716 3.92657 12.9049 4.14657C12.7382 4.36657 12.4249 4.41324 12.2049 4.24657C11.1116 3.41991 9.87156 2.98657 8.6249 2.98657C6.47156 2.98657 4.41156 4.27991 2.97156 6.53991C2.47156 7.31991 2.47156 8.6799 2.97156 9.4599C3.47156 10.2399 4.0449 10.9132 4.67823 11.4599C4.8849 11.6399 4.91156 11.9532 4.73156 12.1666C4.63823 12.2799 4.49823 12.3399 4.35823 12.3399Z" />
<path d="M8.62472 14.0134C7.73805 14.0134 6.87138 13.8334 6.03805 13.4801C5.78472 13.3734 5.66472 13.0801 5.77138 12.8267C5.87805 12.5734 6.17138 12.4534 6.42472 12.5601C7.13138 12.8601 7.87138 13.0134 8.61805 13.0134C10.7714 13.0134 12.8314 11.7201 14.2714 9.46008C14.7714 8.68008 14.7714 7.32008 14.2714 6.54008C14.0647 6.21341 13.838 5.90008 13.598 5.60675C13.4247 5.39341 13.458 5.08008 13.6714 4.90008C13.8847 4.72675 14.198 4.75341 14.378 4.97341C14.638 5.29341 14.8914 5.64008 15.118 6.00008C15.8247 7.10008 15.8247 8.89341 15.118 10.0001C13.4914 12.5467 11.1247 14.0134 8.62472 14.0134Z" />
<path d="M9.08473 10.8467C8.85139 10.8467 8.63806 10.68 8.59139 10.44C8.53806 10.1667 8.71806 9.90665 8.99139 9.85999C9.72473 9.72665 10.3381 9.11332 10.4714 8.37999C10.5247 8.10665 10.7847 7.93332 11.0581 7.97999C11.3314 8.03332 11.5114 8.29332 11.4581 8.56665C11.2447 9.71999 10.3247 10.6333 9.17806 10.8467C9.14473 10.84 9.11806 10.8467 9.08473 10.8467Z" />
<path d="M1.95927 15.1666C1.8326 15.1666 1.70594 15.1199 1.60594 15.0199C1.4126 14.8266 1.4126 14.5066 1.60594 14.3132L6.58594 9.33323C6.77927 9.1399 7.09927 9.1399 7.2926 9.33323C7.48594 9.52657 7.48594 9.84657 7.2926 10.0399L2.3126 15.0199C2.2126 15.1199 2.08594 15.1666 1.95927 15.1666Z" />
<path d="M10.3108 6.81329C10.1842 6.81329 10.0575 6.76663 9.9575 6.66663C9.76417 6.47329 9.76417 6.15329 9.9575 5.95996L14.9375 0.979961C15.1308 0.786628 15.4508 0.786628 15.6442 0.979961C15.8375 1.17329 15.8375 1.49329 15.6442 1.68663L10.6642 6.66663C10.5642 6.76663 10.4375 6.81329 10.3108 6.81329Z" />
</symbol>
<symbol id='rotate-arrow'  viewBox="0 0 20 20"  xmlns="http://www.w3.org/2000/svg">
<path d="M10.0004 18.9583C5.66706 18.9583 2.15039 15.4333 2.15039 11.1083C2.15039 6.78333 5.66706 3.25 10.0004 3.25C10.8921 3.25 11.7587 3.375 12.5921 3.63333C12.9254 3.73333 13.1087 4.08333 13.0087 4.41667C12.9087 4.75 12.5587 4.93333 12.2254 4.83333C11.5171 4.61667 10.7671 4.5 10.0004 4.5C6.35872 4.5 3.40039 7.45833 3.40039 11.1C3.40039 14.7417 6.35872 17.7 10.0004 17.7C13.6421 17.7 16.6004 14.7417 16.6004 11.1C16.6004 9.78333 16.2171 8.51667 15.4921 7.43333C15.3004 7.15 15.3754 6.75833 15.6671 6.56667C15.9504 6.375 16.3421 6.45 16.5337 6.74167C17.4004 8.03333 17.8587 9.54167 17.8587 11.1083C17.8504 15.4333 14.3337 18.9583 10.0004 18.9583Z" />
<path d="M13.4411 5.05843C13.2661 5.05843 13.0911 4.98343 12.9661 4.84176L10.5577 2.07509C10.3327 1.81676 10.3577 1.41676 10.6161 1.19176C10.8744 0.966759 11.2744 0.991759 11.4994 1.25009L13.9077 4.01676C14.1327 4.27509 14.1077 4.67509 13.8494 4.90009C13.7411 5.00843 13.5911 5.05843 13.4411 5.05843Z" />
<path d="M10.6329 7.10834C10.4412 7.10834 10.2495 7.01667 10.1245 6.85C9.92453 6.575 9.98286 6.18334 10.2579 5.975L13.0662 3.925C13.3412 3.71667 13.7329 3.78334 13.9412 4.05834C14.1495 4.33334 14.0829 4.725 13.8079 4.93334L10.9995 6.99167C10.8912 7.075 10.7662 7.10834 10.6329 7.10834Z" />
</symbol>

</svg>