<svg>
 <symbol width="24" id='menu' height="24" viewBox="0 0 24 24"  xmlns="http://www.w3.org/2000/svg" >
<path d="M21 5.25H3C2.59 5.25 2.25 4.91 2.25 4.5C2.25 4.09 2.59 3.75 3 3.75H21C21.41 3.75 21.75 4.09 21.75 4.5C21.75 4.91 21.41 5.25 21 5.25Z" />
<path d="M16.74 12.75H7.26001C6.85001 12.75 6.51001 12.41 6.51001 12C6.51001 11.59 6.85001 11.25 7.26001 11.25H16.73C17.14 11.25 17.48 11.59 17.48 12C17.48 12.41 17.15 12.75 16.74 12.75Z" />
<path d="M21 20.25H3C2.59 20.25 2.25 19.91 2.25 19.5C2.25 19.09 2.59 18.75 3 18.75H21C21.41 18.75 21.75 19.09 21.75 19.5C21.75 19.91 21.41 20.25 21 20.25Z" />
</symbol>

<symbol width="24" height="24" id='profile' viewBox="0 0 24 24"  xmlns="http://www.w3.org/2000/svg">
<path fillRule="evenodd" clipRule="evenodd" d="M11.9847 15.3462C8.11713 15.3462 4.81427 15.931 4.81427 18.2729C4.81427 20.6148 8.09617 21.2205 11.9847 21.2205C15.8524 21.2205 19.1543 20.6348 19.1543 18.2938C19.1543 15.9529 15.8733 15.3462 11.9847 15.3462Z"  stroke-width="1.5" stroke-linecap="round" stroke-linejoin="round"/>
<path fillRule="evenodd" clipRule="evenodd" d="M11.9848 12.0059C14.5229 12.0059 16.58 9.94779 16.58 7.40969C16.58 4.8716 14.5229 2.81445 11.9848 2.81445C9.44667 2.81445 7.38858 4.8716 7.38858 7.40969C7.38001 9.93922 9.42382 11.9973 11.9524 12.0059H11.9848Z"  stroke-width="1.42857" stroke-linecap="round" stroke-linejoin="round"/>
</symbol>
<symbol width="20" id='card' height="21" viewBox="0 0 20 21" fill="none" xmlns="http://www.w3.org/2000/svg">
<path d="M0.750122 1.25L2.83012 1.61L3.79312 13.083C3.87012 14.02 4.65312 14.739 5.59312 14.736H16.5021C17.3991 14.738 18.1601 14.078 18.2871 13.19L19.2361 6.632C19.3421 5.899 18.8331 5.219 18.1011 5.113C18.0371 5.104 3.16412 5.099 3.16412 5.099"  stroke-width="1.5" stroke-linecap="round" stroke-linejoin="round"/>
<path d="M12.1251 8.79492H14.8981"  stroke-width="1.5" stroke-linecap="round" stroke-linejoin="round"/>
<path fillRule="evenodd" clipRule="evenodd" d="M5.15441 18.2026C5.45541 18.2026 5.69841 18.4466 5.69841 18.7466C5.69841 19.0476 5.45541 19.2916 5.15441 19.2916C4.85341 19.2916 4.61041 19.0476 4.61041 18.7466C4.61041 18.4466 4.85341 18.2026 5.15441 18.2026Z"   stroke-width="1.5" stroke-linecap="round" stroke-linejoin="round"/>
<path fillRule="evenodd" clipRule="evenodd" d="M16.4347 18.2026C16.7357 18.2026 16.9797 18.4466 16.9797 18.7466C16.9797 19.0476 16.7357 19.2916 16.4347 19.2916C16.1337 19.2916 15.8907 19.0476 15.8907 18.7466C15.8907 18.4466 16.1337 18.2026 16.4347 18.2026Z"   stroke-width="1.5" stroke-linecap="round" stroke-linejoin="round"/>
</symbol>
<symbol  id='white-instagram' viewBox="0 0 16 16"  xmlns="http://www.w3.org/2000/svg">
<g clip-path="url(#clip0_35_195)">
<path d="M0.00914001 5.36667C0.00914001 3.46836 0.00914001 2.51921 0.384429 1.79675C0.70068 1.18794 1.19708 0.69154 1.80589 0.375289C2.52835 0 3.4775 0 5.37581 0H10.6425C12.5408 0 13.4899 0 14.2124 0.375289C14.8212 0.69154 15.3176 1.18794 15.6339 1.79675C16.0091 2.51921 16.0091 3.46836 16.0091 5.36667V10.6333C16.0091 12.5316 16.0091 13.4808 15.6339 14.2032C15.3176 14.8121 14.8212 15.3085 14.2124 15.6247C13.4899 16 12.5408 16 10.6425 16H5.37581C3.4775 16 2.52835 16 1.80589 15.6247C1.19708 15.3085 0.70068 14.8121 0.384429 14.2032C0.00914001 13.4808 0.00914001 12.5316 0.00914001 10.6333V5.36667Z" fill="url(#paint0_radial_35_195)"/>
<path d="M0.00914001 5.36667C0.00914001 3.46836 0.00914001 2.51921 0.384429 1.79675C0.70068 1.18794 1.19708 0.69154 1.80589 0.375289C2.52835 0 3.4775 0 5.37581 0H10.6425C12.5408 0 13.4899 0 14.2124 0.375289C14.8212 0.69154 15.3176 1.18794 15.6339 1.79675C16.0091 2.51921 16.0091 3.46836 16.0091 5.36667V10.6333C16.0091 12.5316 16.0091 13.4808 15.6339 14.2032C15.3176 14.8121 14.8212 15.3085 14.2124 15.6247C13.4899 16 12.5408 16 10.6425 16H5.37581C3.4775 16 2.52835 16 1.80589 15.6247C1.19708 15.3085 0.70068 14.8121 0.384429 14.2032C0.00914001 13.4808 0.00914001 12.5316 0.00914001 10.6333V5.36667Z" fill="url(#paint1_radial_35_195)"/>
<path d="M8.00024 2.18188C6.42016 2.18188 6.22187 2.18879 5.60128 2.21704C4.98191 2.2454 4.55913 2.34346 4.1892 2.48734C3.80655 2.63595 3.48195 2.83473 3.15857 3.15825C2.83494 3.48164 2.63616 3.80625 2.48707 4.18879C2.34283 4.55885 2.24465 4.98176 2.21678 5.60091C2.18902 6.22152 2.18175 6.41995 2.18175 8.00007C2.18175 9.58019 2.18878 9.77788 2.2169 10.3985C2.24538 11.0179 2.34344 11.4407 2.48719 11.8106C2.63592 12.1933 2.8347 12.5179 3.1582 12.8413C3.48147 13.1649 3.80606 13.3642 4.18847 13.5128C4.55865 13.6567 4.98154 13.7547 5.6008 13.7831C6.22138 13.8113 6.41956 13.8182 7.99951 13.8182C9.57971 13.8182 9.7774 13.8113 10.398 13.7831C11.0174 13.7547 11.4406 13.6567 11.8108 13.5128C12.1933 13.3642 12.5174 13.1649 12.8407 12.8413C13.1643 12.5179 13.3631 12.1933 13.5122 11.8107C13.6552 11.4407 13.7534 11.0178 13.7825 10.3986C13.8104 9.77801 13.8176 9.58019 13.8176 8.00007C13.8176 6.41995 13.8104 6.22164 13.7825 5.60104C13.7534 4.98164 13.6552 4.55885 13.5122 4.18891C13.3631 3.80625 13.1643 3.48164 12.8407 3.15825C12.5171 2.83461 12.1934 2.63582 11.8104 2.48734C11.4395 2.34346 11.0165 2.2454 10.3971 2.21704C9.77655 2.18879 9.57898 2.18188 7.99842 2.18188H8.00024ZM7.47831 3.23037C7.63322 3.23013 7.80606 3.23037 8.00024 3.23037C9.55365 3.23037 9.73776 3.23595 10.3512 3.26382C10.9185 3.28976 11.2263 3.38455 11.4314 3.46419C11.7029 3.56964 11.8965 3.6957 12.1 3.89934C12.3036 4.10298 12.4297 4.29691 12.5354 4.56843C12.615 4.77328 12.7099 5.08116 12.7357 5.64843C12.7636 6.26176 12.7697 6.44601 12.7697 7.99873C12.7697 9.55146 12.7636 9.7357 12.7357 10.349C12.7098 10.9163 12.615 11.2242 12.5354 11.429C12.4299 11.7006 12.3036 11.8939 12.1 12.0974C11.8964 12.301 11.703 12.4271 11.4314 12.5326C11.2266 12.6126 10.9185 12.7071 10.3512 12.733C9.73788 12.7609 9.55365 12.767 8.00024 12.767C6.44671 12.767 6.26259 12.7609 5.64928 12.733C5.08202 12.7069 4.77415 12.6121 4.56895 12.5324C4.29744 12.427 4.10351 12.3009 3.89988 12.0973C3.69625 11.8936 3.57019 11.7002 3.4645 11.4286C3.38486 11.2237 3.28996 10.9158 3.26414 10.3486C3.23626 9.73522 3.23069 9.55098 3.23069 7.99728C3.23069 6.44358 3.23626 6.26031 3.26414 5.64698C3.29008 5.0797 3.38486 4.77182 3.4645 4.56673C3.56995 4.29522 3.69625 4.10128 3.89988 3.89764C4.10351 3.69401 4.29744 3.56795 4.56895 3.46225C4.77403 3.38225 5.08202 3.2877 5.64928 3.26164C6.18599 3.2374 6.39398 3.23013 7.47831 3.22892V3.23037ZM11.1058 4.19643C10.7204 4.19643 10.4077 4.50879 10.4077 4.89437C10.4077 5.27982 10.7204 5.59255 11.1058 5.59255C11.4913 5.59255 11.804 5.27982 11.804 4.89437C11.804 4.50891 11.4913 4.19619 11.1058 4.19619V4.19643ZM8.00024 5.01219C6.35023 5.01219 5.01245 6.35001 5.01245 8.00007C5.01245 9.65013 6.35023 10.9873 8.00024 10.9873C9.65025 10.9873 10.9875 9.65013 10.9875 8.00007C10.9875 6.35001 9.65013 5.01219 8.00012 5.01219H8.00024ZM8.00024 6.06067C9.07124 6.06067 9.93957 6.92892 9.93957 8.00007C9.93957 9.0711 9.07124 9.93946 8.00024 9.93946C6.92912 9.93946 6.0609 9.0711 6.0609 8.00007C6.0609 6.92892 6.92912 6.06067 8.00024 6.06067Z" />
</g>
<defs>
<radialGradient id="paint0_radial_35_195" cx="0" cy="0" r="1" gradientUnits="userSpaceOnUse" gradientTransform="translate(4.25916 17.2323) rotate(-90) scale(15.8572 14.7484)">
<stop stopColor="#FFDD55"/>
<stop offset="0.1" stopColor="#FFDD55"/>
<stop offset="0.5" stopColor="#FF543E"/>
<stop offset="1" stopColor="#C837AB"/>
</radialGradient>
<radialGradient id="paint1_radial_35_195" cx="0" cy="0" r="1" gradientUnits="userSpaceOnUse" gradientTransform="translate(-2.67094 1.15261) rotate(78.6806) scale(7.08823 29.218)">
<stop stopColor="#3771C8"/>
<stop offset="0.128" stopColor="#3771C8"/>
<stop offset="1" stopColor="#6600FF" stop-opacity="0"/>
</radialGradient>
<clipPath id="clip0_35_195">
<rect width="16" height="16" fill="white"/>
</clipPath>
</defs>
</symbol>
<symbol  id='white-whatsapp' viewBox="0 0 30 30"  xmlns="http://www.w3.org/2000/svg">
<path fillRule="evenodd" clipRule="evenodd" d="M16.0265 3.69799C18.8125 3.83491 21.4085 4.98378 23.3913 6.96793C25.5063 9.08425 26.6705 11.8974 26.6694 14.8891C26.6668 21.0627 21.641 26.0858 15.467 26.0858C13.1453 26.0858 11.3003 25.3725 10.109 24.723L4.17046 26.28L5.75976 20.4778C4.77942 18.7798 4.26358 16.8537 4.26439 14.8802C4.26687 8.70677 9.29226 3.68414 15.4669 3.68414L16.0265 3.69799ZM10.3841 22.696L10.7242 22.8976C12.1538 23.7456 13.7924 24.1942 15.4632 24.1949H15.467C20.599 24.1949 24.7758 20.0199 24.7779 14.8885C24.7789 12.4018 23.8113 10.0636 22.0534 8.30457C20.2954 6.54541 17.9577 5.57607 15.4707 5.57526C10.3348 5.57526 6.15785 9.74974 6.1558 14.8809C6.1551 16.6394 6.64734 18.3519 7.57938 19.8336L7.80077 20.1857L6.86015 23.6199L10.3841 22.696ZM21.1107 17.5517C21.0407 17.4349 20.8541 17.3649 20.5742 17.2249C20.2943 17.0848 18.9182 16.408 18.6616 16.3146C18.405 16.2213 18.2184 16.1747 18.0318 16.4547C17.8452 16.7347 17.3088 17.3649 17.1455 17.5517C16.9822 17.7384 16.8189 17.7617 16.5391 17.6217C16.2592 17.4817 15.3573 17.1862 14.2881 16.2331C13.456 15.4912 12.8942 14.5751 12.7309 14.295C12.5677 14.0149 12.7135 13.8635 12.8536 13.724C12.9796 13.5986 13.1336 13.3972 13.2736 13.2338C13.4135 13.0705 13.4601 12.9538 13.5535 12.7671C13.6468 12.5804 13.6001 12.4171 13.5301 12.277C13.4601 12.1369 12.9004 10.7598 12.6671 10.1996C12.4399 9.65414 12.2091 9.72798 12.0373 9.71937C11.8742 9.71129 11.6874 9.70951 11.5009 9.70951C11.3142 9.70951 11.011 9.77948 10.7544 10.0596C10.4979 10.3397 9.77474 11.0166 9.77474 12.3936C9.77474 13.7707 10.7778 15.1009 10.9177 15.2877C11.0577 15.4745 12.8915 18.3002 15.6994 19.5122C16.3672 19.8004 16.8886 19.9725 17.2951 20.1015C17.9656 20.3144 18.5758 20.2844 19.0581 20.2123C19.5959 20.132 20.7142 19.5355 20.9474 18.8821C21.1807 18.2285 21.1807 17.6683 21.1107 17.5517Z" />
</symbol>
<symbol width="22" id='instagram' height="22" viewBox="0 0 22 22" fill="none" xmlns="http://www.w3.org/2000/svg">
<path d="M11.0005 0.0909119C8.03782 0.0909119 7.66602 0.103867 6.50241 0.156821C5.34109 0.210003 4.54838 0.393866 3.85477 0.663639C3.13729 0.942276 2.52867 1.315 1.92233 1.92159C1.31553 2.52796 0.942809 3.13659 0.663272 3.85387C0.392826 4.54773 0.208741 5.34068 0.15647 6.50159C0.104426 7.66523 0.0907898 8.03727 0.0907898 11C0.0907898 13.9627 0.103971 14.3334 0.156697 15.497C0.210105 16.6584 0.393963 17.4511 0.6635 18.1448C0.942355 18.8623 1.31507 19.4709 1.92164 20.0773C2.52776 20.6841 3.13638 21.0577 3.8534 21.3364C4.54747 21.6061 5.3404 21.79 6.5015 21.8432C7.66511 21.8961 8.03669 21.9091 10.9991 21.9091C13.962 21.9091 14.3326 21.8961 15.4962 21.8432C16.6576 21.79 17.4512 21.6061 18.1452 21.3364C18.8625 21.0577 19.4702 20.6841 20.0763 20.0773C20.6831 19.4709 21.0558 18.8623 21.3354 18.145C21.6035 17.4511 21.7876 16.6582 21.8422 15.4973C21.8944 14.3336 21.9081 13.9627 21.9081 11C21.9081 8.03727 21.8944 7.66546 21.8422 6.50182C21.7876 5.34046 21.6035 4.54773 21.3354 3.85409C21.0558 3.13659 20.6831 2.52796 20.0763 1.92159C19.4695 1.31478 18.8627 0.942048 18.1446 0.663639C17.4491 0.393866 16.656 0.210003 15.4946 0.156821C14.331 0.103867 13.9606 0.0909119 10.997 0.0909119H11.0005ZM10.0219 2.05682C10.3123 2.05637 10.6364 2.05682 11.0005 2.05682C13.9131 2.05682 14.2583 2.06728 15.4085 2.11955C16.4721 2.16818 17.0494 2.34591 17.4339 2.49523C17.943 2.69296 18.3059 2.92932 18.6875 3.31114C19.0693 3.69296 19.3057 4.05659 19.5038 4.56568C19.6532 4.94977 19.8311 5.52705 19.8795 6.59068C19.9318 7.74068 19.9431 8.08614 19.9431 10.9975C19.9431 13.9089 19.9318 14.2543 19.8795 15.4043C19.8309 16.468 19.6532 17.0452 19.5038 17.4293C19.3061 17.9384 19.0693 18.3009 18.6875 18.6825C18.3057 19.0643 17.9432 19.3007 17.4339 19.4984C17.0498 19.6484 16.4721 19.8257 15.4085 19.8743C14.2585 19.9266 13.9131 19.938 11.0005 19.938C8.08759 19.938 7.74238 19.9266 6.59241 19.8743C5.52881 19.8252 4.95155 19.6475 4.56679 19.4982C4.05771 19.3005 3.69409 19.0641 3.31228 18.6823C2.93048 18.3005 2.69412 17.9377 2.49594 17.4284C2.34663 17.0443 2.16868 16.467 2.12027 15.4034C2.068 14.2534 2.05755 13.908 2.05755 10.9948C2.05755 8.08159 2.068 7.73796 2.12027 6.58796C2.16891 5.52432 2.34663 4.94705 2.49594 4.5625C2.69367 4.05341 2.93048 3.68977 3.31228 3.30796C3.69409 2.92614 4.05771 2.68978 4.56679 2.49159C4.95132 2.34159 5.52881 2.16432 6.59241 2.11546C7.59874 2.07 7.98873 2.05637 10.0219 2.05409V2.05682ZM16.8235 3.86818C16.1008 3.86818 15.5144 4.45387 15.5144 5.17682C15.5144 5.89955 16.1008 6.48591 16.8235 6.48591C17.5462 6.48591 18.1325 5.89955 18.1325 5.17682C18.1325 4.45409 17.5462 3.86773 16.8235 3.86773V3.86818ZM11.0005 5.39773C7.90669 5.39773 5.39836 7.90614 5.39836 11C5.39836 14.0939 7.90669 16.6011 11.0005 16.6011C14.0942 16.6011 16.6017 14.0939 16.6017 11C16.6017 7.90614 14.094 5.39773 11.0002 5.39773H11.0005ZM11.0005 7.36364C13.0086 7.36364 14.6367 8.99159 14.6367 11C14.6367 13.0082 13.0086 14.6364 11.0005 14.6364C8.99211 14.6364 7.36421 13.0082 7.36421 11C7.36421 8.99159 8.99211 7.36364 11.0005 7.36364Z" fill="white"/>
</symbol>
<symbol  id='white-telegram'  viewBox="0 0 30 30" xmlns="http://www.w3.org/2000/svg">
<path d="M22.9068 7.01621L4.84544 13.9825C3.61272 14.4771 3.62003 15.1647 4.62075 15.4713L9.12532 16.8772L10.8489 22.1615C11.0584 22.7399 10.9551 22.9693 11.5624 22.9693C12.0311 22.9693 12.2391 22.7556 12.5001 22.5006C12.6661 22.3381 13.6517 21.3799 14.7523 20.3099L19.4379 23.7718C20.3001 24.2475 20.9226 24.001 21.1373 22.971L24.2131 8.47698C24.528 7.21448 23.7318 6.64182 22.9068 7.01621ZM9.83226 16.5542L19.9856 10.1484C20.4924 9.84103 20.9572 10.0063 20.5756 10.345L11.8817 18.1891L11.5432 21.7996L9.83226 16.5542Z" />
</symbol>
<symbol id='white-instagram1'  viewBox="0 0 30 30"  xmlns="http://www.w3.org/2000/svg">
<path d="M15.0005 4.09082C12.0379 4.09082 11.666 4.10378 10.5024 4.15673C9.34112 4.20991 8.54841 4.39377 7.8548 4.66355C7.13732 4.94218 6.5287 5.31491 5.92236 5.9215C5.31556 6.52787 4.94284 7.1365 4.6633 7.85377C4.39286 8.54764 4.20877 9.34059 4.1565 10.5015C4.10446 11.6651 4.09082 12.0372 4.09082 14.9999C4.09082 17.9626 4.104 18.3333 4.15673 19.497C4.21014 20.6583 4.39399 21.451 4.66353 22.1447C4.94239 22.8622 5.3151 23.4708 5.92167 24.0772C6.52779 24.684 7.13641 25.0576 7.85343 25.3363C8.5475 25.606 9.34043 25.7899 10.5015 25.8431C11.6651 25.896 12.0367 25.909 14.9991 25.909C17.962 25.909 18.3327 25.896 19.4963 25.8431C20.6576 25.7899 21.4512 25.606 22.1453 25.3363C22.8625 25.0576 23.4702 24.684 24.0764 24.0772C24.6832 23.4708 25.0559 22.8622 25.3354 22.1449C25.6036 21.451 25.7877 20.6581 25.8422 19.4972C25.8945 18.3335 25.9081 17.9626 25.9081 14.9999C25.9081 12.0372 25.8945 11.6654 25.8422 10.5017C25.7877 9.34037 25.6036 8.54764 25.3354 7.854C25.0559 7.1365 24.6832 6.52787 24.0764 5.9215C23.4696 5.31468 22.8628 4.94196 22.1446 4.66355C21.4492 4.39377 20.656 4.20991 19.4947 4.15673C18.3311 4.10378 17.9606 4.09082 14.9971 4.09082H15.0005ZM14.0219 6.05673C14.3123 6.05627 14.6364 6.05673 15.0005 6.05673C17.9131 6.05673 18.2583 6.06718 19.4085 6.11946C20.4721 6.16809 21.0494 6.34582 21.4339 6.49514C21.943 6.69287 22.306 6.92923 22.6875 7.31105C23.0693 7.69287 23.3057 8.0565 23.5039 8.56559C23.6532 8.94968 23.8311 9.52696 23.8795 10.5906C23.9318 11.7406 23.9432 12.086 23.9432 14.9974C23.9432 17.9088 23.9318 18.2542 23.8795 19.4042C23.8309 20.4679 23.6532 21.0451 23.5039 21.4292C23.3061 21.9383 23.0693 22.3008 22.6875 22.6824C22.3057 23.0642 21.9432 23.3006 21.4339 23.4983C21.0499 23.6483 20.4721 23.8256 19.4085 23.8742C18.2586 23.9265 17.9131 23.9379 15.0005 23.9379C12.0876 23.9379 11.7424 23.9265 10.5924 23.8742C9.52884 23.8251 8.95158 23.6474 8.56682 23.4981C8.05775 23.3004 7.69412 23.064 7.31231 22.6822C6.93051 22.3004 6.69415 21.9376 6.49597 21.4283C6.34666 21.0442 6.16871 20.467 6.1203 19.4033C6.06803 18.2533 6.05758 17.9079 6.05758 14.9947C6.05758 12.0815 6.06803 11.7379 6.1203 10.5879C6.16894 9.52423 6.34666 8.94696 6.49597 8.56241C6.6937 8.05332 6.93051 7.68968 7.31231 7.30787C7.69412 6.92605 8.05775 6.68968 8.56682 6.4915C8.95135 6.3415 9.52884 6.16423 10.5924 6.11537C11.5988 6.06991 11.9888 6.05627 14.0219 6.054V6.05673ZM20.8235 7.86809C20.1008 7.86809 19.5144 8.45377 19.5144 9.17673C19.5144 9.89946 20.1008 10.4858 20.8235 10.4858C21.5462 10.4858 22.1325 9.89946 22.1325 9.17673C22.1325 8.454 21.5462 7.86764 20.8235 7.86764V7.86809ZM15.0005 9.39764C11.9067 9.39764 9.39839 11.906 9.39839 14.9999C9.39839 18.0938 11.9067 20.601 15.0005 20.601C18.0943 20.601 20.6017 18.0938 20.6017 14.9999C20.6017 11.906 18.094 9.39764 15.0003 9.39764H15.0005ZM15.0005 11.3635C17.0086 11.3635 18.6367 12.9915 18.6367 14.9999C18.6367 17.0081 17.0086 18.6363 15.0005 18.6363C12.9921 18.6363 11.3642 17.0081 11.3642 14.9999C11.3642 12.9915 12.9921 11.3635 15.0005 11.3635Z" />
</symbol>


<symbol  id='dots' viewBox="0 0 32 52"  xmlns="http://www.w3.org/2000/svg">
<g opacity="0.2">
<circle cx="2" cy="2" r="2" transform="matrix(0 1 1 0 28 47.3331)" fill="#181718"/>
<circle cx="2" cy="2" r="2" transform="matrix(0 1 1 0 28 9.99976)" fill="#181718"/>
<circle cx="2" cy="2" r="2" transform="matrix(0 1 1 0 28 28.6665)" fill="#181718"/>
<circle cx="2" cy="2" r="2" transform="matrix(0 1 1 0 28 37.9999)" fill="#181718"/>
<circle cx="2" cy="2" r="2" transform="matrix(0 1 1 0 28 0.666504)" fill="#181718"/>
<circle cx="2" cy="2" r="2" transform="matrix(0 1 1 0 28 19.3331)" fill="#181718"/>
<circle cx="2" cy="2" r="2" transform="matrix(0 1 1 0 18.6667 47.3331)" fill="#181718"/>
<circle cx="2" cy="2" r="2" transform="matrix(0 1 1 0 18.6667 9.99976)" fill="#181718"/>
<circle cx="2" cy="2" r="2" transform="matrix(0 1 1 0 18.6667 28.6665)" fill="#181718"/>
<circle cx="2" cy="2" r="2" transform="matrix(0 1 1 0 18.6667 37.9999)" fill="#181718"/>
<circle cx="2" cy="2" r="2" transform="matrix(0 1 1 0 18.6667 0.666504)" fill="#181718"/>
<circle cx="2" cy="2" r="2" transform="matrix(0 1 1 0 18.6667 19.3331)" fill="#181718"/>
<circle cx="2" cy="2" r="2" transform="matrix(0 1 1 0 9.33333 47.3331)" fill="#181718"/>
<circle cx="2" cy="2" r="2" transform="matrix(0 1 1 0 9.33333 9.99976)" fill="#181718"/>
<circle cx="2" cy="2" r="2" transform="matrix(0 1 1 0 9.33333 28.6665)" fill="#181718"/>
<circle cx="2" cy="2" r="2" transform="matrix(0 1 1 0 9.33333 37.9999)" fill="#181718"/>
<circle cx="2" cy="2" r="2" transform="matrix(0 1 1 0 9.33333 0.666504)" fill="#181718"/>
<circle cx="2" cy="2" r="2" transform="matrix(0 1 1 0 9.33333 19.3331)" fill="#181718"/>
<circle cx="2" cy="2" r="2" transform="matrix(0 1 1 0 0 47.3331)" fill="#181718"/>
<circle cx="2" cy="2" r="2" transform="matrix(0 1 1 0 0 9.99976)" fill="#181718"/>
<circle cx="2" cy="2" r="2" transform="matrix(0 1 1 0 0 28.6665)" fill="#181718"/>
<circle cx="2" cy="2" r="2" transform="matrix(0 1 1 0 0 37.9999)" fill="#181718"/>
<circle cx="2" cy="2" r="2" transform="matrix(0 1 1 0 0 0.666504)" fill="#181718"/>
<circle cx="2" cy="2" r="2" transform="matrix(0 1 1 0 0 19.3331)" fill="#181718"/>
</g>
</symbol>
<symbol id='primary-star'  viewBox="0 0 33 33"  xmlns="http://www.w3.org/2000/svg">
<path d="M16.5 0L18.2501 14.7499L33 16.5L18.2501 18.2501L16.5 33L14.7499 18.2501L0 16.5L14.7499 14.7499L16.5 0Z" />
</symbol>
<symbol id='primary-star2' viewBox="0 0 20 20" xmlns="http://www.w3.org/2000/svg">
<path d="M10 0L11.7678 8.23223L20 10L11.7678 11.7678L10 20L8.23223 11.7678L0 10L8.23223 8.23223L10 0Z"/>
</symbol>


<symbol  id='nail' viewBox="0 0 17 29"  xmlns="http://www.w3.org/2000/svg">
<path d="M13.5 14.2C13.5 16.9 11.3 19.1 8.60001 19.1C5.90001 19.1 3.70001 16.9 3.70001 14.2C3.70001 13.2 3.80001 11.3 4.20001 9.2C4.80001 5.4 6.10001 1 8.60001 1C11.1 1 12.4 5.3 13 9.2C13.4 11.3 13.5 13.2 13.5 14.2Z"  stroke-miterlimit="10" stroke-linecap="round" stroke-linejoin="round"/>
<path d="M13.1 9.19995C14.8 9.19995 16.1 10.6 16.1 12.2V27.8H1V12.2C1 10.5 2.4 9.19995 4 9.19995"  stroke-miterlimit="10" stroke-linecap="round" stroke-linejoin="round"/>
<path d="M9.20001 3.80005C9.20001 3.80005 10.3 5.20004 10.5 6.70004" stroke-miterlimit="10" stroke-linecap="round" stroke-linejoin="round"/>
</symbol>
<symbol width="27" height="6" id='eyelash' viewBox="0 0 27 6" fill="none" xmlns="http://www.w3.org/2000/svg">
<path d="M9.72633 1.00024C9.00534 2.64821 7.46039 3.78121 5.50343 3.78121C3.54646 3.78121 2.00148 2.64821 1.28049 1.00024" stroke="#181718" stroke-miterlimit="10" stroke-linecap="round" stroke-linejoin="round"/>
<path d="M5.50343 3.8844V5.42937" stroke="#181718" stroke-miterlimit="10" stroke-linecap="round" stroke-linejoin="round"/>
<path d="M7.15139 3.57532L7.97539 5.22329" stroke="#181718" stroke-miterlimit="10" stroke-linecap="round" stroke-linejoin="round"/>
<path d="M3.85548 3.57544L3.03147 5.22342" stroke="#181718" stroke-miterlimit="10" stroke-linecap="round" stroke-linejoin="round"/>
<path d="M9.10839 2.23621L9.93237 3.88417" stroke="#181718" stroke-miterlimit="10" stroke-linecap="round" stroke-linejoin="round"/>
<path d="M1.89846 2.23608L1.07446 3.88405" stroke="#181718" stroke-miterlimit="10" stroke-linecap="round" stroke-linejoin="round"/>
<path d="M25.7941 1.00037C25.0731 2.64834 23.5281 3.78133 21.5712 3.78133C19.6142 3.78133 18.0693 2.64834 17.3483 1.00037" stroke="#181718" stroke-miterlimit="10" stroke-linecap="round" stroke-linejoin="round"/>
<path d="M21.5712 3.88452V5.42949" stroke="#181718" stroke-miterlimit="10" stroke-linecap="round" stroke-linejoin="round"/>
<path d="M23.2192 3.57544L24.0432 5.22342" stroke="#181718" stroke-miterlimit="10" stroke-linecap="round" stroke-linejoin="round"/>
<path d="M19.9232 3.57556L19.2022 5.22354" stroke="#181718" stroke-miterlimit="10" stroke-linecap="round" stroke-linejoin="round"/>
<path d="M25.2791 2.23633L26.0001 3.88429" stroke="#181718" stroke-miterlimit="10" stroke-linecap="round" stroke-linejoin="round"/>
<path d="M17.9662 2.23621L17.1422 3.88417" stroke="#181718" stroke-miterlimit="10" stroke-linecap="round" stroke-linejoin="round"/>
</symbol>
<symbol width="40" id='hair' height="40" viewBox="0 0 40 40" fill="none" xmlns="http://www.w3.org/2000/svg">
<path d="M17.2 15.1C17.2 15.1 18.3 22.5 25.1 23.5C31.9 24.5 31.1 30.1 31.1 30.1C31.1 30.1 40 17.8 28.8 9.89999C28.8 9.89999 26.8 4 20.9 4C15 4 12.1 9.89999 12.1 9.89999C12.1 9.89999 6 10.4 6 17C6 23.6 11.4 24.4 11.4 24.4C11.4 24.4 10.3 16.9 17.2 15.1Z" stroke="#181718" stroke-miterlimit="10" stroke-linecap="round" stroke-linejoin="round"/>
<path d="M29.4 26.4C29.4 26.4 25.3 35.9 20.2 35.9C16.2429 35.9 13.1626 30.3254 12.0499 28" stroke="#181718" stroke-miterlimit="10" stroke-linecap="round" stroke-linejoin="round"/>
 </symbol>
<symbol width="36" height="36" id='crown' viewBox="0 0 36 36" fill="none" xmlns="http://www.w3.org/2000/svg">
<path d="M25.05 29.595H10.95C9.83999 29.595 8.71499 28.8 8.33999 27.765L2.12999 10.38C1.36499 8.18997 1.91999 7.18497 2.51999 6.73497C3.11999 6.28497 4.24499 6.01497 6.13499 7.36497L11.985 11.55C12.165 11.655 12.33 11.7 12.45 11.67C12.585 11.625 12.69 11.505 12.765 11.295L15.405 4.25997C16.2 2.15997 17.37 1.84497 18 1.84497C18.63 1.84497 19.8 2.15997 20.595 4.25997L23.235 11.295C23.31 11.49 23.415 11.625 23.55 11.67C23.685 11.715 23.85 11.67 24.015 11.535L29.505 7.61997C31.515 6.17997 32.685 6.46497 33.33 6.92997C33.96 7.40997 34.545 8.47497 33.72 10.8L27.66 27.765C27.285 28.8 26.16 29.595 25.05 29.595ZM4.01999 8.71497C4.04999 8.92497 4.10999 9.22497 4.25999 9.61497L10.47 27C10.53 27.15 10.8 27.345 10.95 27.345H25.05C25.215 27.345 25.485 27.15 25.53 27L31.59 10.05C31.8 9.47997 31.86 9.08997 31.875 8.86497C31.65 8.93997 31.305 9.10497 30.81 9.46497L25.32 13.38C24.57 13.905 23.685 14.07 22.89 13.83C22.095 13.59 21.45 12.96 21.12 12.105L18.48 5.06997C18.285 4.54497 18.105 4.28997 18 4.16997C17.895 4.28997 17.715 4.54497 17.52 5.05497L14.88 12.09C14.565 12.945 13.92 13.575 13.11 13.815C12.315 14.055 11.415 13.89 10.68 13.365L4.82999 9.17997C4.48499 8.93997 4.21499 8.78997 4.01999 8.71497Z" fill="#292D32"/>
<path d="M26.25 34.125H9.75C9.135 34.125 8.625 33.615 8.625 33C8.625 32.385 9.135 31.875 9.75 31.875H26.25C26.865 31.875 27.375 32.385 27.375 33C27.375 33.615 26.865 34.125 26.25 34.125Z" fill="#292D32"/>
<path d="M21.75 22.125H14.25C13.635 22.125 13.125 21.615 13.125 21C13.125 20.385 13.635 19.875 14.25 19.875H21.75C22.365 19.875 22.875 20.385 22.875 21C22.875 21.615 22.365 22.125 21.75 22.125Z" fill="#292D32"/>
</symbol>
<symbol id='blue-star' width="27" height="27" viewBox="0 0 27 27"  xmlns="http://www.w3.org/2000/svg">
<path d="M13.5 0L14.9319 12.0681L27 13.5L14.9319 14.9319L13.5 27L12.0681 14.9319L0 13.5L12.0681 12.0681L13.5 0Z"/>

</symbol>

<symbol 
id='teacher'
viewBox="0 0 36 36"
fill="none"
xmlns="http://www.w3.org/2000/svg">
<path
  d="M18.015 25.5C16.74 25.5 15.45 25.17 14.445 24.525L5.41498 18.63C3.73498 17.535 2.72998 15.69 2.72998 13.68C2.72998 11.67 3.73498 9.82499 5.41498 8.72999L14.46 2.84999C16.47 1.54499 19.605 1.54499 21.6 2.86499L30.585 8.75999C32.25 9.85499 33.255 11.7 33.255 13.695C33.255 15.69 32.25 17.535 30.585 18.63L21.6 24.525C20.595 25.185 19.305 25.5 18.015 25.5ZM18.015 4.12499C17.16 4.12499 16.305 4.31999 15.69 4.73999L6.65998 10.62C5.60998 11.31 4.99498 12.42 4.99498 13.68C4.99498 14.94 5.59498 16.05 6.65998 16.74L15.69 22.635C16.935 23.445 19.125 23.445 20.37 22.635L29.355 16.74C30.405 16.05 31.005 14.94 31.005 13.68C31.005 12.42 30.405 11.31 29.355 10.62L20.37 4.72499C19.74 4.33499 18.885 4.12499 18.015 4.12499Z"
  fill="#292D32"
/>
<path
  d="M18 34.125C17.34 34.125 16.665 34.035 16.125 33.855L11.34 32.265C9.07503 31.515 7.29003 29.04 7.30503 26.655L7.32003 19.62C7.32003 19.005 7.83003 18.495 8.44503 18.495C9.06003 18.495 9.57003 19.005 9.57003 19.62L9.55503 26.655C9.55503 28.065 10.725 29.685 12.06 30.135L16.845 31.725C17.445 31.92 18.555 31.92 19.155 31.725L23.94 30.135C25.275 29.685 26.445 28.065 26.445 26.67V19.71C26.445 19.095 26.955 18.585 27.57 18.585C28.185 18.585 28.695 19.095 28.695 19.71V26.67C28.695 29.055 26.925 31.515 24.66 32.28L19.875 33.87C19.335 34.035 18.66 34.125 18 34.125Z"
  fill="#292D32"
/>
<path
  d="M32.1 23.625C31.485 23.625 30.975 23.115 30.975 22.5V13.5C30.975 12.885 31.485 12.375 32.1 12.375C32.715 12.375 33.225 12.885 33.225 13.5V22.5C33.225 23.115 32.715 23.625 32.1 23.625Z"
  fill="#292D32"/>
</symbol>


<symbol id='message-text' viewBox="0 0 36 36"  xmlns="http://www.w3.org/2000/svg">
<path d="M18 34.215C16.965 34.215 15.99 33.69 15.3 32.775L13.05 29.775C13.005 29.715 12.825 29.64 12.75 29.625H12C5.745 29.625 1.875 27.93 1.875 19.5V12C1.875 5.37 5.37 1.875 12 1.875H24C30.63 1.875 34.125 5.37 34.125 12V19.5C34.125 26.13 30.63 29.625 24 29.625H23.25C23.13 29.625 23.025 29.685 22.95 29.775L20.7 32.775C20.01 33.69 19.035 34.215 18 34.215ZM12 4.125C6.63 4.125 4.125 6.63 4.125 12V19.5C4.125 26.28 6.45 27.375 12 27.375H12.75C13.515 27.375 14.385 27.81 14.85 28.425L17.1 31.425C17.625 32.115 18.375 32.115 18.9 31.425L21.15 28.425C21.645 27.765 22.425 27.375 23.25 27.375H24C29.37 27.375 31.875 24.87 31.875 19.5V12C31.875 6.63 29.37 4.125 24 4.125H12Z" fill="#292D32"/>
<path d="M25.5 13.125H10.5C9.885 13.125 9.375 12.615 9.375 12C9.375 11.385 9.885 10.875 10.5 10.875H25.5C26.115 10.875 26.625 11.385 26.625 12C26.625 12.615 26.115 13.125 25.5 13.125Z" fill="#292D32"/>
<path d="M19.5 20.625H10.5C9.885 20.625 9.375 20.115 9.375 19.5C9.375 18.885 9.885 18.375 10.5 18.375H19.5C20.115 18.375 20.625 18.885 20.625 19.5C20.625 20.115 20.115 20.625 19.5 20.625Z" fill="#292D32"/>
</symbol>

<symbol  id='crown' viewBox="0 0 36 36" xmlns="http://www.w3.org/2000/svg">
<path d="M25.05 29.595H10.95C9.83999 29.595 8.71499 28.8 8.33999 27.765L2.12999 10.38C1.36499 8.18997 1.91999 7.18497 2.51999 6.73497C3.11999 6.28497 4.24499 6.01497 6.13499 7.36497L11.985 11.55C12.165 11.655 12.33 11.7 12.45 11.67C12.585 11.625 12.69 11.505 12.765 11.295L15.405 4.25997C16.2 2.15997 17.37 1.84497 18 1.84497C18.63 1.84497 19.8 2.15997 20.595 4.25997L23.235 11.295C23.31 11.49 23.415 11.625 23.55 11.67C23.685 11.715 23.85 11.67 24.015 11.535L29.505 7.61997C31.515 6.17997 32.685 6.46497 33.33 6.92997C33.96 7.40997 34.545 8.47497 33.72 10.8L27.66 27.765C27.285 28.8 26.16 29.595 25.05 29.595ZM4.01999 8.71497C4.04999 8.92497 4.10999 9.22497 4.25999 9.61497L10.47 27C10.53 27.15 10.8 27.345 10.95 27.345H25.05C25.215 27.345 25.485 27.15 25.53 27L31.59 10.05C31.8 9.47997 31.86 9.08997 31.875 8.86497C31.65 8.93997 31.305 9.10497 30.81 9.46497L25.32 13.38C24.57 13.905 23.685 14.07 22.89 13.83C22.095 13.59 21.45 12.96 21.12 12.105L18.48 5.06997C18.285 4.54497 18.105 4.28997 18 4.16997C17.895 4.28997 17.715 4.54497 17.52 5.05497L14.88 12.09C14.565 12.945 13.92 13.575 13.11 13.815C12.315 14.055 11.415 13.89 10.68 13.365L4.82999 9.17997C4.48499 8.93997 4.21499 8.78997 4.01999 8.71497Z" fill="#292D32"/>
<path d="M26.25 34.125H9.75C9.135 34.125 8.625 33.615 8.625 33C8.625 32.385 9.135 31.875 9.75 31.875H26.25C26.865 31.875 27.375 32.385 27.375 33C27.375 33.615 26.865 34.125 26.25 34.125Z" fill="#292D32"/>
<path d="M21.75 22.125H14.25C13.635 22.125 13.125 21.615 13.125 21C13.125 20.385 13.635 19.875 14.25 19.875H21.75C22.365 19.875 22.875 20.385 22.875 21C22.875 21.615 22.365 22.125 21.75 22.125Z" fill="#292D32"/>
</symbol>

<symbol  id='calling' viewBox="0 0 21 21"  xmlns="http://www.w3.org/2000/svg">
<mask id="mask0_302_151" style="mask-type:luminance" maskUnits="userSpaceOnUse" x="12" y="0" width="9" height="9">
<path fillRule="evenodd" clipRule="evenodd" d="M12.354 0.000244141H20.893V8.53306H12.354V0.000244141Z"/>
</mask>
<g mask="url(#mask0_302_151)">
<path fillRule="evenodd" clipRule="evenodd" d="M20.1427 8.53306C19.7657 8.53306 19.4417 8.25006 19.3987 7.86706C19.0197 4.49106 16.3977 1.87106 13.0207 1.49606C12.6097 1.45006 12.3127 1.08006 12.3587 0.668058C12.4037 0.257058 12.7707 -0.0459422 13.1867 0.00605776C17.2647 0.459058 20.4317 3.62206 20.8887 7.69906C20.9347 8.11106 20.6387 8.48206 20.2277 8.52806C20.1997 8.53106 20.1707 8.53306 20.1427 8.53306Z"/>
</g>
<path fillRule="evenodd" clipRule="evenodd" d="M16.6026 8.54391C16.2506 8.54391 15.9376 8.29591 15.8676 7.93791C15.5796 6.45791 14.4386 5.31691 12.9606 5.02991C12.5536 4.95091 12.2886 4.55791 12.3676 4.15091C12.4466 3.74391 12.8466 3.47791 13.2466 3.55791C15.3276 3.96191 16.9346 5.56791 17.3396 7.64991C17.4186 8.05791 17.1536 8.45091 16.7476 8.52991C16.6986 8.53891 16.6506 8.54391 16.6026 8.54391Z"/>
<mask id="mask1_302_151" style="mask-type:luminance" maskUnits="userSpaceOnUse" x="0" y="-1" width="21" height="22">
<path fillRule="evenodd" clipRule="evenodd" d="M0.000411987 -0.00012207H20.5007V20.5004H0.000411987V-0.00012207Z" />
</mask>
<g mask="url(#mask1_302_151)">
<path fillRule="evenodd" clipRule="evenodd" d="M2.3595 3.06142C2.3615 3.06142 2.3115 3.11342 2.2485 3.17542C2.0065 3.41042 1.5055 3.89942 1.5005 4.92242C1.4925 6.35342 2.4335 9.01042 6.9645 13.5404C11.4735 18.0484 14.1265 19.0004 15.5615 19.0004H15.5825C16.6055 18.9944 17.0935 18.4934 17.3285 18.2524C17.3995 18.1794 17.4575 18.1244 17.4985 18.0914C18.4955 17.0884 19.0055 16.3434 19.0005 15.8644C18.9945 15.3764 18.3875 14.8004 17.5485 14.0014C17.2815 13.7484 16.9915 13.4714 16.6855 13.1654C15.8915 12.3744 15.5005 12.5094 14.6355 12.8134C13.4405 13.2324 11.8035 13.8064 9.2525 11.2534C6.7005 8.70242 7.2725 7.06542 7.6895 5.86942C7.9915 5.00542 8.1295 4.61242 7.3365 3.81842C7.0265 3.50842 6.7475 3.21442 6.4905 2.94442C5.6965 2.11042 5.1235 1.50742 4.6385 1.50042H4.6305C4.1515 1.50042 3.4075 2.01242 2.3545 3.06542C2.3575 3.06242 2.3585 3.06142 2.3595 3.06142ZM15.5615 20.5004C13.0695 20.5004 9.8205 18.5164 5.9045 14.6014C1.9725 10.6704 -0.0145037 7.41142 0.000496281 4.91442C0.00949628 3.26442 0.874496 2.41942 1.1995 2.10242C1.2165 2.08142 1.2745 2.02442 1.2945 2.00442C2.7295 0.569418 3.7155 -0.0205819 4.6575 0.000418073C5.7745 0.0154181 6.5705 0.852418 7.5775 1.91142C7.8265 2.17242 8.0955 2.45742 8.3965 2.75742C9.8555 4.21742 9.4405 5.40842 9.1055 6.36442C8.7415 7.40742 8.4265 8.30742 10.3125 10.1934C12.1985 12.0794 13.0975 11.7644 14.1395 11.3974C15.0965 11.0634 16.2845 10.6454 17.7465 12.1054C18.0435 12.4024 18.3235 12.6684 18.5835 12.9154C19.6465 13.9274 20.4865 14.7264 20.5005 15.8464C20.5115 16.8004 19.9315 17.7744 18.4995 19.2064L17.8655 18.7764L18.4025 19.2994C18.0855 19.6244 17.2425 20.4904 15.5915 20.5004H15.5615Z"/>
</g>
</symbol>

<symbol viewBox="0 0 24 24"  id='clock' xmlns="http://www.w3.org/2000/svg">
<path d="M12 22.75C6.07 22.75 1.25 17.93 1.25 12C1.25 6.07 6.07 1.25 12 1.25C17.93 1.25 22.75 6.07 22.75 12C22.75 17.93 17.93 22.75 12 22.75ZM12 2.75C6.9 2.75 2.75 6.9 2.75 12C2.75 17.1 6.9 21.25 12 21.25C17.1 21.25 21.25 17.1 21.25 12C21.25 6.9 17.1 2.75 12 2.75Z" />
<path d="M15.71 15.93C15.58 15.93 15.45 15.9 15.33 15.82L12.23 13.97C11.46 13.51 10.89 12.5 10.89 11.61V7.51001C10.89 7.10001 11.23 6.76001 11.64 6.76001C12.05 6.76001 12.39 7.10001 12.39 7.51001V11.61C12.39 11.97 12.69 12.5 13 12.68L16.1 14.53C16.46 14.74 16.57 15.2 16.36 15.56C16.21 15.8 15.96 15.93 15.71 15.93Z" />
</symbol>





<symbol width="17" id='location' height="20" viewBox="0 0 17 20"  xmlns="http://www.w3.org/2000/svg">
<path fill-rule="evenodd" clip-rule="evenodd" d="M8.25049 6.5C7.28549 6.5 6.50049 7.285 6.50049 8.251C6.50049 9.216 7.28549 10 8.25049 10C9.21549 10 10.0005 9.216 10.0005 8.251C10.0005 7.285 9.21549 6.5 8.25049 6.5ZM8.25049 11.5C6.45849 11.5 5.00049 10.043 5.00049 8.251C5.00049 6.458 6.45849 5 8.25049 5C10.0425 5 11.5005 6.458 11.5005 8.251C11.5005 10.043 10.0425 11.5 8.25049 11.5Z" />
<mask id="mask0_6619_1579" style="mask-type:luminance" maskUnits="userSpaceOnUse" x="0" y="0" width="17" height="20">
<path fill-rule="evenodd" clip-rule="evenodd" d="M0 0H16.4995V19.5H0V0Z" />
</mask>
<g mask="url(#mask0_6619_1579)">
<path fill-rule="evenodd" clip-rule="evenodd" d="M8.24951 1.5C4.52751 1.5 1.49951 4.557 1.49951 8.313C1.49951 13.092 7.12351 17.748 8.24951 17.996C9.37551 17.747 14.9995 13.091 14.9995 8.313C14.9995 4.557 11.9715 1.5 8.24951 1.5ZM8.24951 19.5C6.45551 19.5 -0.000488281 13.948 -0.000488281 8.313C-0.000488281 3.729 3.70051 0 8.24951 0C12.7985 0 16.4995 3.729 16.4995 8.313C16.4995 13.948 10.0435 19.5 8.24951 19.5Z" />
</g>
</symbol>



<symbol  viewBox="0 0 22 21" id="white-play"  xmlns="http://www.w3.org/2000/svg">
<path fillRule="evenodd" clipRule="evenodd" d="M10.7744 1.5C5.94941 1.5 2.02441 5.425 2.02441 10.25C2.02441 15.075 5.94941 19 10.7744 19C15.5994 19 19.5244 15.075 19.5244 10.25C19.5244 5.425 15.5994 1.5 10.7744 1.5ZM10.7744 20.5C5.12241 20.5 0.524414 15.902 0.524414 10.25C0.524414 4.598 5.12241 0 10.7744 0C16.4264 0 21.0244 4.598 21.0244 10.25C21.0244 15.902 16.4264 20.5 10.7744 20.5Z" />
<path fillRule="evenodd" clipRule="evenodd" d="M9.65817 8.08651C9.48117 9.08751 9.47817 11.4785 9.65517 12.4285C10.5332 12.1185 12.4352 10.8685 12.9472 10.2495C12.4372 9.64851 10.5592 8.42451 9.65817 8.08651ZM9.35217 14.0015C9.08217 14.0015 8.82617 13.9245 8.61717 13.7165C8.45617 13.5575 8.02617 13.1325 8.02417 10.3335C8.02317 7.36151 8.47017 6.91951 8.61717 6.77251C9.14017 6.25451 9.99217 6.60951 10.3552 6.76151C10.8752 6.97851 14.5242 8.84751 14.5242 10.2455C14.5242 11.5555 11.2402 13.3875 10.4012 13.7375C10.0742 13.8735 9.70117 14.0015 9.35217 14.0015Z" />
</symbol>

<symbol id='quotation'  viewBox="0 0 32 25"  xmlns="http://www.w3.org/2000/svg">
<path d="M0 25C2.33468 16.5259 3.28683 8.18732 2.78111 0H11.1046C13.7826 7.33463 14.4836 15.7966 13.8758 25H0Z" />
<path d="M17.6565 25C20.4429 16.3571 21.0741 8.06878 20.4277 0H20.4376H28.7611C31.8597 7.80878 32.6185 16.1849 31.5323 25H17.6565Z" />
</symbol>

<symbol id='calling1' viewBox="0 0 24 24"  xmlns="http://www.w3.org/2000/svg">
<mask id="mask0_35_457" style="mask-type:luminance" maskUnits="userSpaceOnUse" x="14" y="2" width="9" height="9">
<path fillRule="evenodd" clipRule="evenodd" d="M14.354 2.00049H22.893V10.5333H14.354V2.00049Z" />
</mask>
<g mask="url(#mask0_35_457)">
<path fillRule="evenodd" clipRule="evenodd" d="M22.1427 10.5333C21.7657 10.5333 21.4417 10.2503 21.3987 9.8673C21.0197 6.4913 18.3977 3.8713 15.0207 3.4963C14.6097 3.4503 14.3127 3.0803 14.3587 2.6683C14.4037 2.2573 14.7707 1.9543 15.1867 2.0063C19.2647 2.4593 22.4317 5.6223 22.8887 9.6993C22.9347 10.1113 22.6387 10.4823 22.2277 10.5283C22.1997 10.5313 22.1707 10.5333 22.1427 10.5333Z" />
</g>
<path fillRule="evenodd" clipRule="evenodd" d="M18.6026 10.5439C18.2506 10.5439 17.9376 10.2959 17.8676 9.93791C17.5796 8.45791 16.4386 7.31691 14.9606 7.02991C14.5536 6.95091 14.2886 6.55791 14.3676 6.15091C14.4466 5.74391 14.8466 5.47791 15.2466 5.55791C17.3276 5.96191 18.9346 7.56791 19.3396 9.64991C19.4186 10.0579 19.1536 10.4509 18.7476 10.5299C18.6986 10.5389 18.6506 10.5439 18.6026 10.5439Z" />
<mask id="mask1_35_457" style="mask-type:luminance" maskUnits="userSpaceOnUse" x="2" y="2" width="21" height="21">
<path fillRule="evenodd" clipRule="evenodd" d="M2.00037 2H22.5006V22.5005H2.00037V2Z" />
</mask>
<g mask="url(#mask1_35_457)">
<path fillRule="evenodd" clipRule="evenodd" d="M4.35945 5.06154C4.36145 5.06154 4.31145 5.11354 4.24845 5.17554C4.00645 5.41054 3.50545 5.89954 3.50045 6.92254C3.49245 8.35354 4.43345 11.0105 8.96445 15.5405C13.4734 20.0485 16.1265 21.0005 17.5615 21.0005H17.5824C18.6054 20.9945 19.0935 20.4935 19.3285 20.2525C19.3995 20.1795 19.4575 20.1245 19.4985 20.0915C20.4955 19.0885 21.0054 18.3435 21.0005 17.8645C20.9944 17.3765 20.3874 16.8005 19.5485 16.0015C19.2815 15.7485 18.9914 15.4715 18.6854 15.1655C17.8914 14.3745 17.5005 14.5095 16.6355 14.8135C15.4405 15.2325 13.8035 15.8065 11.2524 13.2535C8.70045 10.7025 9.27245 9.06554 9.68945 7.86954C9.99145 7.00554 10.1295 6.61254 9.33645 5.81854C9.02645 5.50854 8.74745 5.21454 8.49045 4.94454C7.69645 4.11054 7.12345 3.50754 6.63845 3.50054H6.63045C6.15145 3.50054 5.40745 4.01254 4.35445 5.06554C4.35745 5.06254 4.35845 5.06154 4.35945 5.06154ZM17.5615 22.5005C15.0695 22.5005 11.8204 20.5165 7.90445 16.6015C3.97245 12.6705 1.98545 9.41154 2.00045 6.91454C2.00945 5.26454 2.87445 4.41954 3.19945 4.10254C3.21645 4.08154 3.27445 4.02454 3.29445 4.00454C4.72945 2.56954 5.71545 1.97954 6.65745 2.00054C7.77445 2.01554 8.57045 2.85254 9.57745 3.91154C9.82645 4.17254 10.0955 4.45754 10.3965 4.75754C11.8554 6.21754 11.4405 7.40854 11.1055 8.36454C10.7415 9.40754 10.4265 10.3075 12.3125 12.1935C14.1985 14.0795 15.0975 13.7645 16.1395 13.3975C17.0964 13.0635 18.2845 12.6455 19.7465 14.1055C20.0435 14.4025 20.3235 14.6685 20.5835 14.9155C21.6465 15.9275 22.4865 16.7265 22.5005 17.8465C22.5114 18.8005 21.9314 19.7745 20.4995 21.2065L19.8654 20.7765L20.4025 21.2995C20.0855 21.6245 19.2425 22.4905 17.5915 22.5005H17.5615Z" />
</g>
</symbol>

<symbol id="arrow-down" width="12" height="12" viewBox="0 0 12 12" xmlns="http://www.w3.org/2000/svg">
<path d="M9.95906 4.47498L6.69906 7.73498C6.31406 8.11998 5.68406 8.11998 5.29906 7.73498L2.03906 4.47498" stroke-width="1.5" stroke-miterlimit="10" stroke-linecap="round" stroke-linejoin="round"/>
</symbol>

</svg>

