<!-- searvices and porfolios -->
<svg>

<symbol id="success-operation" width="130" height="130" viewBox="0 0 130 130" fill="none" xmlns="http://www.w3.org/2000/svg">
<path d="M10.8359 54.1666H119.169" stroke="#181718" stroke-width="5.5" stroke-miterlimit="10" stroke-linecap="round" stroke-linejoin="round"/>
<path d="M62.5568 111.04H34.8777C15.6485 111.04 10.7734 106.274 10.7734 87.2613V42.7363C10.7734 25.5113 14.7819 19.9863 29.8944 19.1196C31.4111 19.0654 33.0902 19.0112 34.8777 19.0112H95.0568C114.286 19.0112 119.161 23.7779 119.161 42.7904V66.6779" stroke="#181718" stroke-width="5.5" stroke-linecap="round" stroke-linejoin="round"/>
<path d="M32.5 86.6666H54.1667" stroke="#181718" stroke-width="5.5" stroke-miterlimit="10" stroke-linecap="round" stroke-linejoin="round"/>
<path d="M119.169 97.5C119.169 101.563 118.032 105.408 116.028 108.658C112.29 114.942 105.411 119.167 97.5026 119.167C89.5943 119.167 82.7152 114.942 78.9777 108.658C76.9735 105.408 75.8359 101.563 75.8359 97.5C75.8359 85.5292 85.5318 75.8334 97.5026 75.8334C109.473 75.8334 119.169 85.5292 119.169 97.5Z" stroke="#0F8F56" stroke-width="5.5" stroke-miterlimit="10" stroke-linecap="round" stroke-linejoin="round"/>
<path d="M89.0547 97.4974L94.4171 102.86L105.955 92.1891" stroke="#0F8F56" stroke-width="5.5" stroke-linecap="round" stroke-linejoin="round"/>
</symbol>

<symbol id="fail-operation" width="130" height="130" viewBox="0 0 130 130" fill="none" xmlns="http://www.w3.org/2000/svg">
<path d="M118.626 58.3918H10.293C8.07214 58.3918 6.23047 56.5502 6.23047 54.3293C6.23047 52.1085 8.07214 50.2668 10.293 50.2668H118.626C120.847 50.2668 122.689 52.1085 122.689 54.3293C122.689 56.5502 120.901 58.3918 118.626 58.3918Z" fill="#181718"/>
<path d="M62.0763 115.267H34.3969C12.8385 115.267 6.23047 108.767 6.23047 87.425V42.9C6.23047 25.8375 9.85958 16.3583 29.1971 15.2208C30.8762 15.1666 32.5552 15.1124 34.3969 15.1124H94.5763C116.135 15.1124 122.743 21.6124 122.743 42.9541V66.8416C122.743 69.0624 120.901 70.9041 118.68 70.9041C116.459 70.9041 114.618 69.0624 114.618 66.8416V42.9541C114.618 26.2166 111.639 23.2374 94.5763 23.2374H34.3969C32.6635 23.2374 31.093 23.2916 29.5763 23.3458C17.8221 24.0499 14.3555 26.7041 14.3555 42.9541V87.4791C14.3555 104.217 17.3344 107.196 34.3969 107.196H62.0763C64.2971 107.196 66.1388 109.037 66.1388 111.258C66.1388 113.479 64.2971 115.267 62.0763 115.267Z" fill="#181718"/>
<path d="M96.9596 123.392C82.768 123.392 71.2305 111.854 71.2305 97.6626C71.2305 83.471 82.768 71.9335 96.9596 71.9335C111.151 71.9335 122.689 83.471 122.689 97.6626C122.689 111.854 111.151 123.392 96.9596 123.392ZM96.9596 80.0585C87.2638 80.0585 79.3555 87.9668 79.3555 97.6626C79.3555 107.358 87.2638 115.267 96.9596 115.267C106.655 115.267 114.564 107.358 114.564 97.6626C114.564 87.9668 106.655 80.0585 96.9596 80.0585Z" fill="#DC3545"/>
<path d="M102.751 107.792C101.722 107.792 100.693 107.412 99.8806 106.6L88.4516 95.1708C86.8807 93.6 86.8807 90.9999 88.4516 89.4291C90.0224 87.8583 92.6224 87.8583 94.1932 89.4291L105.622 100.858C107.193 102.429 107.193 105.029 105.622 106.6C104.864 107.358 103.78 107.792 102.751 107.792Z" fill="#DC3545"/>
<path d="M91.1624 107.9C90.1332 107.9 89.1039 107.521 88.2914 106.708C86.7206 105.137 86.7206 102.538 88.2914 100.967L99.7205 89.5375C101.291 87.9667 103.891 87.9667 105.462 89.5375C107.033 91.1083 107.033 93.7083 105.462 95.2792L94.0331 106.708C93.2747 107.521 92.2457 107.9 91.1624 107.9Z" fill="#DC3545"/>
<path d="M53.6237 90.8918H31.957C29.7362 90.8918 27.8945 89.0502 27.8945 86.8293C27.8945 84.6085 29.7362 82.7668 31.957 82.7668H53.6237C55.8445 82.7668 57.6862 84.6085 57.6862 86.8293C57.6862 89.0502 55.8987 90.8918 53.6237 90.8918Z" fill="#181718"/>
</symbol>



<symbol id="success2" width="28" height="28" viewBox="0 0 28 28" fill="none" xmlns="http://www.w3.org/2000/svg">
<path d="M13.9987 26.5417C7.08036 26.5417 1.45703 20.9184 1.45703 14C1.45703 7.08171 7.08036 1.45837 13.9987 1.45837C20.917 1.45837 26.5404 7.08171 26.5404 14C26.5404 20.9184 20.917 26.5417 13.9987 26.5417ZM13.9987 3.20837C8.0487 3.20837 3.20703 8.05004 3.20703 14C3.20703 19.95 8.0487 24.7917 13.9987 24.7917C19.9487 24.7917 24.7904 19.95 24.7904 14C24.7904 8.05004 19.9487 3.20837 13.9987 3.20837Z" fill="#28A745"/>
<path d="M12.3417 18.1767C12.1084 18.1767 11.8867 18.0833 11.7234 17.92L8.42172 14.6183C8.08339 14.28 8.08339 13.72 8.42172 13.3817 C8.76005 13.0433 9.32005 13.0433 9.65839 13.3817L12.3417 16.065L18.3384 10.0683C18.6767 9.72999 19.2367 9.72999 19.5751 10.0683C19.9134 10.4067 19.9134 10.9667 19.5751 11.305L12.9601 17.92C12.7967 18.0833 12.5751 18.1767 12.3417 18.1767Z" fill="#28A745"/>
</symbol>

<symbol id="fail" width="20" height="15" viewBox="0 0 40 40 " fill="none" xmlns="http://www.w3.org/2000/svg">
<path d="M28.6674 28.6672C23.7754 33.5592 15.8228 33.5592 10.9308 28.6672C6.0388 23.7752 6.0388 15.8227 10.9308 10.9307C15.8228 6.03865 23.7754 6.03865 28.6674 10.9307C33.5594 15.8227 33.5594 23.7752 28.6674 28.6672ZM12.1682 12.1681C7.96095 16.3754 7.96095 23.2225 12.1682 27.4298C16.3755 31.6371 23.2227 31.6371 27.43 27.4298C31.6372 23.2225 31.6372 16.3754 27.43 12.1681C23.2227 7.96081 16.3755 7.9608 12.1682 12.1681Z" fill="#DC3545"/>
<path d="M23.7175 17.1178L17.1179 23.7175C16.7796 24.0557 16.2187 24.0557 15.8804 23.7175C15.5422 23.3792 15.5422 22.8183 15.8804 22.48L22.4801 15.8804C22.8183 15.5421 23.3793 15.5421 23.7175 15.8804C24.0558 16.2186 24.0558 16.7796 23.7175 17.1178Z" fill="#DC3545"/>
<path d="M23.7175 23.7175C23.3793 24.0558 22.8183 24.0558 22.4801 23.7175L15.8804 17.1179C15.5422 16.7796 15.5422 16.2187 15.8804 15.8804C16.2187 15.5422 16.7796 15.5422 17.1179 15.8804L23.7175 22.4801C24.0558 22.8183 24.0558 23.3793 23.7175 23.7175Z" fill="#DC3545"/>
</symbol>





</svg>