<!-- searvices and porfolios -->
<svg>
<symbol id="search" viewBox="0 0 24 24" xmlns="http://www.w3.org/2000/svg">
<mask id="mask0_1169_3949" style="mask-type:luminance" maskUnits="userSpaceOnUse" x="2" y="2" width="20" height="20">
<path fillRule="evenodd" clipRule="evenodd" d="M2 2H21.4768V21.477H2V2Z" fill="white"/>
</mask>
<g mask="url(#mask0_1169_3949)">
<path fillRule="evenodd" clipRule="evenodd" d="M11.739 3.5C7.196 3.5 3.5 7.195 3.5 11.738C3.5 16.281 7.196 19.977 11.739 19.977C16.281 19.977 19.977 16.281 19.977 11.738C19.977 7.195 16.281 3.5 11.739 3.5ZM11.739 21.477C6.369 21.477 2 17.108 2 11.738C2 6.368 6.369 2 11.739 2C17.109 2 21.477 6.368 21.477 11.738C21.477 17.108 17.109 21.477 11.739 21.477Z" fill="#181718"/>
</g>
<mask id="mask1_1169_3949" style="mask-type:luminance" maskUnits="userSpaceOnUse" x="17" y="17" width="6" height="6">
<path fillRule="evenodd" clipRule="evenodd" d="M17.2402 17.7069H22.2643V22.7217H17.2402V17.7069Z" fill="white"/>
</mask>
<g mask="url(#mask1_1169_3949)">
<path fillRule="evenodd" clipRule="evenodd" d="M21.5145 22.7217C21.3235 22.7217 21.1315 22.6487 20.9845 22.5027L17.4605 18.9887C17.1675 18.6957 17.1665 18.2207 17.4595 17.9277C17.7515 17.6327 18.2265 17.6347 18.5205 17.9257L22.0445 21.4407C22.3375 21.7337 22.3385 22.2077 22.0455 22.5007C21.8995 22.6487 21.7065 22.7217 21.5145 22.7217Z" fill="#181718"/>
</g>
</symbol>

<symbol id="eyelash" viewBox="0 0 27 6" xmlns="http://www.w3.org/2000/svg">
<path d="M9.72513 1.00018C9.00414 2.64815 7.45919 3.78115 5.50223 3.78115C3.54526 3.78115 2.00028 2.64815 1.2793 1.00018" stroke="#181718" stroke-miterlimit="10" stroke-linecap="round" stroke-linejoin="round"/>
<path d="M5.50391 3.88428V5.42925" stroke="#181718" stroke-miterlimit="10" stroke-linecap="round" stroke-linejoin="round"/>
<path d="M7.15039 3.5752L7.97439 5.22317" stroke="#181718" stroke-miterlimit="10" stroke-linecap="round" stroke-linejoin="round"/>
<path d="M3.85525 3.57526L3.03125 5.22323" stroke="#181718" stroke-miterlimit="10" stroke-linecap="round" stroke-linejoin="round"/>
<path d="M9.10742 2.23608L9.93139 3.88405" stroke="#181718" stroke-miterlimit="10" stroke-linecap="round" stroke-linejoin="round"/>
<path d="M1.89822 2.23599L1.07422 3.88395" stroke="#181718" stroke-miterlimit="10" stroke-linecap="round" stroke-linejoin="round"/>
<path d="M25.7935 1.00027C25.0725 2.64825 23.5275 3.78124 21.5706 3.78124C19.6136 3.78124 18.0686 2.64825 17.3477 1.00027" stroke="#181718" stroke-miterlimit="10" stroke-linecap="round" stroke-linejoin="round"/>
<path d="M21.5723 3.88437V5.42934" stroke="#181718" stroke-miterlimit="10" stroke-linecap="round" stroke-linejoin="round"/>
<path d="M23.2207 3.57529L24.0447 5.22326" stroke="#181718" stroke-miterlimit="10" stroke-linecap="round" stroke-linejoin="round"/>
<path d="M19.9241 3.57538L19.2031 5.22336" stroke="#181718" stroke-miterlimit="10" stroke-linecap="round" stroke-linejoin="round"/>
<path d="M25.2793 2.23615L26.0003 3.88411" stroke="#181718" stroke-miterlimit="10" stroke-linecap="round" stroke-linejoin="round"/>
<path d="M17.9666 2.23608L17.1426 3.88405" stroke="#181718" stroke-miterlimit="10" stroke-linecap="round" stroke-linejoin="round"/>
</symbol>


</svg>