<svg>
<symbol id='star'  viewBox="0 0 17 17"  xmlns="http://www.w3.org/2000/svg">
<path d="M8.5 0L10.0026 6.9974L17 8.5L10.0026 10.0026L8.5 17L6.9974 10.0026L0 8.5L6.9974 6.9974L8.5 0Z" />
<defs>
<linearGradient id="paint0_linear_913_2452" x1="8.5" y1="0" x2="8.5" y2="17" gradientUnits="userSpaceOnUse">
<stop offset="0.0889996" />
<stop offset="1" />
</linearGradient>
</defs>
</symbol>
<symbol id="return-arrow" width="18" height="18" viewBox="0 0 18 18" fill="none" xmlns="http://www.w3.org/2000/svg">
<g opacity="0.2">
<path d="M5.97725 14.6477C5.77755 14.448 5.7594 14.1355 5.92279 13.9153L5.97725 13.8523L10.8293 9L5.97725 4.14775C5.77755 3.94805 5.7594 3.63555 5.92279 3.41534L5.97725 3.35225C6.17695 3.15255 6.48945 3.1344 6.70966 3.29779L6.77275 3.35225L12.0227 8.60225C12.2224 8.80195 12.2406 9.11445 12.0772 9.33466L12.0227 9.39775L6.77275 14.6477C6.55308 14.8674 6.19692 14.8674 5.97725 14.6477Z" fill="#181718"/>
</g>
</symbol>
<symbol id="upload-img" width="24" height="24" viewBox="0 0 24 24" fill="none" xmlns="http://www.w3.org/2000/svg">
<path d="M9 10.75C7.48 10.75 6.25 9.52 6.25 8C6.25 6.48 7.48 5.25 9 5.25C10.52 5.25 11.75 6.48 11.75 8C11.75 9.52 10.52 10.75 9 10.75ZM9 6.75C8.31 6.75 7.75 7.31 7.75 8C7.75 8.69 8.31 9.25 9 9.25C9.69 9.25 10.25 8.69 10.25 8C10.25 7.31 9.69 6.75 9 6.75Z" fill="#181718"/>
<path d="M15 22.75H9C3.57 22.75 1.25 20.43 1.25 15V9C1.25 3.57 3.57 1.25 9 1.25H13C13.41 1.25 13.75 1.59 13.75 2C13.75 2.41 13.41 2.75 13 2.75H9C4.39 2.75 2.75 4.39 2.75 9V15C2.75 19.61 4.39 21.25 9 21.25H15C19.61 21.25 21.25 19.61 21.25 15V10C21.25 9.59 21.59 9.25 22 9.25C22.41 9.25 22.75 9.59 22.75 10V15C22.75 20.43 20.43 22.75 15 22.75Z" fill="#181718"/>
<path d="M18 8.75C17.9 8.75 17.81 8.73 17.71 8.69C17.43 8.58 17.25 8.3 17.25 8V2C17.25 1.59 17.59 1.25 18 1.25C18.41 1.25 18.75 1.59 18.75 2V6.19L19.47 5.47C19.76 5.18 20.24 5.18 20.53 5.47C20.82 5.76 20.82 6.24 20.53 6.53L18.53 8.53C18.39 8.67 18.2 8.75 18 8.75Z" fill="#181718"/>
<path d="M18 8.74945C17.81 8.74945 17.62 8.67945 17.47 8.52945L15.47 6.52945C15.18 6.23945 15.18 5.75945 15.47 5.46945C15.76 5.17945 16.24 5.17945 16.53 5.46945L18.53 7.46945C18.82 7.75945 18.82 8.23945 18.53 8.52945C18.38 8.67945 18.19 8.74945 18 8.74945Z" fill="#181718"/>
<path d="M2.67002 19.7005C2.43002 19.7005 2.19002 19.5805 2.05002 19.3705C1.82002 19.0305 1.91002 18.5605 2.26002 18.3305L7.19002 15.0205C8.27002 14.2905 9.76002 14.3805 10.74 15.2105L11.07 15.5005C11.57 15.9305 12.42 15.9305 12.91 15.5005L17.07 11.9305C18.13 11.0205 19.8 11.0205 20.87 11.9305L22.5 13.3305C22.81 13.6005 22.85 14.0705 22.58 14.3905C22.31 14.7005 21.84 14.7405 21.52 14.4705L19.89 13.0705C19.39 12.6405 18.54 12.6405 18.04 13.0705L13.88 16.6405C12.82 17.5505 11.15 17.5505 10.08 16.6405L9.75002 16.3505C9.29002 15.9605 8.53002 15.9205 8.02002 16.2705L3.09002 19.5805C2.96002 19.6605 2.81002 19.7005 2.67002 19.7005Z" fill="#181718"/>
</symbol>

<symbol id="delete" width="20" height="20" viewBox="0 0 20 20" fill="none" xmlns="http://www.w3.org/2000/svg">
<g opacity="0.8">
<path d="M17.5001 5.60742C17.4834 5.60742 17.4584 5.60742 17.4334 5.60742C13.0251 5.16575 8.62505 4.99909 4.26672 5.44075L2.56672 5.60742C2.21672 5.64075 1.90839 5.39075 1.87505 5.04075C1.84172 4.69075 2.09172 4.39075 2.43339 4.35742L4.13339 4.19075C8.56672 3.74075 13.0584 3.91575 17.5584 4.35742C17.9001 4.39075 18.1501 4.69909 18.1167 5.04075C18.0917 5.36575 17.8167 5.60742 17.5001 5.60742Z" fill="#DC3545"/>
<path d="M7.08338 4.76602C7.05005 4.76602 7.01672 4.76602 6.97505 4.75768C6.64172 4.69935 6.40838 4.37435 6.46672 4.04102L6.65005 2.94935C6.78338 2.14935 6.96671 1.04102 8.90838 1.04102H11.0917C13.0417 1.04102 13.225 2.19102 13.35 2.95768L13.5334 4.04102C13.5917 4.38268 13.3584 4.70768 13.025 4.75768C12.6834 4.81602 12.3584 4.58268 12.3084 4.24935L12.125 3.16602C12.0084 2.44102 11.9834 2.29935 11.1 2.29935H8.91672C8.03338 2.29935 8.01672 2.41602 7.89172 3.15768L7.70005 4.24102C7.65005 4.54935 7.38338 4.76602 7.08338 4.76602Z" fill="#DC3545"/>
<path d="M12.675 18.9577H7.325C4.41666 18.9577 4.3 17.3493 4.20833 16.0493L3.66666 7.65766C3.64166 7.316 3.90833 7.016 4.25 6.991C4.6 6.97433 4.89166 7.23266 4.91666 7.57433L5.45833 15.966C5.55 17.2327 5.58333 17.7077 7.325 17.7077H12.675C14.425 17.7077 14.4583 17.2327 14.5417 15.966L15.0833 7.57433C15.1083 7.23266 15.4083 6.97433 15.75 6.991C16.0917 7.016 16.3583 7.30766 16.3333 7.65766L15.7917 16.0493C15.7 17.3493 15.5833 18.9577 12.675 18.9577Z" fill="#DC3545"/>
<path d="M11.3833 14.375H8.60828C8.26661 14.375 7.98328 14.0917 7.98328 13.75C7.98328 13.4083 8.26661 13.125 8.60828 13.125H11.3833C11.7249 13.125 12.0083 13.4083 12.0083 13.75C12.0083 14.0917 11.7249 14.375 11.3833 14.375Z" fill="#DC3545"/>
<path d="M12.0833 11.041H7.91663C7.57496 11.041 7.29163 10.7577 7.29163 10.416C7.29163 10.0743 7.57496 9.79102 7.91663 9.79102H12.0833C12.425 9.79102 12.7083 10.0743 12.7083 10.416C12.7083 10.7577 12.425 11.041 12.0833 11.041Z" fill="#DC3545"/>
</g>
</symbol>
</svg>