<svg>
<symbol  id="eyes"  viewBox="0 0 40 40"  xmlns="http://www.w3.org/2000/svg">
<path fill-rule="evenodd" clip-rule="evenodd" d="M36.6071 18.6219C36.4924 18.6219 36.3785 18.5722 36.3014 18.4764C30.8714 11.7721 23.6816 9.40656 14.9308 11.4455C9.30781 12.7558 4.82483 15.558 3.62726 16.3545C4.05289 16.7242 5.2832 17.3848 7.28418 17.76C7.49771 17.7998 7.63816 18.0052 7.59791 18.2185C7.55848 18.4318 7.3531 18.5722 7.13959 18.5322C4.79358 18.0923 2.84162 17.121 2.69633 16.3206C2.66906 16.1713 2.73044 16.0197 2.85389 15.9312C2.90507 15.8945 8.04057 12.2442 14.7529 10.6802C18.7127 9.75749 22.4418 9.72728 25.8368 10.5903C30.0885 11.6705 33.8142 14.1575 36.9118 17.9818C37.0482 18.1503 37.0223 18.3978 36.8539 18.5344C36.7809 18.5932 36.6936 18.622 36.6071 18.6219Z" />
<path fill-rule="evenodd" clip-rule="evenodd" d="M36.6065 18.621C36.5063 18.621 36.406 18.5831 36.3296 18.5069C26.0306 8.26746 16.0406 13.9542 10.6732 17.0093C9.01671 17.9521 7.92201 18.5743 7.1916 18.5376C6.97551 18.5263 6.80831 18.3417 6.8199 18.125C6.83081 17.9083 7.01564 17.742 7.23252 17.7529C7.24144 17.7533 7.25093 17.7537 7.26116 17.7537C7.77683 17.7535 8.94094 17.0912 10.2845 16.3264C12.9314 14.8197 16.9313 12.5427 21.5601 11.9977C24.1156 11.6968 26.6083 11.9589 28.9701 12.7765C31.7295 13.7317 34.392 15.4722 36.8834 17.9497C37.0375 18.1026 37.0382 18.3514 36.8854 18.5052C36.8084 18.5823 36.7074 18.621 36.6065 18.621Z" />
<path fill-rule="evenodd" clip-rule="evenodd" d="M32.7405 23.4459C32.6299 23.4459 32.5207 23.3999 32.443 23.3101C32.4225 23.287 31.1369 21.8194 28.9484 20.3582C26.9365 19.0151 23.7242 17.401 19.8457 17.3366C15.9577 17.4011 12.7385 19.0225 10.7225 20.3717C8.53323 21.8369 7.2613 23.2955 7.24833 23.3101C7.10661 23.474 6.85889 23.4922 6.69456 23.3502C6.53023 23.2082 6.51247 22.9602 6.65432 22.7961C6.70902 22.7332 8.00879 21.2423 10.286 19.7187C12.3907 18.3099 15.7564 16.6169 19.8395 16.5509C19.8437 16.5507 19.8477 16.5508 19.8518 16.5509C23.935 16.6168 27.3007 18.31 29.4054 19.7187C31.682 21.2422 32.9824 22.7333 33.037 22.7961C33.1789 22.9602 33.1611 23.2082 32.9968 23.3502C32.9225 23.4144 32.8311 23.4459 32.7405 23.4459Z" />
<path fill-rule="evenodd" clip-rule="evenodd" d="M19.8457 29.5571C19.8437 29.5571 19.8416 29.5572 19.8395 29.5572C15.7564 29.4911 12.3907 27.7981 10.286 26.3894C8.00892 24.8656 6.70888 23.3747 6.65433 23.312C6.51248 23.1478 6.53021 22.8999 6.69457 22.7579C6.85894 22.6159 7.1065 22.6339 7.24834 22.798C7.26131 22.8125 8.54759 24.2844 10.743 25.7499C12.755 27.0929 15.9671 28.7071 19.8456 28.7715C23.7338 28.7068 26.9528 27.0856 28.9688 25.7364C31.1581 24.2709 32.43 22.8125 32.443 22.798C32.5849 22.6339 32.8324 22.6159 32.9968 22.7579C33.1612 22.8998 33.1788 23.1479 33.037 23.312C32.9825 23.3746 31.6819 24.8657 29.4053 26.3894C27.3008 27.798 23.935 29.4912 19.8518 29.5572C19.8498 29.5571 19.8477 29.5572 19.8457 29.5571Z" />
<path fill-rule="evenodd" clip-rule="evenodd" d="M19.8348 27.7505C18.9447 27.7505 18.0669 27.5173 17.2758 27.0605C14.8248 25.645 13.9811 22.4989 15.3969 20.0472C15.4625 19.9339 15.5313 19.8248 15.6077 19.7136C15.7304 19.5346 15.9746 19.4892 16.1533 19.6119C16.3327 19.7346 16.3776 19.9792 16.2556 20.1582C16.1894 20.2536 16.1328 20.3433 16.0775 20.4401C14.8786 22.5165 15.5926 25.1812 17.6687 26.3801C18.6747 26.9608 19.8463 27.1151 20.9682 26.8144C22.0902 26.5138 23.0279 25.7943 23.6082 24.7884C24.4308 23.3643 24.385 21.6237 23.4902 20.2458C23.4802 20.2304 23.4718 20.2184 23.4623 20.2047L23.4481 20.184C23.3267 20.0045 23.373 19.7602 23.5523 19.6384C23.7318 19.5165 23.9765 19.5631 24.0979 19.7427L24.111 19.7611C24.1233 19.7797 24.1348 19.7962 24.1484 19.8175C25.2062 21.4447 25.2594 23.5 24.2889 25.1813C23.6035 26.3689 22.4959 27.2184 21.1714 27.5734C20.7295 27.6919 20.2801 27.7505 19.8348 27.7505Z" />
<path fill-rule="evenodd" clip-rule="evenodd" d="M19.8416 20.7914C18.8385 20.7914 18.022 21.6079 18.022 22.6113C18.0221 23.6146 18.8383 24.4311 19.8416 24.4311C20.8448 24.431 21.6612 23.6147 21.6612 22.6113C21.6612 21.6078 20.8448 20.7915 19.8416 20.7914ZM19.8416 25.2167C18.4047 25.2167 17.2363 24.048 17.2363 22.6113C17.2364 21.1746 18.4046 20.0059 19.8416 20.0059C21.2779 20.0057 22.4468 21.1747 22.4468 22.6113C22.4469 24.0478 21.2779 25.2168 19.8416 25.2167Z" />
<path fill-rule="evenodd" clip-rule="evenodd" d="M32.7237 23.4273C32.6609 23.4273 32.5974 23.4124 32.5387 23.381C28.4284 21.1902 24.1317 20.0496 19.7696 19.9908C15.5098 20.0481 11.3052 21.1404 7.27453 23.237C7.08151 23.3371 6.84487 23.2623 6.7446 23.0698C6.64448 22.8771 6.71938 22.6401 6.91173 22.54C11.0542 20.3853 15.3788 19.2633 19.7648 19.2051C19.7682 19.205 19.7716 19.2051 19.775 19.2051C24.2654 19.2647 28.684 20.4364 32.9084 22.6877C33.1001 22.7897 33.1723 23.0277 33.07 23.2191C32.9999 23.3518 32.8634 23.4273 32.7237 23.4273Z" />
</symbol>


<symbol id="brushing" width="40" height="40" viewBox="0 0 40 40" fill='none'  xmlns="http://www.w3.org/2000/svg">
<path d="M10.8 19.0746C12.8987 19.0746 14.6 17.3733 14.6 15.2746C14.6 13.1759 12.8987 11.4746 10.8 11.4746C8.70132 11.4746 7 13.1759 7 15.2746C7 17.3733 8.70132 19.0746 10.8 19.0746Z" stroke="#181718" stroke-miterlimit="10" stroke-linecap="round" stroke-linejoin="round"/>
<path d="M26 20.575L10.3 21.575C6.8 21.575 4 18.775 4 15.275C4 12.275 6.2 9.675 9 9.075C9.7 8.975 10.4 8.975 11.1 9.075L26 10.975V20.575Z" stroke="#181718" stroke-miterlimit="10" stroke-linecap="round" stroke-linejoin="round"/>
<path d="M14.9999 21.2754V27.9754C14.9999 29.7754 13.4999 31.2754 11.6999 31.2754C9.89991 31.2754 8.3999 29.7754 8.3999 27.9754V21.3754" stroke="#181718" stroke-miterlimit="10" stroke-linecap="round" stroke-linejoin="round"/>
<path d="M26 20.675L29.8 21.875V9.875L26 11.075V20.675Z" stroke="#181718" stroke-miterlimit="10" stroke-linecap="round" stroke-linejoin="round"/>
<path d="M32.2998 16.0742H36.7998" stroke="#181718" stroke-miterlimit="10" stroke-linecap="round" stroke-linejoin="round"/>
<path d="M32.2998 13.2746L36.0998 10.9746" stroke="#181718" stroke-miterlimit="10" stroke-linecap="round" stroke-linejoin="round"/>
<path d="M36.0998 21.075L32.2998 18.875" stroke="#181718" stroke-miterlimit="10" stroke-linecap="round" stroke-linejoin="round"/>
</symbol>

<symbol id="nailImplant" width="40" height="40" viewBox="0 0 40 40" fill='none'  xmlns="http://www.w3.org/2000/svg">
<path d="M30.7167 22.4402C29.0159 22.4402 27.5986 21.0229 27.5986 19.3221V9.58984H33.8349V19.3221C33.8349 21.0229 32.4175 22.4402 30.7167 22.4402Z" stroke="#181718" stroke-miterlimit="10" stroke-linecap="round" stroke-linejoin="round"/>
<path d="M33.8348 33.2132H24.8584V20.6463C24.8584 15.7329 28.8269 11.6699 33.8348 11.6699V33.2132Z" stroke="#181718" stroke-miterlimit="10" stroke-linecap="round" stroke-linejoin="round"/>
<path d="M12.8583 23.4813C11.1575 23.4813 9.74023 22.0639 9.74023 20.3631V10.6309H15.9765V20.3631C15.9765 22.0639 14.5591 23.4813 12.8583 23.4813Z" stroke="#181718" stroke-miterlimit="10" stroke-linecap="round" stroke-linejoin="round"/>
<path d="M15.9764 33.2127H7V21.8741C7 16.9607 10.9685 12.9922 15.8819 12.9922H15.9764V33.2127Z" stroke="#181718" stroke-miterlimit="10" stroke-linecap="round" stroke-linejoin="round"/>
<path d="M21.8344 18.8504C20.1336 18.8504 18.7163 17.4331 18.7163 15.7323V6H24.9525V15.7323C24.9525 17.4331 23.5352 18.8504 21.8344 18.8504Z" stroke="#181718" stroke-miterlimit="10" stroke-linecap="round" stroke-linejoin="round"/>
<path d="M24.9529 33.2132H15.9766V17.0557C15.9766 12.1423 19.9451 8.17383 24.8584 8.17383H24.9529V33.2132Z" stroke="#181718" stroke-miterlimit="10" stroke-linecap="round" stroke-linejoin="round"/>
</symbol>


<symbol id="chignon" width="40" height="40" viewBox="0 0 40 40"  fill='none'  xmlns="http://www.w3.org/2000/svg">
<path d="M17.2 15.1C17.2 15.1 18.3 22.5 25.1 23.5C31.9 24.5 31.1 30.1 31.1 30.1C31.1 30.1 40 17.8 28.8 9.89999C28.8 9.89999 26.8 4 20.9 4C15 4 12.1 9.89999 12.1 9.89999C12.1 9.89999 6 10.4 6 17C6 23.6 11.4 24.4 11.4 24.4C11.4 24.4 10.3 16.9 17.2 15.1Z" stroke="#181718" stroke-miterlimit="10" stroke-linecap="round" stroke-linejoin="round"/>
<path d="M29.3999 26.4004C29.3999 26.4004 25.2999 35.9004 20.1999 35.9004C16.2428 35.9004 13.1626 30.3258 12.0498 28.0004" stroke="#181718" stroke-miterlimit="10" stroke-linecap="round" stroke-linejoin="round"/>
</symbol>

<symbol id="Makeup" width="40" height="40" viewBox="0 0 40 40" fill='none'   xmlns="http://www.w3.org/2000/svg">
<path d="M26.1999 18.2617C24.0999 18.2617 22.3999 19.9617 22.3999 22.0617V32.1617H29.8999V22.0617C29.9999 19.9617 28.2999 18.2617 26.1999 18.2617Z" stroke="#181718" stroke-miterlimit="10" stroke-linecap="round" stroke-linejoin="round"/>
<path d="M22.5 29.3613H30" stroke="#181718" stroke-miterlimit="10" stroke-linecap="round" stroke-linejoin="round"/>
<path d="M17.9 32.1625H10V21.8625C10 21.1625 10.6 20.5625 11.3 20.5625H16.6C17.3 20.5625 17.9 21.1625 17.9 21.8625V32.1625Z" stroke="#181718" stroke-miterlimit="10" stroke-linecap="round" stroke-linejoin="round"/>
<path d="M10.2002 23.3633H17.8002" stroke="#181718" stroke-miterlimit="10" stroke-linecap="round" stroke-linejoin="round"/>
<path d="M17.0999 14.3633H10.8999V20.5633H17.0999V14.3633Z" stroke="#181718" stroke-miterlimit="10" stroke-linecap="round" stroke-linejoin="round"/>
<path d="M16.0998 14.3626H11.7998V10.1627L15.1998 8.06265C15.5998 7.86265 16.0998 8.16265 16.0998 8.66265V14.3626Z" stroke="#181718" stroke-miterlimit="10" stroke-linecap="round" stroke-linejoin="round"/>
</symbol>


<symbol id="eyelashLift" width="40" height="40" fill='none' viewBox="0 0 40 40"  xmlns="http://www.w3.org/2000/svg">
<path d="M16.6519 18C15.9309 19.648 14.386 20.781 12.429 20.781C10.472 20.781 8.92704 19.648 8.20605 18" stroke="#181718" stroke-miterlimit="10" stroke-linecap="round" stroke-linejoin="round"/>
<path d="M12.4292 20.8848V22.4297" stroke="#181718" stroke-miterlimit="10" stroke-linecap="round" stroke-linejoin="round"/>
<path d="M14.0771 20.5762L14.9012 22.2241" stroke="#181718" stroke-miterlimit="10" stroke-linecap="round" stroke-linejoin="round"/>
<path d="M10.781 20.5762L9.95703 22.2241" stroke="#181718" stroke-miterlimit="10" stroke-linecap="round" stroke-linejoin="round"/>
<path d="M16.0342 19.2363L16.8582 20.8843" stroke="#181718" stroke-miterlimit="10" stroke-linecap="round" stroke-linejoin="round"/>
<path d="M8.824 19.2363L8 20.8843" stroke="#181718" stroke-miterlimit="10" stroke-linecap="round" stroke-linejoin="round"/>
<path d="M32.7198 18C31.9988 19.648 30.4538 20.781 28.4968 20.781C26.5399 20.781 24.9949 19.648 24.2739 18" stroke="#181718" stroke-miterlimit="10" stroke-linecap="round" stroke-linejoin="round"/>
<path d="M28.4971 20.8848V22.4297" stroke="#181718" stroke-miterlimit="10" stroke-linecap="round" stroke-linejoin="round"/>
<path d="M30.145 20.5762L30.969 22.2241" stroke="#181718" stroke-miterlimit="10" stroke-linecap="round" stroke-linejoin="round"/>
<path d="M26.8489 20.5762L26.1279 22.2241" stroke="#181718" stroke-miterlimit="10" stroke-linecap="round" stroke-linejoin="round"/>
<path d="M32.2046 19.2363L32.9256 20.8843" stroke="#181718" stroke-miterlimit="10" stroke-linecap="round" stroke-linejoin="round"/>
<path d="M24.8918 19.2363L24.0679 20.8843" stroke="#181718" stroke-miterlimit="10" stroke-linecap="round" stroke-linejoin="round"/>
</symbol>


<symbol id="CuttingHair" width="40" height="40" viewBox="0 0 40 40" fill='none'   xmlns="http://www.w3.org/2000/svg">
<path d="M15.8 20.6C15.8 20.6 7.39994 14.2 13.1999 5L22.9999 31.4" stroke="#181718" stroke-miterlimit="10" stroke-linecap="round" stroke-linejoin="round"/>
<path d="M27.5999 35.4C30.1957 35.4 32.2999 33.2958 32.2999 30.7C32.2999 28.1043 30.1957 26 27.5999 26C25.0042 26 22.8999 28.1043 22.8999 30.7C22.8999 33.2958 25.0042 35.4 27.5999 35.4Z" stroke="#181718" stroke-miterlimit="10" stroke-linecap="round" stroke-linejoin="round"/>
<path d="M24.5999 20.6C24.5999 20.6 32.9999 14.2 27.1999 5L17.3999 31.4" stroke="#181718" stroke-miterlimit="10" stroke-linecap="round" stroke-linejoin="round"/>
<path d="M12.7 35.4C15.2957 35.4 17.4 33.2958 17.4 30.7C17.4 28.1043 15.2957 26 12.7 26C10.1043 26 8 28.1043 8 30.7C8 33.2958 10.1043 35.4 12.7 35.4Z" stroke="#181718" stroke-miterlimit="10" stroke-linecap="round" stroke-linejoin="round"/>
</symbol>

<symbol id="hairColor" width="40" height="40" viewBox="0 0 40 40" fill='none'   xmlns="http://www.w3.org/2000/svg">
<path d="M32.6 20.707V25.4847C32.6 27.4161 31.1 28.9409 29.2 28.9409V32.6004H11.4V29.0426C9.50002 29.0426 8 27.5178 8 25.5864V20.8087H32.6V20.707Z" stroke="#181718" stroke-miterlimit="10" stroke-linecap="round" stroke-linejoin="round"/>
<path d="M14.2002 29.6523H26.2002" stroke="#181718" stroke-miterlimit="10" stroke-linecap="round" stroke-linejoin="round"/>
<path d="M17.7002 20.706L27.9002 11.049C28.9002 10.1341 30.4002 10.1341 31.3002 11.1506C32.2002 12.1671 32.2002 13.6919 31.2002 14.6068L24.8002 20.706" stroke="#181718" stroke-miterlimit="10" stroke-linecap="round" stroke-linejoin="round"/>
<path d="M14.4004 8V13.6926" stroke="#181718" stroke-miterlimit="10" stroke-linecap="round" stroke-linejoin="round"/>
<path d="M10.7002 10.4395V16.132" stroke="#181718" stroke-miterlimit="10" stroke-linecap="round" stroke-linejoin="round"/>
<path d="M18.1001 10.4395V16.132" stroke="#181718" stroke-miterlimit="10" stroke-linecap="round" stroke-linejoin="round"/>
</symbol>
   
   <symbol id="MicroEyebrow" width="40" height="40" viewBox="0 0 40 40"    xmlns="http://www.w3.org/2000/svg">
<path d="M35.4917 10.5655C31.3491 7.29701 22.95 7.14499 10.4083 10.1474C10.3703 10.1474 7.13987 11.0595 6.41777 9.23527C6.22775 8.81722 5.8477 8.51318 5.39164 8.47517C4.97358 8.47517 4.55552 8.6652 4.32749 9.08325C3.33936 10.9835 2.00918 14.974 4.13747 20.3708C4.59353 21.5109 5.23962 22.271 6.11373 22.6131C6.53179 22.7651 6.94984 22.8411 7.44391 22.8411C9.23015 22.8411 11.5105 21.777 14.3988 20.4468C16.2991 19.5727 18.4274 18.5845 20.7837 17.7104L21.3538 19.1926C16.7552 20.3708 12.4226 22.7271 8.05199 26.3376C7.89997 26.4896 7.86197 26.7176 8.01399 26.8696C8.09 26.9456 8.20401 27.0217 8.31803 27.0217C8.39404 27.0217 8.50805 26.9836 8.54606 26.9456C12.8406 23.3732 17.1352 21.0929 21.6198 19.9147L25.8004 30.5941C26.0284 31.2022 26.5985 31.5823 27.2066 31.5823C27.3966 31.5823 27.5866 31.5443 27.7386 31.4682C28.1187 31.3162 28.4227 31.0502 28.5747 30.6701C28.7268 30.2901 28.7648 29.872 28.6127 29.492L24.6602 19.3446C28.0807 18.8886 31.6532 19.0406 35.6057 19.8007C35.6437 19.8007 35.6437 19.8007 35.6817 19.8007C35.8717 19.8007 36.0237 19.6867 36.0617 19.4966C36.0997 19.3066 35.9857 19.0786 35.7577 19.0406C31.6912 18.2045 27.9667 18.0905 24.3942 18.5845L23.7101 16.7603C28.3467 15.4681 32.7173 15.2401 37.0879 16.1142C37.3159 16.1522 37.5439 16.1142 37.734 15.9622C37.924 15.8102 38 15.6201 38 15.3921C37.962 14.518 37.734 12.3137 35.4917 10.5655ZM27.8906 30.3661C27.8146 30.5561 27.6626 30.7081 27.4726 30.7842C27.0925 30.9362 26.6365 30.7462 26.4845 30.3661L21.3538 17.1023L20.7077 15.4681L22.1139 14.936L27.8906 29.834C27.9667 29.986 27.9667 30.1761 27.8906 30.3661ZM20.4797 14.708L20.6317 13.1118L21.8098 14.1759L20.4797 14.708ZM23.406 16.0762L22.722 14.2899L22.5699 13.9479C22.5319 13.9099 22.5319 13.8339 22.4559 13.7959L20.5557 12.0857C20.4417 11.9716 20.2896 11.9716 20.1756 12.0096C20.0236 12.0476 19.9476 12.1997 19.9476 12.3137L19.7196 14.86C19.7196 14.936 19.7196 14.974 19.7576 15.0501L19.9096 15.3921L20.5557 17.0263C18.1613 17.9004 16.0331 18.8886 14.1328 19.7627C10.7504 21.3209 8.09 22.5751 6.45578 21.929C5.77169 21.6629 5.27762 21.0549 4.89757 20.1427C2.8833 15.012 4.13747 11.2495 5.04959 9.50131C5.16361 9.31128 5.31563 9.31128 5.39164 9.31128C5.50565 9.31128 5.69568 9.38729 5.77169 9.57732C6.75982 12.0096 10.5223 10.9835 10.6743 10.9075C25.9524 7.29701 32.4133 9.08325 35.1116 11.2115C37.0879 12.7697 37.2779 14.67 37.2779 15.4301C32.6793 14.518 28.1947 14.746 23.406 16.0762Z" />
</symbol>



<symbol id="SkinAndBeauty" width="40" height="40" viewBox="0 0 40 40" fill='none'   xmlns="http://www.w3.org/2000/svg">
<path d="M27.5 31.4L25.7 30.9L26.2 32.7C24.4 34.3 22.3 35.3 20 35.3C17.8 35.3 15.7 34.3 13.8 32.7L14.3 30.9L12.5 31.4C9.2 27.8 7 22.2 7 17.9C7 15.3 7.80001 12.8 9.20001 10.7L12.4 11.6L11.5 8.2C13.8 6.2 16.8 5 20.1 5C23.4 5 26.4 6.2 28.7 8.2L27.8 11.6L31 10.7C32.4 12.8 33.2 15.2 33.2 17.9C33 22.2 30.9 27.7 27.5 31.4Z" stroke="#181718" stroke-miterlimit="10" stroke-linecap="round" stroke-linejoin="round"/>
<path d="M14.5998 21.6992C16.4224 21.6992 17.8998 20.8038 17.8998 19.6992C17.8998 18.5946 16.4224 17.6992 14.5998 17.6992C12.7773 17.6992 11.2998 18.5946 11.2998 19.6992C11.2998 20.8038 12.7773 21.6992 14.5998 21.6992Z" stroke="#181718" stroke-miterlimit="10" stroke-linecap="round" stroke-linejoin="round"/>
<path d="M25.4997 21.6992C27.3222 21.6992 28.7997 20.8038 28.7997 19.6992C28.7997 18.5946 27.3222 17.6992 25.4997 17.6992C23.6772 17.6992 22.1997 18.5946 22.1997 19.6992C22.1997 20.8038 23.6772 21.6992 25.4997 21.6992Z" stroke="#181718" stroke-miterlimit="10" stroke-linecap="round" stroke-linejoin="round"/>
<path d="M20 29.6C21.6569 29.6 23 29.018 23 28.3C23 27.582 21.6569 27 20 27C18.3431 27 17 27.582 17 28.3C17 29.018 18.3431 29.6 20 29.6Z" stroke="#181718" stroke-miterlimit="10" stroke-linecap="round" stroke-linejoin="round"/>
</symbol>

<symbol id="HairExtensions" width="40" height="40" viewBox="0 0 40 40"    xmlns="http://www.w3.org/2000/svg">
<path fill-rule="evenodd" clip-rule="evenodd" d="M9.24332 29.1592C9.21211 29.206 9.17381 29.2572 9.13408 29.3069C8.83473 29.6903 8.55951 30.3806 8.37079 31.1901C8.10691 32.3263 8.00052 33.7011 8.14096 34.6812C8.42045 36.6383 10.0349 36.9848 10.0349 36.9848C10.2265 37.0303 10.4293 36.972 10.5684 36.8328C10.7074 36.6937 10.7642 36.4906 10.7174 36.2988C10.7174 36.2988 10.5386 35.5745 10.5812 34.951C10.5897 34.8217 10.6081 34.6968 10.6464 34.5902C10.6606 34.5519 10.6578 34.5036 10.6947 34.4965C11.4097 34.3303 12.3716 34.1869 12.9136 33.8829C13.3137 33.6585 13.5407 33.3461 13.5818 32.9797C13.6187 32.6587 13.5562 32.342 13.4896 32.011C13.4286 31.7085 13.3534 31.3847 13.5335 30.9913C13.7038 30.6192 14.0102 30.3394 14.3408 30.0312C14.7579 29.6434 15.2147 29.2287 15.6063 28.6606C15.8645 28.2871 16.0362 27.55 16.0915 26.6566C16.205 24.7805 15.873 22.1773 15.4943 21.3646C15.1509 20.6261 14.531 18.419 14.3749 16.7758C14.338 16.398 14.3196 16.0543 14.3437 15.7788C14.6459 15.8043 15.0417 15.793 15.4929 15.668C16.2306 15.4606 16.4462 15.347 17.2067 15.3996C18.1346 15.4635 18.6169 15.5728 19.3234 15.3797C19.5958 15.3058 19.7831 15.232 19.9505 15.1737C20.108 15.1198 20.2371 15.0914 20.4783 15.1283C21.1111 15.222 21.2061 15.1326 22.2177 15.134C22.6248 15.1354 22.8547 15.0601 23.0207 14.9863C23.0731 14.9635 23.1427 14.9266 23.1824 14.9067C23.2462 14.9266 23.4392 14.9891 23.6336 15.08C24.167 15.3314 24.3174 15.4919 24.4578 15.5728C24.5969 15.6552 24.7274 15.712 25.0054 15.7177C25.0693 16.8127 25.153 19.2542 24.726 20.4585C24.3713 21.4556 23.6917 22.8588 23.286 24.1809C22.9824 25.1652 22.8405 26.1125 23.0107 26.8596C23.2973 28.1094 24.4039 29.8109 25.4141 30.8077C25.9078 31.2935 26.393 31.613 26.759 31.7082C26.8016 31.7196 26.847 31.7338 26.8867 31.748C26.881 31.819 26.8739 31.9099 26.8711 31.988C26.8583 32.2465 26.8711 32.5703 27.003 32.9879C27.1917 33.5872 27.1591 33.7619 27.179 33.9494C27.1974 34.1354 27.2385 34.3343 27.4372 34.7319C27.6429 35.1395 28.0855 35.4648 28.6743 35.6792C29.3581 35.9306 30.2505 36.0528 30.9868 36.1465C31.4209 36.2005 31.6636 36.0627 31.7955 35.9264C31.9686 35.7489 32.0636 35.4747 31.9516 35.1083C31.8608 34.8157 31.5671 34.3669 31.2819 33.9124C31.089 33.6057 30.8761 33.3074 30.8719 33.0731C30.862 32.6271 30.9712 32.434 31.0294 32.2152C31.0946 31.978 31.1315 31.7238 31.0634 31.3205C30.9925 30.91 30.7087 30.545 30.3243 30.2127C30.1228 30.038 29.8958 29.8689 29.6957 29.6872C29.561 29.5636 29.4333 29.4386 29.3723 29.2866C29.2616 29.0125 29.3921 28.6731 29.5099 28.2939C29.683 27.7357 29.9043 27.125 29.9639 26.5143C30.0802 25.3184 29.7099 23.046 29.3936 21.9113C29.2105 21.2579 28.9765 13.9792 26.9037 8.9941C26.0156 6.86086 24.7827 5.14225 23.1384 4.40526C22.0346 3.90958 20.7408 3.8329 19.2199 4.37544C18.5304 4.25188 15.9767 3.96073 13.735 5.86102C12.068 7.27417 10.5371 9.9372 10.2066 14.9365C10.1924 15.0771 9.95405 17.6066 9.466 19.565C9.27021 20.3475 9.05315 21.0378 8.76939 21.3886C8.28703 21.9879 8.04017 23.0844 8.00468 24.2689C7.95503 25.9562 8.30829 27.8025 8.68709 28.4429C8.8772 28.7639 9.0971 29.0124 9.24038 29.1573L9.24332 29.1592ZM30.5767 34.9467C30.0602 34.8743 29.514 34.7763 29.07 34.6144C28.7948 34.515 28.5536 34.4127 28.4585 34.2238C28.2939 33.8943 28.3138 33.8176 28.301 33.6302C28.2869 33.4356 28.2528 33.1643 28.0911 32.6502C27.9449 32.1829 28.0315 31.8889 28.0372 31.6858C28.0442 31.4572 28.0003 31.2754 27.8939 31.1135C27.7789 30.9345 27.5605 30.7428 27.0483 30.6121C26.7192 30.5269 26.2893 30.115 25.8396 29.5981C25.0834 28.7317 24.3343 27.533 24.1229 26.6098C23.9895 26.0261 24.1399 25.289 24.3754 24.5192C24.7769 23.2125 25.4522 21.8278 25.8012 20.8422C26.4113 19.118 26.1049 15.0761 26.1049 15.0761C26.0921 14.9227 26.0183 14.7821 25.9006 14.6841C25.7828 14.5861 25.6296 14.5392 25.4778 14.5563C25.2607 14.5804 25.0734 14.5861 25.0266 14.5875L24.8663 14.4767C24.7187 14.3731 24.5017 14.2339 24.1229 14.0549C23.2787 13.6558 23.0007 13.7496 22.7694 13.849C22.6601 13.8973 22.5679 14.0009 22.226 13.9995C21.3095 13.9981 21.2244 14.0918 20.6512 14.0066C19.9504 13.9015 19.7801 14.0805 19.0311 14.285C18.4494 14.4441 18.0535 14.3205 17.2917 14.2665C16.3638 14.2012 16.0957 14.3219 15.1948 14.5747C14.5833 14.7452 14.1435 14.5918 14.1435 14.5918C13.8683 14.4852 13.5576 14.606 13.4285 14.8716C13.227 15.2849 13.1689 16.0206 13.2497 16.8841C13.4171 18.6608 14.0981 21.0483 14.4713 21.8463C14.7607 22.4684 14.9848 24.2707 14.9848 25.8272C14.9848 26.4451 14.948 27.026 14.8572 27.4776C14.8118 27.7063 14.7607 27.8951 14.677 28.0173C14.2613 28.6195 13.7548 29.0186 13.3377 29.4234C12.9901 29.7614 12.6964 30.1051 12.5063 30.5198C12.2467 31.0851 12.2623 31.568 12.3389 32.0154C12.3871 32.2966 12.4808 32.5551 12.4609 32.8206C12.4226 32.8462 12.2935 32.9314 12.1914 32.9712C11.6962 33.1672 10.9869 33.2623 10.4421 33.3887C9.9455 33.5038 9.63337 33.8986 9.50854 34.4539C9.46314 34.657 9.44611 34.8857 9.44611 35.1158C9.36383 34.9553 9.29857 34.7579 9.26594 34.5221C9.14251 33.6572 9.24608 32.4485 9.47875 31.4472C9.62062 30.8337 9.80222 30.2982 10.0292 30.0071C10.6535 29.2089 10.5087 28.8979 10.3016 28.6209C10.198 28.4817 9.94266 28.3312 9.66884 27.8668C9.34537 27.32 9.10135 25.7392 9.14392 24.3047C9.16946 23.4071 9.29289 22.5578 9.65751 22.1033C10.0122 21.6645 10.3286 20.8194 10.5712 19.8423C11.0918 17.753 11.3415 15.036 11.3415 15.036C11.343 15.0317 11.343 15.0275 11.343 15.0218C11.6423 10.4697 12.9561 8.01838 14.4727 6.73164C16.632 4.90236 19.1347 5.51875 19.1347 5.51875C19.2467 5.54574 19.3645 5.53863 19.4737 5.49887C22.6829 4.27601 24.6151 6.44048 25.8609 9.43433C27.9123 14.3682 28.1238 21.5749 28.3054 22.2224C28.5934 23.2549 28.9438 25.3214 28.8388 26.4095C28.7764 27.0642 28.487 27.7176 28.3352 28.2914C28.1933 28.8268 28.1635 29.3125 28.3267 29.7145C28.5111 30.1718 28.9523 30.5524 29.3907 30.9103C29.5468 31.0382 29.6986 31.1617 29.8178 31.2952C29.8802 31.3663 29.9369 31.433 29.9511 31.5154C30.005 31.8307 29.9256 31.9699 29.8646 32.1687C29.7965 32.396 29.7341 32.6672 29.7426 33.1018C29.7497 33.4228 29.9213 33.8432 30.1696 34.2636C30.2874 34.4638 30.442 34.7237 30.5754 34.9482L30.5767 34.9467ZM26.2608 21.923C26.2608 21.923 26.0367 22.6488 25.9459 23.6728C25.926 23.9 25.9203 24.1386 25.9274 24.3872C25.9303 24.5434 25.9416 24.7039 25.9629 24.8658C25.9842 25.0235 26.0168 25.1825 26.0565 25.3402C26.1161 25.5774 26.1885 25.8103 26.2807 26.0361C26.5247 26.634 26.8453 27.1695 27.2696 27.5913C27.3447 27.6907 27.4866 27.712 27.5859 27.6367C27.6852 27.5629 27.7065 27.4209 27.6313 27.3214C27.3873 26.8641 27.2908 26.3358 27.2085 25.7847C27.1646 25.4865 27.1433 25.1868 27.1092 24.89C27.0865 24.6854 27.0553 24.4852 27.0269 24.2906C26.9787 23.9654 26.9276 23.66 26.8865 23.3774C26.7687 22.5522 26.712 21.9742 26.712 21.9742C26.7262 21.8506 26.6354 21.7384 26.5119 21.7242C26.3885 21.71 26.2764 21.7995 26.2622 21.9245L26.2608 21.923ZM12.3828 18.6479C12.3828 18.6479 12.4012 19.2473 12.3062 20.1222C12.2735 20.4176 12.221 20.7371 12.1615 21.0822C12.1104 21.3805 12.0423 21.6915 11.9699 22.0139C11.926 22.2156 11.8848 22.4201 11.8337 22.6275C11.7302 23.0408 11.6082 23.4598 11.4223 23.8731C11.2435 24.2708 11.0407 24.6627 10.7526 25.0348C10.6647 25.1229 10.6647 25.2649 10.7526 25.3544C10.8406 25.4425 10.9839 25.4425 11.0733 25.3544C11.5102 25.0164 11.8649 24.6372 12.1685 24.2253C12.3842 23.9327 12.5615 23.6259 12.7105 23.3078C12.8765 22.9542 13.0027 22.5934 13.085 22.2327C13.1318 22.0324 13.1588 21.8321 13.1787 21.6376C13.2099 21.3251 13.2212 21.0255 13.2084 20.74C13.1545 19.4575 12.8268 18.557 12.8268 18.557C12.8013 18.4349 12.6821 18.3553 12.5601 18.3795C12.4381 18.4051 12.3586 18.5244 12.3842 18.6465L12.3828 18.6479ZM16.8715 6.11979C16.8715 6.11979 16.1082 6.81286 15.2981 8.06982C15.1265 8.33541 14.9619 8.62942 14.8044 8.94614C14.7065 9.14213 14.6129 9.34667 14.5292 9.56111C14.4497 9.76563 14.3788 9.97865 14.3164 10.2002C14.227 10.5169 14.1518 10.845 14.0965 11.1873C13.9688 11.9798 13.9305 12.8163 14 13.6955C13.9972 13.8204 14.0951 13.9241 14.2199 13.927C14.3447 13.9298 14.4483 13.8318 14.4512 13.7068C14.5263 13.1671 14.6526 12.6615 14.7917 12.1672C14.9378 11.6474 15.1151 11.1603 15.2967 10.693C15.3903 10.4572 15.4854 10.2286 15.5734 10.0028C15.7152 9.63635 15.8486 9.28695 15.9834 8.9603C16.1394 8.58108 16.2856 8.23171 16.4289 7.92349C16.8644 6.97759 17.2149 6.4109 17.2149 6.4109C17.2943 6.31574 17.2815 6.17229 17.1865 6.09134C17.0914 6.0118 16.9496 6.02317 16.8687 6.11832L16.8715 6.11979ZM17.3411 13.1218C17.344 12.9456 17.5085 12.423 17.7242 11.7327C17.7937 11.5083 17.8689 11.274 17.9427 11.0255C18.0122 10.7954 18.0874 10.561 18.1498 10.3196C18.2321 10.0043 18.2988 9.68331 18.3725 9.37226C18.452 9.04276 18.5172 8.72748 18.6052 8.43773C18.7386 7.99605 18.8648 7.6225 19.0606 7.38959C19.1543 7.30579 19.1613 7.16234 19.0776 7.07002C18.9954 6.97629 18.8521 6.96919 18.7584 7.05298C18.337 7.33987 17.9185 7.94206 17.5483 8.69196C17.4362 8.92204 17.334 9.16633 17.2418 9.41772C17.1822 9.57963 17.1283 9.7458 17.0843 9.9134C17.0404 10.081 17.0049 10.2514 16.9751 10.4204C16.9283 10.6846 16.8928 10.9402 16.8715 11.1902C16.7878 12.1759 16.8318 12.9655 16.8914 13.1843C16.9084 13.3078 17.0219 13.3945 17.1453 13.3788C17.2688 13.3618 17.3553 13.2482 17.3397 13.1246L17.3411 13.1218ZM20.9475 6.35576C20.9475 6.35576 21.3192 6.85428 21.8016 7.69933C21.9591 7.97628 22.1208 8.28874 22.2982 8.6296C22.4486 8.92217 22.599 9.23606 22.7607 9.56413C22.86 9.76581 22.9678 9.97033 23.0728 10.1834C23.2799 10.6009 23.4842 11.0384 23.6616 11.5099C23.829 11.9601 23.9879 12.4188 24.1014 12.9173C24.1141 13.0409 24.2248 13.1318 24.3482 13.119C24.4717 13.1062 24.5625 12.9955 24.5497 12.8719C24.5582 12.0396 24.4674 11.2613 24.2915 10.5285C24.2149 10.2103 24.1198 9.90783 24.012 9.61808C23.9368 9.41641 23.8559 9.22039 23.7651 9.03576C23.6701 8.83977 23.5637 8.65796 23.4558 8.48187C23.2813 8.19782 23.1012 7.93791 22.9181 7.705C22.0471 6.60002 21.2625 6.03191 21.2625 6.03191C21.1731 5.94386 21.0298 5.9467 20.9433 6.03475C20.8553 6.12423 20.8581 6.26768 20.9461 6.35573L20.9475 6.35576ZM21.6172 12.8647H21.6186C21.7293 12.8647 21.8541 12.6275 21.8655 12.5934C21.9024 12.4798 21.9648 12.2554 22.0244 11.9174C22.0641 11.6987 22.0953 11.4487 22.1081 11.1518C22.1166 10.9601 22.1095 10.7556 22.0911 10.5369C22.0797 10.4034 22.0613 10.2684 22.0315 10.1307C22.0045 10 21.9662 9.86792 21.9208 9.73585C21.8555 9.54696 21.7803 9.35805 21.6853 9.16633C21.4711 8.73457 21.2029 8.31703 20.8653 7.88243C20.8071 7.77165 20.6695 7.73046 20.5602 7.7887C20.4496 7.84693 20.4084 7.98469 20.4666 8.09405C20.5659 8.41219 20.6241 8.71044 20.6879 9.01153C20.7418 9.26433 20.7745 9.50295 20.8156 9.73586C20.861 9.98725 20.8922 10.2259 20.939 10.4488C21.0057 10.7613 21.0866 11.0397 21.1433 11.2953C21.271 11.8648 21.3562 12.2696 21.3774 12.4784C21.3845 12.538 21.3406 12.8647 21.6158 12.8647L21.6172 12.8647Z" />
</symbol>

<symbol id="HairTexture" width="40" height="40" viewBox="0 0 40 40"   xmlns="http://www.w3.org/2000/svg">
<path d="M28.7466 14.0001C28.6359 14 28.5283 13.9632 28.4407 13.8953C28.3531 13.8275 28.2905 13.7325 28.2628 13.6253C28.222 13.4669 28.1762 13.3107 28.1253 13.1568C28.1047 13.0944 28.0966 13.0286 28.1015 12.9632C28.1063 12.8977 28.124 12.8338 28.1535 12.7751C28.1831 12.7165 28.2239 12.6642 28.2736 12.6213C28.3234 12.5785 28.381 12.5458 28.4434 12.5252C28.5058 12.5046 28.5716 12.4965 28.6371 12.5014C28.7025 12.5062 28.7664 12.5239 28.8251 12.5534C28.8837 12.583 28.936 12.6238 28.9789 12.6735C29.0218 12.7233 29.0544 12.7809 29.075 12.8433C29.1326 13.0181 29.1846 13.1953 29.231 13.3748C29.2642 13.5032 29.245 13.6395 29.1777 13.7538C29.1104 13.868 29.0005 13.9509 28.8721 13.9842C28.8311 13.9947 28.789 14 28.7466 14.0001Z" />
<path d="M27.6114 11.499C27.5299 11.4991 27.4497 11.4794 27.3776 11.4414C27.3056 11.4034 27.2439 11.3483 27.198 11.281C26.0762 9.64282 24.3551 8.51159 22.4063 8.13155C22.2764 8.10636 22.1618 8.0307 22.0876 7.92117C22.0133 7.81163 21.9855 7.67714 22.0103 7.54716C22.035 7.41718 22.1103 7.3023 22.2196 7.2277C22.3288 7.15309 22.4632 7.12484 22.5933 7.14912C24.8016 7.57942 26.7521 8.86094 28.0237 10.717C28.075 10.7921 28.1048 10.8797 28.11 10.9705C28.1152 11.0613 28.0955 11.1518 28.0531 11.2322C28.0107 11.3126 27.9471 11.38 27.8693 11.427C27.7915 11.474 27.7023 11.4989 27.6114 11.499Z" />
<path d="M31.4798 28.6265C31.6323 28.4966 31.7569 28.337 31.8459 28.1575C31.9349 27.978 31.9866 27.7823 31.9977 27.5823C32.0089 27.3822 31.9793 27.182 31.9108 26.9937C31.8422 26.8054 31.7362 26.633 31.5991 26.4869C31.8657 25.8585 32.0021 25.1826 32 24.5C32.0159 23.5185 31.7284 22.5561 31.1769 21.7441C31.7263 20.9355 32.0137 19.9775 32 19C32.0059 18.2331 31.8348 17.4752 31.5 16.7852V15.5C31.4969 12.7162 30.3896 10.0473 28.4212 8.07883C26.4527 6.11037 23.7838 5.00312 21 5H19C16.2162 5.00312 13.5473 6.11037 11.5788 8.07883C9.61037 10.0473 8.50312 12.7162 8.5 15.5V16.7852C8.1652 17.4752 7.9941 18.2331 8 19C7.98633 19.9775 8.27368 20.9355 8.82306 21.7441C8.27156 22.5561 7.98413 23.5185 8 24.5C7.99793 25.1826 8.13431 25.8585 8.40091 26.4869C8.26387 26.6329 8.15788 26.8052 8.08936 26.9934C8.02083 27.1816 7.9912 27.3817 8.00226 27.5816C8.01331 27.7816 8.06482 27.9772 8.15367 28.1566C8.24252 28.3361 8.36686 28.4957 8.51917 28.6257C8.05179 28.9456 7.66928 29.3745 7.40462 29.8752C7.13995 30.376 7.00109 30.9336 7 31.5V34.5C7 34.6326 7.05268 34.7598 7.14645 34.8536C7.24021 34.9473 7.36739 35 7.5 35H9.5C10.0203 34.9994 10.5338 34.8819 11.0027 34.6562C11.4701 34.8804 11.9816 34.9979 12.5 35H14.5C14.6326 35 14.7598 34.9473 14.8536 34.8536C14.9473 34.7598 15 34.6326 15 34.5V31.5C14.9983 30.9337 14.8592 30.3763 14.5947 29.8756C14.3302 29.3749 13.9482 28.9458 13.4814 28.6252C13.6336 28.4951 13.7578 28.3356 13.8466 28.1561C13.9353 27.9767 13.9868 27.7811 13.9978 27.5812C14.0088 27.3814 13.9791 27.1813 13.9106 26.9932C13.8421 26.8051 13.7361 26.6329 13.5991 26.4869C13.8657 25.8585 14.0021 25.1826 14 24.5C14.0159 23.5185 13.7284 22.5561 13.1769 21.7441C13.7263 20.9355 14.0137 19.9775 14 19C14 18.8192 13.99 18.6395 13.9721 18.4618C15.9535 18.1972 18.4472 17.3647 20 15.0015C21.5529 17.3649 24.0464 18.1969 26.0279 18.4615C26.0096 18.6404 26.0003 18.8201 26 19C25.9863 19.9775 26.2737 20.9355 26.8231 21.7441C26.2716 22.5561 25.9841 23.5185 26 24.5C25.9979 25.1826 26.1343 25.8585 26.4009 26.4869C26.2639 26.6329 26.1579 26.8051 26.0894 26.9932C26.0209 27.1813 25.9912 27.3814 26.0022 27.5812C26.0132 27.7811 26.0647 27.9767 26.1534 28.1561C26.2422 28.3356 26.3664 28.4951 26.5186 28.6252C26.0518 28.9458 25.6698 29.3749 25.4053 29.8756C25.1408 30.3763 25.0017 30.9337 25 31.5V34.5C25 34.6326 25.0527 34.7598 25.1464 34.8536C25.2402 34.9473 25.3674 35 25.5 35H27.5C28.0206 35.0002 28.5346 34.8839 29.0044 34.6596C29.4713 34.8831 29.9823 34.9994 30.5 35H32.5C32.6326 35 32.7598 34.9473 32.8536 34.8536C32.9473 34.7598 33 34.6326 33 34.5V31.5C32.9988 30.9336 32.8597 30.3761 32.5949 29.8755C32.33 29.3748 31.9473 28.9462 31.4798 28.6265ZM9.5 27H12.5C12.6326 27 12.7598 27.0527 12.8536 27.1464C12.9473 27.2402 13 27.3674 13 27.5C13 27.6326 12.9473 27.7598 12.8536 27.8536C12.7598 27.9473 12.6326 28 12.5 28H9.5C9.36739 28 9.24021 27.9473 9.14645 27.8536C9.05268 27.7598 9 27.6326 9 27.5C9 27.3674 9.05268 27.2402 9.14645 27.1464C9.24021 27.0527 9.36739 27 9.5 27ZM9 24.5C8.99145 23.7923 9.17497 23.0956 9.531 22.4839C9.94775 22.818 10.4659 23 11 23C11.5341 23 12.0523 22.818 12.4691 22.4839C12.8251 23.0956 13.0086 23.7923 13 24.5C13.0026 25.0208 12.9055 25.5373 12.7139 26.0216C12.6432 26.0092 12.5717 26.002 12.5 26H9.5C9.42828 26.002 9.35681 26.0092 9.28614 26.0216C9.09453 25.5373 8.9974 25.0208 9 24.5ZM12 31.5C11.9992 32.1628 11.7356 32.7982 11.2669 33.2669C10.7982 33.7356 10.1628 33.9992 9.5 34H8V31.5C8.00078 30.8372 8.26442 30.2018 8.73309 29.7331C9.20176 29.2644 9.8372 29.0008 10.5 29H12V31.5ZM14 31.5V34H12.5C12.332 33.9983 12.1646 33.9797 12.0004 33.9444C12.6412 33.2922 13.0002 32.4144 13 31.5V29.501C13.3101 29.734 13.5618 30.0359 13.7354 30.3828C13.9089 30.7297 13.9995 31.1121 14 31.5ZM27.7161 18.5735C28.1706 18.5773 28.6249 18.5508 29.0759 18.4942C29.1409 18.4842 29.2032 18.4616 29.2594 18.4276C29.3156 18.3936 29.3646 18.3488 29.4035 18.2959C29.4424 18.2429 29.4704 18.1828 29.4861 18.119C29.5017 18.0552 29.5047 17.9889 29.4947 17.924C29.4847 17.8591 29.462 17.7967 29.4279 17.7406C29.3939 17.6844 29.349 17.6355 29.296 17.5967C29.243 17.5578 29.1829 17.5298 29.1191 17.5143C29.0553 17.4987 28.989 17.4958 28.9241 17.5059C28.8616 17.5149 22.7576 18.3967 20.4473 13.7764C20.4011 13.6989 20.3356 13.6348 20.2572 13.5902C20.1788 13.5456 20.0902 13.5222 20 13.5222C19.9098 13.5222 19.8212 13.5456 19.7428 13.5902C19.6644 13.6348 19.5989 13.6989 19.5527 13.7764C17.2488 18.385 11.1372 17.5151 11.0754 17.5056C10.9444 17.4856 10.8107 17.5184 10.7038 17.5969C10.5969 17.6754 10.5256 17.7931 10.5055 17.9242C10.4854 18.0553 10.5183 18.189 10.5968 18.2958C10.6752 18.4027 10.793 18.4741 10.9241 18.4941C11.6052 18.5759 12.2923 18.5961 12.9771 18.5543C12.9923 18.7024 12.9999 18.8512 13 19C13 20.6262 12.0842 22 11 22C9.91577 22 9 20.6262 9 19C8.9927 18.354 9.14411 17.7161 9.44092 17.1423C9.47972 17.0698 9.50002 16.9888 9.5 16.9065V15.5C9.50286 12.9813 10.5047 10.5666 12.2856 8.78565C14.0666 7.00467 16.4813 6.00286 19 6H21C23.5187 6.00286 25.9334 7.00467 27.7144 8.78565C29.4953 10.5666 30.4971 12.9813 30.5 15.5V16.9065C30.5 16.9888 30.5203 17.0698 30.5591 17.1423C30.8559 17.7161 31.0073 18.354 31 19C31 20.6262 30.0842 22 29 22C27.9158 22 27 20.6262 27 19C27.0001 18.8509 27.0078 18.7019 27.023 18.5536C27.2695 18.5666 27.5041 18.5735 27.7161 18.5735ZM30.7139 26.0216C30.6432 26.0092 30.5717 26.002 30.5 26H27.5C27.4283 26.002 27.3568 26.0092 27.2861 26.0216C27.0945 25.5373 26.9974 25.0208 27 24.5C26.9915 23.7923 27.175 23.0956 27.531 22.4839C27.9478 22.818 28.4659 23 29 23C29.5341 23 30.0523 22.818 30.469 22.4839C30.8251 23.0956 31.0086 23.7923 31 24.5C31.0026 25.0208 30.9055 25.5373 30.7139 26.0216ZM31 27.5C30.9998 27.6326 30.9471 27.7596 30.8534 27.8534C30.7596 27.9471 30.6326 27.9998 30.5 28H27.5C27.3674 28 27.2402 27.9473 27.1464 27.8536C27.0527 27.7598 27 27.6326 27 27.5C27 27.3674 27.0527 27.2402 27.1464 27.1464C27.2402 27.0527 27.3674 27 27.5 27H30.5C30.6326 27.0002 30.7596 27.0529 30.8534 27.1466C30.9471 27.2404 30.9998 27.3674 31 27.5ZM27.5 34H26V31.5C26.0005 31.1121 26.0911 30.7297 26.2646 30.3828C26.4382 30.0359 26.6899 29.734 27 29.501V31.5C26.9998 32.4158 27.3598 33.2949 28.0024 33.9474C27.8371 33.9818 27.6688 33.9994 27.5 34ZM32 34H30.5C29.8372 33.9992 29.2018 33.7356 28.7331 33.2669C28.2644 32.7982 28.0008 32.1628 28 31.5V29H29.5C30.1628 29.0008 30.7982 29.2644 31.2669 29.7331C31.7356 30.2018 31.9992 30.8372 32 31.5V34Z" />
</symbol>

<symbol id="hairStraightener" width="40" height="40" viewBox="0 0 40 40" fill='none'  xmlns="http://www.w3.org/2000/svg">
<path d="M15.9786 28.5907L10.2207 9.30628C9.39814 6.65581 10.9519 3.82256 13.6023 3L19.9086 24.2037" stroke="#181718" stroke-miterlimit="10" stroke-linecap="round" stroke-linejoin="round"/>
<path d="M20.0913 24.2037L26.3976 3C29.0481 3.82256 30.6018 6.65581 29.7792 9.30628L24.0213 28.7735C24.0213 28.7735 23.9299 29.2305 23.7471 29.5961C23.5643 30.053 23.3815 30.51 23.1073 30.8756C22.559 31.6068 21.8278 32.0637 20.9139 32.2465C20.2741 32.4293 19.6343 32.4293 19.086 32.2465C18.3548 32.0637 17.715 31.6981 17.1666 31.1498C16.7097 30.6928 16.4355 30.053 16.2527 29.4133C16.1613 29.0477 15.9785 28.5907 15.9785 28.5907C15.9785 28.4993 15.9785 28.3165 15.9785 28.2251C15.9785 26.0316 17.8064 24.2037 19.9999 24.2037" stroke="#181718" stroke-miterlimit="10" stroke-linecap="round" stroke-linejoin="round"/>
<path d="M20.0913 32.3379V36.9991" stroke="#181718" stroke-miterlimit="10" stroke-linecap="round" stroke-linejoin="round"/>
<path d="M20.0913 29.8711C20.9494 29.8711 21.645 29.1755 21.645 28.3174C21.645 27.4593 20.9494 26.7637 20.0913 26.7637C19.2332 26.7637 18.5376 27.4593 18.5376 28.3174C18.5376 29.1755 19.2332 29.8711 20.0913 29.8711Z" stroke="#181718" stroke-miterlimit="10" stroke-linecap="round" stroke-linejoin="round"/>
</symbol>

<svg id="manicure" width="40" height="40" viewBox="0 0 40 40" fill='none'  xmlns="http://www.w3.org/2000/svg">
<path d="M29.1886 17.7227C29.2854 18.0129 29.2854 18.3999 29.2854 18.6902C29.2854 20.5284 28.6082 22.4635 27.1569 23.818L18.3525 32.6223" stroke="#181718" stroke-miterlimit="10" stroke-linecap="round" stroke-linejoin="round"/>
<path d="M8 22.2706L16.8044 13.4662C18.4491 11.8214 20.7711 11.1442 22.8997 11.4344" stroke="#181718" stroke-miterlimit="10" stroke-linecap="round" stroke-linejoin="round"/>
<path d="M31.5104 15.3047L25.8988 20.9163C25.415 21.4 24.8345 21.6903 24.1573 21.787C23.093 21.9805 22.0287 21.6903 21.2547 20.9163L19.61 19.2715C18.8359 18.4975 18.5457 17.4332 18.7392 16.369C18.836 15.6917 19.1262 15.1112 19.61 14.6275L25.2215 9.01589C26.5761 7.66137 28.8981 7.66137 30.2526 9.01589L31.4136 10.1769C32.9616 11.6282 32.9616 13.9502 31.5104 15.3047Z" stroke="#181718" stroke-miterlimit="10" stroke-linecap="round" stroke-linejoin="round"/>
<path d="M24.1573 21.884C23.093 22.0775 22.0287 21.7872 21.2547 21.0132L19.61 19.3684C18.8359 18.5944 18.5457 17.5302 18.7392 16.4659C19.0295 16.3691 19.3197 16.3691 19.7067 16.3691C22.2222 16.3691 24.3508 18.4009 24.3508 21.0132C24.254 21.2067 24.254 21.5937 24.1573 21.884Z" stroke="#181718" stroke-miterlimit="10" stroke-linecap="round" stroke-linejoin="round"/>
</svg>


<symbol id="pedicure" width="40" height="40" viewBox="0 0 40 40" fill='none'   xmlns="http://www.w3.org/2000/svg">
<path d="M25.5874 7.46606C25.5874 7.46606 24.9362 11.5599 23.0753 13.1416C21.2145 14.7232 23.0753 19.7475 23.0753 19.7475C23.0753 19.7475 24.9361 22.7248 20.6563 24.4925C16.3764 26.2603 14.8878 30.075 12.9339 31.4706C11.3522 32.6801 9.30531 33.8896 7.63058 32.8662C6.97929 32.494 6.79322 31.5636 7.25842 30.9123C9.4914 28.1211 16.0042 19.0031 16.8416 7.37305" stroke="#181718" stroke-miterlimit="10" stroke-linecap="round" stroke-linejoin="round"/>
<path d="M32.9377 7C32.9377 7 32.4725 11.0938 30.7978 12.8616C29.123 14.6294 31.1699 19.4675 31.1699 19.4675C31.1699 19.4675 33.2168 22.3517 29.03 24.3056C24.8432 26.3525 23.5406 30.1671 21.6798 31.7488C20.0981 33.0514 18.2373 34.354 16.3765 33.4236" stroke="#181718" stroke-miterlimit="10" stroke-linecap="round" stroke-linejoin="round"/>
</symbol>


<symbol id="facial" width="40" height="40" viewBox="0 0 40 40" fill='none'  xmlns="http://www.w3.org/2000/svg">
<path d="M35.4 23.2994C31.4509 23.2994 31.4509 21.373 27.5982 21.373C23.6491 21.373 23.6491 23.2994 19.7963 23.2994C15.8472 23.2994 15.8472 21.373 11.8982 21.373C7.94908 21.373 7.94908 23.2994 4 23.2994" stroke="#181718" stroke-miterlimit="10" stroke-linecap="round" stroke-linejoin="round"/>
<path d="M35.4 20.4108C31.4509 20.4108 31.4509 18.4844 27.5982 18.4844C23.6491 18.4844 23.6491 20.4108 19.7963 20.4108C15.8472 20.4108 15.8472 18.4844 11.8982 18.4844C7.94908 18.4844 7.94908 20.4108 4 20.4108" stroke="#181718" stroke-miterlimit="10" stroke-linecap="round" stroke-linejoin="round"/>
<path d="M20.1814 15.3064C18.8329 15.3064 17.7734 14.2469 17.7734 12.8984" stroke="#181718" stroke-miterlimit="10" stroke-linecap="round" stroke-linejoin="round"/>
<path d="M23.4565 13.4761C23.4565 14.1503 23.2639 14.7282 22.9749 15.2098C22.3007 16.4619 21.0485 17.2325 19.6037 17.2325C17.4847 17.2325 15.751 15.4988 15.751 13.3797C15.751 11.2607 19.6037 5 19.6037 5C19.6037 5 21.0485 7.31164 22.108 9.6233C22.8786 11.1644 23.4565 12.6092 23.4565 13.4761Z" stroke="#181718" stroke-miterlimit="10" stroke-linecap="round" stroke-linejoin="round"/>
<path d="M8.1416 7.69727V15.4991" stroke="#181718" stroke-miterlimit="10" stroke-linecap="round" stroke-linejoin="round"/>
<path d="M10.1645 13.3809L8.14185 15.4999L6.11914 13.3809" stroke="#181718" stroke-miterlimit="10" stroke-linecap="round" stroke-linejoin="round"/>
<path d="M31.1616 7.69727V15.4991" stroke="#181718" stroke-miterlimit="10" stroke-linecap="round" stroke-linejoin="round"/>
<path d="M33.2809 13.3809L31.1619 15.4999L29.1392 13.3809" stroke="#181718" stroke-miterlimit="10" stroke-linecap="round" stroke-linejoin="round"/>
<path d="M28.2728 32.8358C28.2728 33.1248 28.1765 33.4137 28.0801 33.7027C27.7912 34.2806 27.2133 34.6659 26.5391 34.6659C25.5759 34.6659 24.709 33.8953 24.709 32.8358C24.709 31.8726 26.5391 28.8867 26.5391 28.8867C26.5391 28.8867 27.2133 29.9462 27.6949 31.102C27.9838 31.7763 28.2728 32.4505 28.2728 32.8358Z" stroke="#181718" stroke-miterlimit="10" stroke-linecap="round" stroke-linejoin="round"/>
<path d="M21.4339 29.9471C21.4339 30.2361 21.3376 30.525 21.2413 30.814C20.9523 31.3919 20.3744 31.7772 19.7002 31.7772C18.737 31.7772 17.8701 31.0066 17.8701 29.9471C17.8701 28.9839 19.7002 25.998 19.7002 25.998C19.7002 25.998 20.3744 27.0575 20.856 28.2134C21.145 28.8876 21.4339 29.5619 21.4339 29.9471Z" stroke="#181718" stroke-miterlimit="10" stroke-linecap="round" stroke-linejoin="round"/>
<path d="M35.015 29.9471C35.015 30.2361 34.9187 30.525 34.8223 30.814C34.5334 31.3919 33.9555 31.7772 33.2812 31.7772C32.3181 31.7772 31.4512 31.0066 31.4512 29.9471C31.4512 28.9839 33.2812 25.998 33.2812 25.998C33.2812 25.998 33.9555 27.0575 34.4371 28.2134C34.726 28.8876 35.015 29.5619 35.015 29.9471Z" stroke="#181718" stroke-miterlimit="10" stroke-linecap="round" stroke-linejoin="round"/>
<path d="M14.6917 32.8358C14.6917 33.1248 14.5954 33.4137 14.4991 33.7027C14.2101 34.2806 13.6322 34.6659 12.958 34.6659C11.9948 34.6659 11.1279 33.8953 11.1279 32.8358C11.1279 31.8726 12.958 28.8867 12.958 28.8867C12.958 28.8867 13.6322 29.9462 14.1138 31.102C14.4028 31.7763 14.6917 32.4505 14.6917 32.8358Z" stroke="#181718" stroke-miterlimit="10" stroke-linecap="round" stroke-linejoin="round"/>
<path d="M7.85286 29.9471C7.85286 30.2361 7.75655 30.525 7.66023 30.814C7.37127 31.3919 6.79335 31.7772 6.11912 31.7772C5.15593 31.7772 4.28906 31.0066 4.28906 29.9471C4.28906 28.9839 6.11912 25.998 6.11912 25.998C6.11912 25.998 6.79336 27.0575 7.27496 28.2134C7.56391 28.8876 7.85286 29.5619 7.85286 29.9471Z" stroke="#181718" stroke-miterlimit="10" stroke-linecap="round" stroke-linejoin="round"/>
</symbol>









</svg>