<svg>
<symbol id="eyes" width="40" height="40" viewBox="0 0 40 40" fill="none" xmlns="http://www.w3.org/2000/svg">
<path fill-rule="evenodd" clip-rule="evenodd" d="M36.6071 18.6219C36.4924 18.6219 36.3785 18.5722 36.3014 18.4764C30.8714 11.7721 23.6816 9.40656 14.9308 11.4455C9.30781 12.7558 4.82483 15.558 3.62726 16.3545C4.05289 16.7242 5.2832 17.3848 7.28418 17.76C7.49771 17.7998 7.63816 18.0052 7.59791 18.2185C7.55848 18.4318 7.3531 18.5722 7.13959 18.5322C4.79358 18.0923 2.84162 17.121 2.69633 16.3206C2.66906 16.1713 2.73044 16.0197 2.85389 15.9312C2.90507 15.8945 8.04057 12.2442 14.7529 10.6802C18.7127 9.75749 22.4418 9.72728 25.8368 10.5903C30.0885 11.6705 33.8142 14.1575 36.9118 17.9818C37.0482 18.1503 37.0223 18.3978 36.8539 18.5344C36.7809 18.5932 36.6936 18.622 36.6071 18.6219Z" fill="#181718"/>
<path fill-rule="evenodd" clip-rule="evenodd" d="M36.6065 18.6215C36.5063 18.6215 36.406 18.5836 36.3296 18.5074C26.0306 8.26798 16.0406 13.9547 10.6732 17.0098C9.01671 17.9526 7.92201 18.5748 7.1916 18.5381C6.97551 18.5268 6.80831 18.3422 6.8199 18.1255C6.83081 17.9089 7.01564 17.7426 7.23252 17.7534C7.24144 17.7539 7.25093 17.7542 7.26116 17.7542C7.77683 17.754 8.94094 17.0918 10.2845 16.3269C12.9314 14.8202 16.9313 12.5433 21.5601 11.9982C24.1156 11.6973 26.6083 11.9594 28.9701 12.7771C31.7295 13.7322 34.392 15.4727 36.8834 17.9502C37.0375 18.1031 37.0382 18.3519 36.8854 18.5057C36.8084 18.5829 36.7074 18.6216 36.6065 18.6215Z" fill="#181718"/>
<path fill-rule="evenodd" clip-rule="evenodd" d="M32.7405 23.4459C32.6299 23.4459 32.5207 23.4 32.443 23.3101C32.4225 23.2871 31.1369 21.8195 28.9484 20.3583C26.9365 19.0151 23.7242 17.4011 19.8457 17.3367C15.9577 17.4012 12.7385 19.0226 10.7225 20.3717C8.53323 21.8369 7.2613 23.2956 7.24833 23.3101C7.10661 23.474 6.85889 23.4922 6.69456 23.3503C6.53023 23.2082 6.51247 22.9602 6.65432 22.7961C6.70902 22.7333 8.00879 21.2424 10.286 19.7187C12.3907 18.31 15.7564 16.617 19.8395 16.5509C19.8437 16.5508 19.8477 16.5509 19.8518 16.5509C23.935 16.6169 27.3007 18.31 29.4054 19.7187C31.682 21.2423 32.9824 22.7334 33.037 22.7961C33.1789 22.9602 33.1611 23.2083 32.9968 23.3503C32.9225 23.4145 32.8311 23.446 32.7405 23.4459Z" fill="#181718"/>
<path fill-rule="evenodd" clip-rule="evenodd" d="M19.8457 29.5563C19.8437 29.5563 19.8416 29.5563 19.8395 29.5563C15.7564 29.4903 12.3907 27.7972 10.286 26.3885C8.00892 24.8648 6.70888 23.3739 6.65433 23.3111C6.51248 23.1469 6.53021 22.899 6.69457 22.757C6.85894 22.615 7.1065 22.6331 7.24834 22.7971C7.26131 22.8116 8.54759 24.2836 10.743 25.749C12.755 27.092 15.9671 28.7062 19.8456 28.7707C23.7338 28.706 26.9528 27.0847 28.9688 25.7356C31.1581 24.2701 32.43 22.8117 32.443 22.7971C32.5849 22.633 32.8324 22.615 32.9968 22.757C33.1612 22.899 33.1788 23.147 33.037 23.3111C32.9825 23.3737 31.6819 24.8648 29.4053 26.3885C27.3008 27.7972 23.935 29.4903 19.8518 29.5563C19.8498 29.5563 19.8477 29.5563 19.8457 29.5563Z" fill="#181718"/>
<path fill-rule="evenodd" clip-rule="evenodd" d="M19.8348 27.7498C18.9447 27.7498 18.0669 27.5166 17.2758 27.0598C14.8248 25.6443 13.9811 22.4982 15.3969 20.0465C15.4625 19.9332 15.5313 19.8241 15.6077 19.7129C15.7304 19.5339 15.9746 19.4885 16.1533 19.6112C16.3327 19.7339 16.3776 19.9785 16.2556 20.1575C16.1894 20.2529 16.1328 20.3426 16.0775 20.4394C14.8786 22.5158 15.5926 25.1805 17.6687 26.3794C18.6747 26.9601 19.8463 27.1144 20.9682 26.8137C22.0902 26.5131 23.0279 25.7936 23.6082 24.7877C24.4308 23.3636 24.385 21.623 23.4902 20.2451C23.4802 20.2297 23.4718 20.2177 23.4623 20.204L23.4481 20.1833C23.3267 20.0038 23.373 19.7595 23.5523 19.6377C23.7318 19.5158 23.9765 19.5624 24.0979 19.742L24.111 19.7604C24.1233 19.779 24.1348 19.7955 24.1484 19.8168C25.2062 21.444 25.2594 23.4993 24.2889 25.1806C23.6035 26.3682 22.4959 27.2177 21.1714 27.5727C20.7295 27.6912 20.2801 27.7498 19.8348 27.7498Z" fill="#181718"/>
<path fill-rule="evenodd" clip-rule="evenodd" d="M19.8416 20.7923C18.8385 20.7923 18.022 21.6088 18.022 22.6122C18.0221 23.6155 18.8383 24.4319 19.8416 24.4319C20.8448 24.4319 21.6612 23.6156 21.6612 22.6122C21.6612 21.6087 20.8448 20.7924 19.8416 20.7923ZM19.8416 25.2176C18.4047 25.2176 17.2363 24.0488 17.2363 22.6122C17.2364 21.1755 18.4046 20.0067 19.8416 20.0067C21.2779 20.0066 22.4468 21.1756 22.4468 22.6122C22.4469 24.0487 21.2779 25.2177 19.8416 25.2176Z" fill="#181718"/>
<path fill-rule="evenodd" clip-rule="evenodd" d="M32.7237 23.4275C32.6609 23.4275 32.5974 23.4127 32.5387 23.3813C28.4284 21.1904 24.1317 20.0499 19.7696 19.9911C15.5098 20.0484 11.3052 21.1407 7.27453 23.2373C7.08151 23.3373 6.84487 23.2626 6.7446 23.0701C6.64448 22.8774 6.71938 22.6404 6.91173 22.5403C11.0542 20.3856 15.3788 19.2636 19.7648 19.2054C19.7682 19.2053 19.7716 19.2054 19.775 19.2054C24.2654 19.265 28.684 20.4367 32.9084 22.688C33.1001 22.7899 33.1723 23.028 33.07 23.2194C32.9999 23.352 32.8634 23.4276 32.7237 23.4275Z" fill="#181718"/>
</symbol>
</svg>