<svg width="438" height="215" viewBox="0 0 438 215" fill="none" xmlns="http://www.w3.org/2000/svg">
<mask id="path-1-inside-1_35_339" fill="white">
<path fillRule="evenodd" clipRule="evenodd" d="M295.42 0.5C295.742 0.5 296 0.763917 296 1.08544V94.9462C296 111.515 309.431 124.946 326 124.946H427.946C433.499 124.946 438 129.447 438 135C438 172.712 438 191.569 426.284 203.284C414.569 215 395.712 215 358 215H40C21.1438 215 11.7157 215 5.85786 209.142C0 203.284 0 193.856 0 175V80.5C0 42.7876 0 23.9315 11.7157 12.2157C23.4315 0.5 42.2876 0.5 80 0.5L295.42 0.5Z"/>
</mask>
<path fillRule="evenodd" clipRule="evenodd" d="M295.42 0.5C295.742 0.5 296 0.763917 296 1.08544V94.9462C296 111.515 309.431 124.946 326 124.946H427.946C433.499 124.946 438 129.447 438 135C438 172.712 438 191.569 426.284 203.284C414.569 215 395.712 215 358 215H40C21.1438 215 11.7157 215 5.85786 209.142C0 203.284 0 193.856 0 175V80.5C0 42.7876 0 23.9315 11.7157 12.2157C23.4315 0.5 42.2876 0.5 80 0.5L295.42 0.5Z" fill="#F5F5F5"/>
<path d="M5.85786 209.142L6.56497 208.435L5.85786 209.142ZM297 94.9462V1.08544H295V94.9462H297ZM326 123.946C309.984 123.946 297 110.962 297 94.9462H295C295 112.067 308.879 125.946 326 125.946V123.946ZM427.946 123.946H326V125.946H427.946V123.946ZM437 135C437 153.884 436.998 167.947 435.544 178.758C434.095 189.539 431.218 196.936 425.577 202.577L426.991 203.991C433.066 197.917 436.047 190.028 437.527 179.024C439.002 168.049 439 153.828 439 135H437ZM425.577 202.577C419.936 208.218 412.539 211.095 401.758 212.544C390.947 213.998 376.884 214 358 214V216C376.828 216 391.049 216.002 402.024 214.527C413.028 213.047 420.917 210.066 426.991 203.991L425.577 202.577ZM358 214H40V216H358V214ZM1 175V80.5H-1V175H1ZM1 80.5C1 61.6156 1.00212 47.5528 2.45555 36.7424C3.90511 25.9607 6.78174 18.5639 12.4228 12.9228L11.0086 11.5086C4.93399 17.5833 1.95276 25.4724 0.473383 36.4759C-1.00212 47.4506 -1 61.6721 -1 80.5H1ZM12.4228 12.9228C18.0639 7.28174 25.4607 4.40511 36.2424 2.95555C47.0528 1.50212 61.1156 1.5 80 1.5V-0.5C61.1721 -0.5 46.9506 -0.502124 35.9759 0.973383C24.9724 2.45276 17.0833 5.43399 11.0086 11.5086L12.4228 12.9228ZM80 1.5H295.42V-0.5H80V1.5ZM40 214C30.5436 214 23.552 213.998 18.1878 213.277C12.8524 212.559 9.27713 211.147 6.56497 208.435L5.15076 209.849C8.29646 212.995 12.3641 214.512 17.9213 215.259C23.4497 216.002 30.6002 216 40 216V214ZM-1 175C-1 184.4 -1.00212 191.55 -0.25885 197.079C0.488292 202.636 2.00506 206.704 5.15076 209.849L6.56497 208.435C3.85281 205.723 2.44064 202.148 1.72332 196.812C1.00212 191.448 1 184.456 1 175H-1ZM427.946 125.946C432.946 125.946 437 130 437 135H439C439 128.895 434.051 123.946 427.946 123.946V125.946ZM297 1.08544C297 0.224073 296.306 -0.5 295.42 -0.5V1.5C295.177 1.5 295 1.30376 295 1.08544H297Z" fill="black" fill-opacity="0.1" mask="url(#path-1-inside-1_35_339)"/>
</svg>
