<svg>
<symbol id="arrow-left-2" width="14" height="14" viewBox="0 0 14 14" xmlns="http://www.w3.org/2000/svg">
<path d="M9.35037 2.60727C9.5057 2.76259 9.51982 3.00564 9.39274 3.17692L9.35037 3.22599L5.5766 6.99996L9.35037 10.7739C9.5057 10.9293 9.51982 11.1723 9.39274 11.3436L9.35037 11.3927C9.19505 11.548 8.952 11.5621 8.78073 11.435L8.73166 11.3927L4.64832 7.30932C4.493 7.154 4.47888 6.91094 4.60596 6.73967L4.64832 6.6906L8.73166 2.60727C8.90251 2.43641 9.17952 2.43641 9.35037 2.60727Z"/>
</symbol>
<symbol id="profile" width="24" height="24" viewBox="0 0 24 24" xmlns="http://www.w3.org/2000/svg">
<path fillRule="evenodd" clipRule="evenodd" d="M11.9849 15.3462C8.11731 15.3462 4.81445 15.931 4.81445 18.2729C4.81445 20.6148 8.09636 21.2205 11.9849 21.2205C15.8525 21.2205 19.1545 20.6348 19.1545 18.2938C19.1545 15.9529 15.8735 15.3462 11.9849 15.3462Z" stroke-width="1.5" stroke-linecap="round" stroke-linejoin="round"/>
<path fillRule="evenodd" clipRule="evenodd" d="M11.9849 12.0059C14.523 12.0059 16.5801 9.94779 16.5801 7.40969C16.5801 4.8716 14.523 2.81445 11.9849 2.81445C9.44679 2.81445 7.3887 4.8716 7.3887 7.40969C7.38013 9.93922 9.42394 11.9973 11.9525 12.0059H11.9849Z" stroke-width="1.42857" stroke-linecap="round" stroke-linejoin="round"/>
</symbol>
<symbol id="calendar-search" width="24" height="24" viewBox="0 0 24 24" xmlns="http://www.w3.org/2000/svg">
<path d="M8 2V5" stroke-width="1.5" stroke-miterlimit="10" stroke-linecap="round" stroke-linejoin="round"/>
<path d="M16 2V5" stroke-width="1.5" stroke-miterlimit="10" stroke-linecap="round" stroke-linejoin="round"/>
<path d="M18.2 21.4C19.9673 21.4 21.4 19.9673 21.4 18.2C21.4 16.4327 19.9673 15 18.2 15C16.4327 15 15 16.4327 15 18.2C15 19.9673 16.4327 21.4 18.2 21.4Z" stroke-width="1.5" stroke-linecap="round" stroke-linejoin="round"/>
<path d="M22 22L21 21" stroke-width="1.5" stroke-linecap="round" stroke-linejoin="round"/>
<path d="M3.5 9.08997H20.5" stroke-width="1.5" stroke-miterlimit="10" stroke-linecap="round" stroke-linejoin="round"/>
<path d="M13.37 22H8C4.5 22 3 20 3 17V8.5C3 5.5 4.5 3.5 8 3.5H16C19.5 3.5 21 5.5 21 8.5V13" stroke-width="1.5" stroke-miterlimit="10" stroke-linecap="round" stroke-linejoin="round"/>
<path d="M11.9945 13.7H12.0035" stroke-width="2" stroke-linecap="round" stroke-linejoin="round"/>
<path d="M8.29529 13.7H8.30427" stroke-width="2" stroke-linecap="round" stroke-linejoin="round"/>
<path d="M8.29529 16.7H8.30427" stroke-width="2" stroke-linecap="round" stroke-linejoin="round"/>
</symbol>
<symbol id="wallet" width="24" height="24" viewBox="0 0 24 24" xmlns="http://www.w3.org/2000/svg">
<path d="M7.5 7.67001V6.70001C7.5 4.45001 9.31 2.24001 11.56 2.03001C14.24 1.77001 16.5 3.88001 16.5 6.51001V7.89001" stroke-width="1.5" stroke-miterlimit="10" stroke-linecap="round" stroke-linejoin="round"/>
<path d="M9.0008 22H15.0008C19.0208 22 19.7408 20.39 19.9508 18.43L20.7008 12.43C20.9708 9.99 20.2708 8 16.0008 8H8.0008C3.7308 8 3.0308 9.99 3.3008 12.43L4.0508 18.43C4.2608 20.39 4.9808 22 9.0008 22Z" stroke-width="1.5" stroke-miterlimit="10" stroke-linecap="round" stroke-linejoin="round"/>
<path d="M15.4945 12H15.5035" stroke-width="2" stroke-linecap="round" stroke-linejoin="round"/>
<path d="M8.49451 12H8.50349" stroke-width="2" stroke-linecap="round" stroke-linejoin="round"/>
</symbol>
<symbol id="support" width="24" height="24" viewBox="0 0 24 24" xmlns="http://www.w3.org/2000/svg">
<path d="M11.9999 0.000238057C7.52593 0.000238057 3.90686 3.45859 3.90686 7.73362V10.1335H3.34877C1.50318 10.1335 0 11.5699 0 13.3335V15.4669C0 17.2305 1.50318 18.6669 3.34877 18.6669H6.13946C6.43165 18.6669 6.69755 18.4128 6.69755 18.1336V10.6669C6.69755 10.3877 6.43164 10.1336 6.13946 10.1336H5.02328V7.73367C5.02328 4.03107 8.12523 1.06696 12 1.06696C15.8748 1.06696 18.9767 4.03107 18.9767 7.73367V10.1336H17.8605C17.5409 10.1392 17.3093 10.4267 17.3025 10.6669V18.1336C17.3025 18.4128 17.5684 18.6669 17.8605 18.6669H18.9246C18.7934 19.3414 18.4025 19.9656 17.6949 20.4835C16.8773 21.0818 15.6141 21.524 13.8665 21.5917C13.6202 20.8296 12.8745 20.2667 12.0002 20.2667C10.928 20.2667 10.0468 21.1088 10.0468 22.1334C10.0468 23.1579 10.9281 24 12.0002 24C12.8836 24 13.6372 23.4327 13.8752 22.6583C15.8155 22.588 17.3161 22.0938 18.3665 21.3249C19.3338 20.617 19.901 19.6709 20.0495 18.6666H20.6512C22.4968 18.6666 24 17.2302 24 15.4667V13.3333C24 11.5697 22.4968 10.1333 20.6512 10.1333H20.0931V7.73338C20.0931 3.45826 16.474 0 12.0001 0L11.9999 0.000238057ZM3.34872 11.2003H5.58132V17.6003H3.34872C2.10228 17.6003 1.11612 16.6582 1.11612 15.467V13.3336C1.11612 12.1425 2.10208 11.2002 3.34872 11.2002V11.2003ZM18.4184 11.2003H20.651C21.8975 11.2003 22.8836 12.1426 22.8836 13.3337V15.4671C22.8836 16.6581 21.8977 17.6005 20.651 17.6005H18.4184V11.2003ZM11.9999 21.3337C12.4688 21.3337 12.8371 21.6856 12.8371 22.1338C12.8371 22.5819 12.4688 22.9338 11.9999 22.9338C11.5309 22.9338 11.1626 22.5819 11.1626 22.1338C11.1626 21.6856 11.5309 21.3337 11.9999 21.3337Z"/>
</symbol>
<symbol id="message" width="24" height="24" viewBox="0 0 24 24" xmlns="http://www.w3.org/2000/svg">
<path d="M18.4698 16.83L18.8598 19.99C18.9598 20.82 18.0698 21.4 17.3598 20.97L13.1698 18.48C12.7098 18.48 12.2599 18.45 11.8199 18.39C12.5599 17.52 12.9998 16.42 12.9998 15.23C12.9998 12.39 10.5398 10.09 7.49985 10.09C6.33985 10.09 5.26985 10.42 4.37985 11C4.34985 10.75 4.33984 10.5 4.33984 10.24C4.33984 5.68999 8.28985 2 13.1698 2C18.0498 2 21.9998 5.68999 21.9998 10.24C21.9998 12.94 20.6098 15.33 18.4698 16.83Z" stroke-width="1.5" stroke-linecap="round" stroke-linejoin="round"/>
<path d="M13 15.23C13 16.42 12.56 17.5201 11.82 18.3901C10.83 19.5901 9.26 20.36 7.5 20.36L4.89 21.91C4.45 22.18 3.89 21.81 3.95 21.3L4.2 19.3301C2.86 18.4001 2 16.91 2 15.23C2 13.47 2.94 11.9201 4.38 11.0001C5.27 10.4201 6.34 10.0901 7.5 10.0901C10.54 10.0901 13 12.39 13 15.23Z" stroke-width="1.5" stroke-linecap="round" stroke-linejoin="round"/>
</symbol>
<symbol id="logIn" width="24" height="24" viewBox="0 0 24 24" xmlns="http://www.w3.org/2000/svg">
<path d="M8.90039 7.55999C9.21039 3.95999 11.0604 2.48999 15.1104 2.48999H15.2404C19.7104 2.48999 21.5004 4.27999 21.5004 8.74999V15.27C21.5004 19.74 19.7104 21.53 15.2404 21.53H15.1104C11.0904 21.53 9.24039 20.08 8.91039 16.54" stroke-opacity="0.75" stroke-width="1.5" stroke-linecap="round" stroke-linejoin="round"/>
<path d="M2 12H14.88" stroke-opacity="0.75" stroke-width="1.5" stroke-linecap="round" stroke-linejoin="round"/>
<path d="M12.6504 8.65002L16.0004 12L12.6504 15.35" stroke-opacity="0.75" stroke-width="1.5" stroke-linecap="round" stroke-linejoin="round"/>
</symbol>

<!-- Ticket -->
<symbol id="arrow-down" width="15" height="15" viewBox="0 0 15 15"  xmlns="http://www.w3.org/2000/svg">
<path d="M12.4508 5.59375L8.37578 9.66875C7.89453 10.15 7.10703 10.15 6.62578 9.66875L2.55078 5.59375" stroke-opacity="0.65" stroke-width="1.5" stroke-miterlimit="10" stroke-linecap="round" stroke-linejoin="round"/>
</symbol>

<symbol id="upload" width="64" height="64" viewBox="0 0 64 64" fill="none" xmlns="http://www.w3.org/2000/svg">
<path fillRule="evenodd" clipRule="evenodd" d="M42.0013 57.333C42.0013 58.4266 42.908 59.3333 44.0013 59.3333C45.0946 59.3333 46.0013 58.4266 46.0013 57.3333V54H49.3346C50.428 54 51.3346 53.0933 51.3346 52C51.3346 50.9066 50.428 50 49.3346 50H46.0013V46.6666C46.0013 45.5733 45.0946 44.6666 44.0013 44.6666C42.908 44.6666 42.0013 45.5733 42.0013 46.6666V50H38.668C37.5746 50 36.668 50.9066 36.668 52C36.668 53.0933 37.5746 54 38.668 54H42.0013V57.3333Z" fill="#292D32" fill-opacity="0.09"/>
<path d="M32.4272 30.9867C32.3472 30.9867 32.2939 30.9867 32.2139 30.9867C32.0805 30.96 31.8939 30.96 31.7339 30.9867C24.0005 30.7467 18.1605 24.6667 18.1605 17.1734C18.1339 13.4934 19.5739 10.0267 22.1872 7.41337C24.8005 4.80004 28.2672 3.33337 31.9739 3.33337C39.6005 3.33337 45.8139 9.54671 45.8139 17.1734C45.8139 24.6667 39.9739 30.72 32.5072 30.9867C32.4805 30.9867 32.4539 30.9867 32.4272 30.9867ZM31.9739 7.33337C29.3339 7.33337 26.8805 8.37337 25.0139 10.2134C23.1739 12.08 22.1605 14.5334 22.1605 17.1467C22.1605 22.48 26.3205 26.8 31.6272 26.96C31.7872 26.9334 32.1339 26.9334 32.4805 26.96C37.7339 26.72 41.8139 22.4267 41.8139 17.1467C41.8139 11.76 37.3872 7.33337 31.9739 7.33337Z" fill="#292D32" fill-opacity="0.09"/>
<path d="M31.9731 60.1601C26.5331 60.1601 21.3864 58.7467 17.4931 56.1334C13.7864 53.6534 11.7598 50.2667 11.7598 46.6134C11.7598 42.9601 13.8131 39.6001 17.4931 37.1467C25.4664 31.8134 38.4264 31.8134 46.3998 37.1467C47.3064 37.7601 47.5731 39.0134 46.9598 39.9201C46.3464 40.8534 45.0931 41.0934 44.1864 40.4801C37.5464 36.0534 26.3464 36.0534 19.7064 40.4801C17.1464 42.1867 15.7598 44.3467 15.7598 46.6134C15.7598 48.8801 17.1464 51.0934 19.7064 52.8001C22.9331 54.9601 27.2798 56.1334 31.9464 56.1334C33.0398 56.1334 33.9464 57.0401 33.9464 58.1334C33.9464 59.2267 33.0664 60.1601 31.9731 60.1601Z" fill="#292D32" fill-opacity="0.09"/>
</symbol>
<symbol id="filter" width="24" height="24" viewBox="0 0 24 24" fill="none" xmlns="http://www.w3.org/2000/svg">
<path d="M5.40039 2.09961H18.6004C19.7004 2.09961 20.6004 2.99961 20.6004 4.09961V6.29961C20.6004 7.09961 20.1004 8.09961 19.6004 8.59961L15.3004 12.3996C14.7004 12.8996 14.3004 13.8996 14.3004 14.6996V18.9996C14.3004 19.5996 13.9004 20.3996 13.4004 20.6996L12.0004 21.5996C10.7004 22.3996 8.90039 21.4996 8.90039 19.8996V14.5996C8.90039 13.8996 8.50039 12.9996 8.10039 12.4996L4.30039 8.49961C3.80039 7.99961 3.40039 7.09961 3.40039 6.49961V4.19961C3.40039 2.99961 4.30039 2.09961 5.40039 2.09961Z" stroke="#292D32" stroke-width="1.5" stroke-miterlimit="10" stroke-linecap="round" stroke-linejoin="round"/>
<path d="M10.93 2.09961L6 9.99961" stroke="#292D32" stroke-width="1.5" stroke-miterlimit="10" stroke-linecap="round" stroke-linejoin="round"/>
</symbol>
<symbol id="export" width="24" height="24" viewBox="0 0 24 24" fill="none" xmlns="http://www.w3.org/2000/svg">
<path d="M16.4405 8.90039C20.0405 9.21039 21.5105 11.0604 21.5105 15.1104V15.2404C21.5105 19.7104 19.7205 21.5004 15.2505 21.5004H8.74047C4.27047 21.5004 2.48047 19.7104 2.48047 15.2404V15.1104C2.48047 11.0904 3.93047 9.24039 7.47047 8.91039" stroke="#292D32" stroke-width="1.5" stroke-linecap="round" stroke-linejoin="round"/>
<path d="M12 2V14.88" stroke="#292D32" stroke-width="1.5" stroke-linecap="round" stroke-linejoin="round"/>
<path d="M15.3504 12.6504L12.0004 16.0004L8.65039 12.6504" stroke="#292D32" stroke-width="1.5" stroke-linecap="round" stroke-linejoin="round"/>
</symbol>
<symbol id="wallet2" width="24" height="24" viewBox="0 0 24 24" fill="none" xmlns="http://www.w3.org/2000/svg">
<path d="M18.04 13.55C17.62 13.96 17.38 14.55 17.44 15.18C17.53 16.26 18.52 17.05 19.6 17.05H21.5V18.24C21.5 20.31 19.81 22 17.74 22H6.26C4.19 22 2.5 20.31 2.5 18.24V11.51C2.5 9.44001 4.19 7.75 6.26 7.75H17.74C19.81 7.75 21.5 9.44001 21.5 11.51V12.95H19.48C18.92 12.95 18.41 13.17 18.04 13.55Z" stroke="#181718" stroke-width="1.5" stroke-linecap="round" stroke-linejoin="round"/>
<path d="M2.5 12.4103V7.84035C2.5 6.65035 3.23 5.5903 4.34 5.1703L12.28 2.1703C13.52 1.7003 14.85 2.62033 14.85 3.95033V7.75032" stroke="#181718" stroke-width="1.5" stroke-linecap="round" stroke-linejoin="round"/>
<path d="M22.5588 13.9702V16.0302C22.5588 16.5802 22.1188 17.0302 21.5588 17.0502H19.5988C18.5188 17.0502 17.5288 16.2602 17.4388 15.1802C17.3788 14.5502 17.6188 13.9602 18.0388 13.5502C18.4088 13.1702 18.9188 12.9502 19.4788 12.9502H21.5588C22.1188 12.9702 22.5588 13.4202 22.5588 13.9702Z" stroke="#181718" stroke-width="1.5" stroke-linecap="round" stroke-linejoin="round"/>
</symbol>
<symbol id="close-btn-modal" width="24" height="24" viewBox="0 0 24 24" fill="none" xmlns="http://www.w3.org/2000/svg">
<path opacity="0.3" fill-rule="evenodd" clip-rule="evenodd" d="M5.29871 5.29851C5.69693 4.90044 6.3425 4.90051 6.74064 5.29866L12.0001 10.5583L17.2555 5.30382C17.6536 4.90571 18.2992 4.90571 18.6974 5.30382C19.0956 5.70193 19.0956 6.34739 18.6974 6.7455L13.4419 12.0001L18.7014 17.2598C19.0996 17.658 19.0995 18.3034 18.7013 18.7015C18.3031 19.0996 17.6575 19.0995 17.2594 18.7013L11.9999 13.4418L6.74656 18.6942C6.34838 19.0923 5.7028 19.0923 5.30462 18.6942C4.90645 18.2961 4.90645 17.6506 5.30462 17.2525L10.5581 11.9999L5.29856 6.74018C4.90042 6.34203 4.90049 5.69657 5.29871 5.29851Z" fill="#181718"/>
</symbol>
<symbol id="star" width="15" height="14" viewBox="0 0 15 14" fill="none" xmlns="http://www.w3.org/2000/svg">
<path d="M11.3882 8.35301C11.2356 8.49942 11.1655 8.71117 11.2003 8.91884L11.724 11.7888C11.7682 12.0321 11.6645 12.2783 11.4589 12.4188C11.2574 12.5647 10.9894 12.5822 10.7696 12.4655L8.16048 11.118C8.06975 11.0702 7.96902 11.0445 7.86592 11.0416H7.70627C7.6509 11.0498 7.5967 11.0673 7.54722 11.0941L4.93746 12.448C4.80845 12.5122 4.66235 12.5349 4.5192 12.5122C4.17044 12.4468 3.93774 12.1178 3.99489 11.7708L4.5192 8.90076C4.55395 8.69134 4.48385 8.47843 4.33127 8.32967L2.204 6.28801C2.02609 6.11709 1.96423 5.86042 2.04553 5.62884C2.12447 5.39784 2.32594 5.22926 2.56925 5.19134L5.49712 4.77076C5.7198 4.74801 5.91538 4.61384 6.01553 4.41551L7.30568 1.79634C7.33631 1.73801 7.37578 1.68434 7.4235 1.63884L7.47652 1.59801C7.50421 1.56767 7.53602 1.54259 7.57137 1.52217L7.63558 1.49884L7.73573 1.45801H7.98374C8.20525 1.48076 8.40024 1.61201 8.50216 1.80801L9.80939 4.41551C9.90365 4.60626 10.0869 4.73867 10.2984 4.77076L13.2262 5.19134C13.4736 5.22634 13.6804 5.39551 13.7623 5.62884C13.8395 5.86276 13.7729 6.11942 13.5915 6.28801L11.3882 8.35301Z" fill="#EB1086"/>
</symbol>



</svg>